<?xml version="1.0" encoding="UTF-8" standalone="no"?>
<svg width="31.408564" height="16.980219">
  <g id="layer001_datatype000">
    <path style="fill:#2b0fff"
          d="M 15.306828 7.188028 L 15.306828 7.388028 L 10.306828 7.388028 L 10.306828 7.188028 Z"/>
    <path style="fill:#2b0fff"
          d="M 18.824535 7.787982 L 18.859534 7.787790 L 18.894533 7.787538 L 18.929532 7.787205 L 18.964529 7.786767 L 18.999524 7.786191 L 19.034516 7.785433 L 19.069502 7.784434 L 19.104477 7.783120 L 19.139434 7.781391 L 19.174359 7.779115 L 19.209231 7.776122 L 19.244008 7.772187 L 19.278622 7.767019 L 19.312958 7.760243 L 19.346816 7.751383 L 19.379864 7.739858 L 19.411558 7.724990 L 19.441039 7.706081 L 19.467039 7.682579 L 19.487870 7.654384 L 19.501651 7.622201 L 19.506828 7.588028 L 20.306828 7.588028 L 20.306828 7.988028 L 18.824535 7.988028 L 15.306828 7.988028 L 15.306828 7.788028 L 18.824535 7.787982 Z"/>
    <path style="fill:#2b0fff"
          d="M 18.824535 7.388074 L 18.859534 7.388266 L 18.894533 7.388518 L 18.929532 7.388851 L 18.964529 7.389288 L 18.999524 7.389865 L 19.034516 7.390623 L 19.069502 7.391622 L 19.104477 7.392936 L 19.139434 7.394665 L 19.174359 7.396940 L 19.209231 7.399934 L 19.244008 7.403869 L 19.278622 7.409037 L 19.312958 7.415813 L 19.346816 7.424672 L 19.379864 7.436198 L 19.411558 7.451065 L 19.441039 7.469975 L 19.467039 7.493477 L 19.487870 7.521672 L 19.501651 7.553855 L 19.506828 7.588028 L 20.306828 7.588028 L 20.306828 7.188028 L 18.824535 7.188028 L 15.306828 7.188028 L 15.306828 7.388028 L 18.824535 7.388074 Z"/>
    <path style="fill:#2b0fff"
          d="M 11.789121 7.988074 L 11.754121 7.988266 L 11.719122 7.988518 L 11.684124 7.988851 L 11.649127 7.989288 L 11.614131 7.989865 L 11.579140 7.990623 L 11.544154 7.991622 L 11.509179 7.992936 L 11.474222 7.994665 L 11.439296 7.996940 L 11.404425 7.999934 L 11.369648 8.003869 L 11.335033 8.009037 L 11.300698 8.015813 L 11.266839 8.024672 L 11.233791 8.036198 L 11.202098 8.051065 L 11.172617 8.069975 L 11.146617 8.093477 L 11.125785 8.121672 L 11.112005 8.153855 L 11.106828 8.188028 L 10.306828 8.188028 L 10.306828 7.788028 L 11.789121 7.788028 L 15.306828 7.788028 L 15.306828 7.988028 L 11.789121 7.988074 Z"/>
    <path style="fill:#2b0fff"
          d="M 11.789121 8.387982 L 11.754121 8.387790 L 11.719122 8.387538 L 11.684124 8.387205 L 11.649127 8.386767 L 11.614131 8.386191 L 11.579140 8.385433 L 11.544154 8.384434 L 11.509179 8.383120 L 11.474222 8.381391 L 11.439296 8.379115 L 11.404425 8.376122 L 11.369648 8.372187 L 11.335033 8.367019 L 11.300698 8.360243 L 11.266839 8.351383 L 11.233791 8.339858 L 11.202098 8.324990 L 11.172617 8.306081 L 11.146617 8.282579 L 11.125785 8.254384 L 11.112005 8.222201 L 11.106828 8.188028 L 10.306828 8.188028 L 10.306828 8.588028 L 11.789121 8.588028 L 15.306828 8.588028 L 15.306828 8.388028 L 11.789121 8.387982 Z"/>
    <path style="fill:#2b0fff"
          d="M 18.824535 8.987982 L 18.859534 8.987790 L 18.894533 8.987538 L 18.929532 8.987205 L 18.964529 8.986767 L 18.999524 8.986191 L 19.034516 8.985433 L 19.069502 8.984434 L 19.104477 8.983120 L 19.139434 8.981391 L 19.174359 8.979115 L 19.209231 8.976122 L 19.244008 8.972187 L 19.278622 8.967019 L 19.312958 8.960243 L 19.346816 8.951383 L 19.379864 8.939858 L 19.411558 8.924990 L 19.441039 8.906081 L 19.467039 8.882579 L 19.487870 8.854384 L 19.501651 8.822201 L 19.506828 8.788028 L 20.306828 8.788028 L 20.306828 9.188028 L 18.824535 9.188028 L 15.306828 9.188028 L 15.306828 8.988028 L 18.824535 8.987982 Z"/>
    <path style="fill:#2b0fff"
          d="M 18.824535 8.588074 L 18.859534 8.588266 L 18.894533 8.588518 L 18.929532 8.588851 L 18.964529 8.589288 L 18.999524 8.589865 L 19.034516 8.590623 L 19.069502 8.591622 L 19.104477 8.592936 L 19.139434 8.594665 L 19.174359 8.596940 L 19.209231 8.599934 L 19.244008 8.603869 L 19.278622 8.609037 L 19.312958 8.615813 L 19.346816 8.624672 L 19.379864 8.636198 L 19.411558 8.651065 L 19.441039 8.669975 L 19.467039 8.693477 L 19.487870 8.721672 L 19.501651 8.753855 L 19.506828 8.788028 L 20.306828 8.788028 L 20.306828 8.388028 L 18.824535 8.388028 L 15.306828 8.388028 L 15.306828 8.588028 L 18.824535 8.588074 Z"/>
    <path style="fill:#2b0fff"
          d="M 11.789121 9.188074 L 11.754121 9.188266 L 11.719122 9.188518 L 11.684124 9.188851 L 11.649127 9.189288 L 11.614131 9.189865 L 11.579140 9.190623 L 11.544154 9.191622 L 11.509179 9.192936 L 11.474222 9.194665 L 11.439296 9.196940 L 11.404425 9.199934 L 11.369648 9.203869 L 11.335033 9.209037 L 11.300698 9.215813 L 11.266839 9.224672 L 11.233791 9.236198 L 11.202098 9.251065 L 11.172617 9.269975 L 11.146617 9.293477 L 11.125785 9.321672 L 11.112005 9.353855 L 11.106828 9.388028 L 10.306828 9.388028 L 10.306828 8.988028 L 11.789121 8.988028 L 15.306828 8.988028 L 15.306828 9.188028 L 11.789121 9.188074 Z"/>
    <path style="fill:#2b0fff"
          d="M 11.789121 9.587982 L 11.754121 9.587790 L 11.719122 9.587538 L 11.684124 9.587205 L 11.649127 9.586767 L 11.614131 9.586191 L 11.579140 9.585433 L 11.544154 9.584434 L 11.509179 9.583120 L 11.474222 9.581391 L 11.439296 9.579115 L 11.404425 9.576122 L 11.369648 9.572187 L 11.335033 9.567019 L 11.300698 9.560243 L 11.266839 9.551383 L 11.233791 9.539858 L 11.202098 9.524990 L 11.172617 9.506081 L 11.146617 9.482579 L 11.125785 9.454384 L 11.112005 9.422201 L 11.106828 9.388028 L 10.306828 9.388028 L 10.306828 9.788028 L 11.789121 9.788028 L 15.306828 9.788028 L 15.306828 9.588028 L 11.789121 9.587982 Z"/>
    <path style="fill:#2b0fff"
          d="M 18.824535 10.187982 L 18.859534 10.187790 L 18.894533 10.187538 L 18.929532 10.187205 L 18.964529 10.186767 L 18.999524 10.186191 L 19.034516 10.185433 L 19.069502 10.184434 L 19.104477 10.183120 L 19.139434 10.181391 L 19.174359 10.179115 L 19.209231 10.176122 L 19.244008 10.172187 L 19.278622 10.167019 L 19.312958 10.160243 L 19.346816 10.151383 L 19.379864 10.139858 L 19.411558 10.124990 L 19.441039 10.106081 L 19.467039 10.082579 L 19.487870 10.054384 L 19.501651 10.022201 L 19.506828 9.988028 L 20.306828 9.988028 L 20.306828 10.388028 L 18.824535 10.388028 L 15.306828 10.388028 L 15.306828 10.188028 L 18.824535 10.187982 Z"/>
    <path style="fill:#2b0fff"
          d="M 18.824535 9.788074 L 18.859534 9.788266 L 18.894533 9.788518 L 18.929532 9.788851 L 18.964529 9.789288 L 18.999524 9.789865 L 19.034516 9.790623 L 19.069502 9.791622 L 19.104477 9.792936 L 19.139434 9.794665 L 19.174359 9.796940 L 19.209231 9.799934 L 19.244008 9.803869 L 19.278622 9.809037 L 19.312958 9.815813 L 19.346816 9.824672 L 19.379864 9.836198 L 19.411558 9.851065 L 19.441039 9.869975 L 19.467039 9.893477 L 19.487870 9.921672 L 19.501651 9.953855 L 19.506828 9.988028 L 20.306828 9.988028 L 20.306828 9.588028 L 18.824535 9.588028 L 15.306828 9.588028 L 15.306828 9.788028 L 18.824535 9.788074 Z"/>
    <path style="fill:#2b0fff"
          d="M 11.789121 10.388074 L 11.754121 10.388266 L 11.719122 10.388518 L 11.684124 10.388851 L 11.649127 10.389288 L 11.614131 10.389865 L 11.579140 10.390623 L 11.544154 10.391622 L 11.509179 10.392936 L 11.474222 10.394665 L 11.439296 10.396940 L 11.404425 10.399934 L 11.369648 10.403869 L 11.335033 10.409037 L 11.300698 10.415813 L 11.266839 10.424672 L 11.233791 10.436198 L 11.202098 10.451065 L 11.172617 10.469975 L 11.146617 10.493477 L 11.125785 10.521672 L 11.112005 10.553855 L 11.106828 10.588028 L 10.306828 10.588028 L 10.306828 10.188028 L 11.789121 10.188028 L 15.306828 10.188028 L 15.306828 10.388028 L 11.789121 10.388074 Z"/>
    <path style="fill:#2b0fff"
          d="M 11.789121 10.787982 L 11.754121 10.787790 L 11.719122 10.787538 L 11.684124 10.787205 L 11.649127 10.786767 L 11.614131 10.786191 L 11.579140 10.785433 L 11.544154 10.784434 L 11.509179 10.783120 L 11.474222 10.781391 L 11.439296 10.779115 L 11.404425 10.776122 L 11.369648 10.772187 L 11.335033 10.767019 L 11.300698 10.760243 L 11.266839 10.751383 L 11.233791 10.739858 L 11.202098 10.724990 L 11.172617 10.706081 L 11.146617 10.682579 L 11.125785 10.654384 L 11.112005 10.622201 L 11.106828 10.588028 L 10.306828 10.588028 L 10.306828 10.988028 L 11.789121 10.988028 L 15.306828 10.988028 L 15.306828 10.788028 L 11.789121 10.787982 Z"/>
    <path style="fill:#2b0fff"
          d="M 18.824535 11.387982 L 18.859534 11.387790 L 18.894533 11.387538 L 18.929532 11.387205 L 18.964529 11.386767 L 18.999524 11.386191 L 19.034516 11.385433 L 19.069502 11.384434 L 19.104477 11.383120 L 19.139434 11.381391 L 19.174359 11.379115 L 19.209231 11.376122 L 19.244008 11.372187 L 19.278622 11.367019 L 19.312958 11.360243 L 19.346816 11.351383 L 19.379864 11.339858 L 19.411558 11.324990 L 19.441039 11.306081 L 19.467039 11.282579 L 19.487870 11.254384 L 19.501651 11.222201 L 19.506828 11.188028 L 20.306828 11.188028 L 20.306828 11.588028 L 18.824535 11.588028 L 15.306828 11.588028 L 15.306828 11.388028 L 18.824535 11.387982 Z"/>
    <path style="fill:#2b0fff"
          d="M 18.824535 10.988074 L 18.859534 10.988266 L 18.894533 10.988518 L 18.929532 10.988851 L 18.964529 10.989288 L 18.999524 10.989865 L 19.034516 10.990623 L 19.069502 10.991622 L 19.104477 10.992936 L 19.139434 10.994665 L 19.174359 10.996940 L 19.209231 10.999934 L 19.244008 11.003869 L 19.278622 11.009037 L 19.312958 11.015813 L 19.346816 11.024672 L 19.379864 11.036198 L 19.411558 11.051065 L 19.441039 11.069975 L 19.467039 11.093477 L 19.487870 11.121672 L 19.501651 11.153855 L 19.506828 11.188028 L 20.306828 11.188028 L 20.306828 10.788028 L 18.824535 10.788028 L 15.306828 10.788028 L 15.306828 10.988028 L 18.824535 10.988074 Z"/>
    <path style="fill:#2b0fff"
          d="M 11.789121 11.588074 L 11.754121 11.588266 L 11.719122 11.588518 L 11.684124 11.588851 L 11.649127 11.589288 L 11.614131 11.589865 L 11.579140 11.590623 L 11.544154 11.591622 L 11.509179 11.592936 L 11.474222 11.594665 L 11.439296 11.596940 L 11.404425 11.599934 L 11.369648 11.603869 L 11.335033 11.609037 L 11.300698 11.615813 L 11.266839 11.624672 L 11.233791 11.636198 L 11.202098 11.651065 L 11.172617 11.669975 L 11.146617 11.693477 L 11.125785 11.721672 L 11.112005 11.753855 L 11.106828 11.788028 L 10.306828 11.788028 L 10.306828 11.388028 L 11.789121 11.388028 L 15.306828 11.388028 L 15.306828 11.588028 L 11.789121 11.588074 Z"/>
    <path style="fill:#2b0fff"
          d="M 11.789121 11.987982 L 11.754121 11.987790 L 11.719122 11.987538 L 11.684124 11.987205 L 11.649127 11.986767 L 11.614131 11.986191 L 11.579140 11.985433 L 11.544154 11.984434 L 11.509179 11.983120 L 11.474222 11.981391 L 11.439296 11.979115 L 11.404425 11.976122 L 11.369648 11.972187 L 11.335033 11.967019 L 11.300698 11.960243 L 11.266839 11.951383 L 11.233791 11.939858 L 11.202098 11.924990 L 11.172617 11.906081 L 11.146617 11.882579 L 11.125785 11.854384 L 11.112005 11.822201 L 11.106828 11.788028 L 10.306828 11.788028 L 10.306828 12.188028 L 11.789121 12.188028 L 15.306828 12.188028 L 15.306828 11.988028 L 11.789121 11.987982 Z"/>
    <path style="fill:#2b0fff"
          d="M 18.824535 12.587982 L 18.859534 12.587790 L 18.894533 12.587538 L 18.929532 12.587205 L 18.964529 12.586767 L 18.999524 12.586191 L 19.034516 12.585433 L 19.069502 12.584434 L 19.104477 12.583120 L 19.139434 12.581391 L 19.174359 12.579115 L 19.209231 12.576122 L 19.244008 12.572187 L 19.278622 12.567019 L 19.312958 12.560243 L 19.346816 12.551383 L 19.379864 12.539858 L 19.411558 12.524990 L 19.441039 12.506081 L 19.467039 12.482579 L 19.487870 12.454384 L 19.501651 12.422201 L 19.506828 12.388028 L 20.306828 12.388028 L 20.306828 12.788028 L 18.824535 12.788028 L 15.306828 12.788028 L 15.306828 12.588028 L 18.824535 12.587982 Z"/>
    <path style="fill:#2b0fff"
          d="M 18.824535 12.188074 L 18.859534 12.188266 L 18.894533 12.188518 L 18.929532 12.188851 L 18.964529 12.189288 L 18.999524 12.189865 L 19.034516 12.190623 L 19.069502 12.191622 L 19.104477 12.192936 L 19.139434 12.194665 L 19.174359 12.196940 L 19.209231 12.199934 L 19.244008 12.203869 L 19.278622 12.209037 L 19.312958 12.215813 L 19.346816 12.224672 L 19.379864 12.236198 L 19.411558 12.251065 L 19.441039 12.269975 L 19.467039 12.293477 L 19.487870 12.321672 L 19.501651 12.353855 L 19.506828 12.388028 L 20.306828 12.388028 L 20.306828 11.988028 L 18.824535 11.988028 L 15.306828 11.988028 L 15.306828 12.188028 L 18.824535 12.188074 Z"/>
    <path style="fill:#2b0fff"
          d="M 11.789121 12.788074 L 11.754121 12.788266 L 11.719122 12.788518 L 11.684124 12.788851 L 11.649127 12.789288 L 11.614131 12.789865 L 11.579140 12.790623 L 11.544154 12.791622 L 11.509179 12.792936 L 11.474222 12.794665 L 11.439296 12.796940 L 11.404425 12.799934 L 11.369648 12.803869 L 11.335033 12.809037 L 11.300698 12.815813 L 11.266839 12.824672 L 11.233791 12.836198 L 11.202098 12.851065 L 11.172617 12.869975 L 11.146617 12.893477 L 11.125785 12.921672 L 11.112005 12.953855 L 11.106828 12.988028 L 10.306828 12.988028 L 10.306828 12.588028 L 11.789121 12.588028 L 15.306828 12.588028 L 15.306828 12.788028 L 11.789121 12.788074 Z"/>
    <path style="fill:#2b0fff"
          d="M 11.789121 13.187982 L 11.754121 13.187790 L 11.719122 13.187538 L 11.684124 13.187205 L 11.649127 13.186767 L 11.614131 13.186191 L 11.579140 13.185433 L 11.544154 13.184434 L 11.509179 13.183120 L 11.474222 13.181391 L 11.439296 13.179115 L 11.404425 13.176122 L 11.369648 13.172187 L 11.335033 13.167019 L 11.300698 13.160243 L 11.266839 13.151383 L 11.233791 13.139858 L 11.202098 13.124990 L 11.172617 13.106081 L 11.146617 13.082579 L 11.125785 13.054384 L 11.112005 13.022201 L 11.106828 12.988028 L 10.306828 12.988028 L 10.306828 13.388028 L 11.789121 13.388028 L 15.306828 13.388028 L 15.306828 13.188028 L 11.789121 13.187982 Z"/>
    <path style="fill:#2b0fff"
          d="M 18.824535 13.787982 L 18.859534 13.787790 L 18.894533 13.787538 L 18.929532 13.787205 L 18.964529 13.786767 L 18.999524 13.786191 L 19.034516 13.785433 L 19.069502 13.784434 L 19.104477 13.783120 L 19.139434 13.781391 L 19.174359 13.779115 L 19.209231 13.776122 L 19.244008 13.772187 L 19.278622 13.767019 L 19.312958 13.760243 L 19.346816 13.751383 L 19.379864 13.739858 L 19.411558 13.724990 L 19.441039 13.706081 L 19.467039 13.682579 L 19.487870 13.654384 L 19.501651 13.622201 L 19.506828 13.588028 L 20.306828 13.588028 L 20.306828 13.988028 L 18.824535 13.988028 L 15.306828 13.988028 L 15.306828 13.788028 L 18.824535 13.787982 Z"/>
    <path style="fill:#2b0fff"
          d="M 18.824535 13.388074 L 18.859534 13.388266 L 18.894533 13.388518 L 18.929532 13.388851 L 18.964529 13.389288 L 18.999524 13.389865 L 19.034516 13.390623 L 19.069502 13.391622 L 19.104477 13.392936 L 19.139434 13.394665 L 19.174359 13.396940 L 19.209231 13.399934 L 19.244008 13.403869 L 19.278622 13.409037 L 19.312958 13.415813 L 19.346816 13.424672 L 19.379864 13.436198 L 19.411558 13.451065 L 19.441039 13.469975 L 19.467039 13.493477 L 19.487870 13.521672 L 19.501651 13.553855 L 19.506828 13.588028 L 20.306828 13.588028 L 20.306828 13.188028 L 18.824535 13.188028 L 15.306828 13.188028 L 15.306828 13.388028 L 18.824535 13.388074 Z"/>
    <path style="fill:#2b0fff"
          d="M 11.789121 13.988074 L 11.754121 13.988266 L 11.719122 13.988518 L 11.684124 13.988851 L 11.649127 13.989288 L 11.614131 13.989865 L 11.579140 13.990623 L 11.544154 13.991622 L 11.509179 13.992936 L 11.474222 13.994665 L 11.439296 13.996940 L 11.404425 13.999934 L 11.369648 14.003869 L 11.335033 14.009037 L 11.300698 14.015813 L 11.266839 14.024672 L 11.233791 14.036198 L 11.202098 14.051065 L 11.172617 14.069975 L 11.146617 14.093477 L 11.125785 14.121672 L 11.112005 14.153855 L 11.106828 14.188028 L 10.306828 14.188028 L 10.306828 13.788028 L 11.789121 13.788028 L 15.306828 13.788028 L 15.306828 13.988028 L 11.789121 13.988074 Z"/>
    <path style="fill:#2b0fff"
          d="M 11.789121 14.387982 L 11.754121 14.387790 L 11.719122 14.387538 L 11.684124 14.387205 L 11.649127 14.386767 L 11.614131 14.386191 L 11.579140 14.385433 L 11.544154 14.384434 L 11.509179 14.383120 L 11.474222 14.381391 L 11.439296 14.379115 L 11.404425 14.376122 L 11.369648 14.372187 L 11.335033 14.367019 L 11.300698 14.360243 L 11.266839 14.351383 L 11.233791 14.339858 L 11.202098 14.324990 L 11.172617 14.306081 L 11.146617 14.282579 L 11.125785 14.254384 L 11.112005 14.222201 L 11.106828 14.188028 L 10.306828 14.188028 L 10.306828 14.588028 L 11.789121 14.588028 L 15.306828 14.588028 L 15.306828 14.388028 L 11.789121 14.387982 Z"/>
    <path style="fill:#2b0fff"
          d="M 18.824535 14.987982 L 18.859534 14.987790 L 18.894533 14.987538 L 18.929532 14.987205 L 18.964529 14.986767 L 18.999524 14.986191 L 19.034516 14.985433 L 19.069502 14.984434 L 19.104477 14.983120 L 19.139434 14.981391 L 19.174359 14.979115 L 19.209231 14.976122 L 19.244008 14.972187 L 19.278622 14.967019 L 19.312958 14.960243 L 19.346816 14.951383 L 19.379864 14.939858 L 19.411558 14.924990 L 19.441039 14.906081 L 19.467039 14.882579 L 19.487870 14.854384 L 19.501651 14.822201 L 19.506828 14.788028 L 20.306828 14.788028 L 20.306828 15.188028 L 18.824535 15.188028 L 15.306828 15.188028 L 15.306828 14.988028 L 18.824535 14.987982 Z"/>
    <path style="fill:#2b0fff"
          d="M 18.824535 14.588074 L 18.859534 14.588266 L 18.894533 14.588518 L 18.929532 14.588851 L 18.964529 14.589288 L 18.999524 14.589865 L 19.034516 14.590623 L 19.069502 14.591622 L 19.104477 14.592936 L 19.139434 14.594665 L 19.174359 14.596940 L 19.209231 14.599934 L 19.244008 14.603869 L 19.278622 14.609037 L 19.312958 14.615813 L 19.346816 14.624672 L 19.379864 14.636198 L 19.411558 14.651065 L 19.441039 14.669975 L 19.467039 14.693477 L 19.487870 14.721672 L 19.501651 14.753855 L 19.506828 14.788028 L 20.306828 14.788028 L 20.306828 14.388028 L 18.824535 14.388028 L 15.306828 14.388028 L 15.306828 14.588028 L 18.824535 14.588074 Z"/>
    <path style="fill:#2b0fff"
          d="M 11.789121 15.188074 L 11.754121 15.188266 L 11.719122 15.188518 L 11.684124 15.188851 L 11.649127 15.189288 L 11.614131 15.189865 L 11.579140 15.190623 L 11.544154 15.191622 L 11.509179 15.192936 L 11.474222 15.194665 L 11.439296 15.196940 L 11.404425 15.199934 L 11.369648 15.203869 L 11.335033 15.209037 L 11.300698 15.215813 L 11.266839 15.224672 L 11.233791 15.236198 L 11.202098 15.251065 L 11.172617 15.269975 L 11.146617 15.293477 L 11.125785 15.321672 L 11.112005 15.353855 L 11.106828 15.388028 L 10.306828 15.388028 L 10.306828 14.988028 L 11.789121 14.988028 L 15.306828 14.988028 L 15.306828 15.188028 L 11.789121 15.188074 Z"/>
    <path style="fill:#2b0fff"
          d="M 11.789121 15.587982 L 11.754121 15.587790 L 11.719122 15.587538 L 11.684124 15.587205 L 11.649127 15.586767 L 11.614131 15.586191 L 11.579140 15.585433 L 11.544154 15.584434 L 11.509179 15.583120 L 11.474222 15.581391 L 11.439296 15.579115 L 11.404425 15.576122 L 11.369648 15.572187 L 11.335033 15.567019 L 11.300698 15.560243 L 11.266839 15.551383 L 11.233791 15.539858 L 11.202098 15.524990 L 11.172617 15.506081 L 11.146617 15.482579 L 11.125785 15.454384 L 11.112005 15.422201 L 11.106828 15.388028 L 10.306828 15.388028 L 10.306828 15.788028 L 11.789121 15.788028 L 15.306828 15.788028 L 15.306828 15.588028 L 11.789121 15.587982 Z"/>
    <path style="fill:#2b0fff"
          d="M 15.306828 15.788028 L 15.306828 15.588028 L 20.306828 15.588028 L 20.306828 15.788028 Z"/>
    <path style="fill:#2b0fff"
          d="M 10.306828 7.388028 L 10.202718 7.388329 L 10.098609 7.388481 L 9.994500 7.388710 L 9.890390 7.389054 L 9.786281 7.389572 L 9.682172 7.390352 L 9.578062 7.391525 L 9.473953 7.393290 L 9.369843 7.395939 L 9.265734 7.399906 L 9.161625 7.405813 L 9.057515 7.414494 L 8.953406 7.426944 L 8.849297 7.444054 L 8.745187 7.466200 L 8.641078 7.492982 L 8.536968 7.523400 L 8.432859 7.556263 L 8.328750 7.590473 L 8.224640 7.625143 L 8.120531 7.659599 L 8.016422 7.693349 L 7.912312 7.726043 L 7.808203 7.757437 L 7.704094 7.787378 L 7.599984 7.815776 L 7.495875 7.842580 L 7.391765 7.867795 L 7.287656 7.891431 L 7.183547 7.913524 L 7.079437 7.934143 L 6.975328 7.953340 L 6.871219 7.971187 L 6.767109 7.987759 L 6.663000 8.003125 L 6.558890 8.017367 L 6.454781 8.030544 L 6.350672 8.042734 L 6.246562 8.054007 L 6.142453 8.064423 L 6.038344 8.074045 L 5.934234 8.082931 L 5.830125 8.091127 L 5.726015 8.098702 L 5.621906 8.105677 L 5.517797 8.112121 L 5.413687 8.118062 L 5.309578 8.123542 L 5.205469 8.128593 L 5.101359 8.133251 L 4.997250 8.137544 L 4.893140 8.141502 L 4.789031 8.145148 L 4.684922 8.148515 L 4.580812 8.151617 L 4.476703 8.154471 L 4.372594 8.157096 L 4.268484 8.159529 L 4.164375 8.161765 L 4.060266 8.163832 L 3.956156 8.165720 L 3.852047 8.167479 L 3.747937 8.169085 L 3.643828 8.170572 L 3.539719 8.171952 L 3.435609 8.173213 L 3.331500 8.174378 L 3.227391 8.175446 L 3.123281 8.176436 L 3.019172 8.177339 L 2.915062 8.178185 L 2.810953 8.178957 L 2.706844 8.179671 L 2.602734 8.180324 L 2.498625 8.180930 L 2.394516 8.181490 L 2.290406 8.181999 L 2.186297 8.182474 L 2.082187 8.182912 L 1.978078 8.183316 L 1.873969 8.183682 L 1.769859 8.184028 L 1.665750 8.184340 L 1.561641 8.184627 L 1.457531 8.184896 L 1.353422 8.185140 L 1.249312 8.185367 L 1.145203 8.185575 L 1.041094 8.185766 L 0.936984 8.185951 L 0.832875 8.186110 L 0.728766 8.186265 L 0.624656 8.186401 L 0.520547 8.186528 L 0.416437 8.186640 L 0.312328 8.186757 L 0.208219 8.186851 L 0.104109 8.186946 L 0.000000 8.188028 L 0.000000 7.188028 L 10.306828 7.188028 Z"/>
    <path style="fill:#2b0fff"
          d="M 20.306828 15.588028 L 20.410937 15.587727 L 20.515047 15.587575 L 20.619156 15.587346 L 20.723265 15.587002 L 20.827375 15.586483 L 20.931484 15.585703 L 21.035593 15.584530 L 21.139703 15.582766 L 21.243812 15.580117 L 21.347922 15.576149 L 21.452031 15.570243 L 21.556140 15.561561 L 21.660250 15.549112 L 21.764359 15.532002 L 21.868468 15.509856 L 21.972578 15.483074 L 22.076687 15.452655 L 22.180797 15.419793 L 22.284906 15.385583 L 22.389015 15.350912 L 22.493125 15.316456 L 22.597234 15.282706 L 22.701343 15.250013 L 22.805453 15.218619 L 22.909562 15.188678 L 23.013671 15.160279 L 23.117781 15.133475 L 23.221890 15.108261 L 23.326000 15.084625 L 23.430109 15.062531 L 23.534218 15.041913 L 23.638328 15.022715 L 23.742437 15.004869 L 23.846546 14.988296 L 23.950656 14.972931 L 24.054765 14.958688 L 24.158875 14.945512 L 24.262984 14.933322 L 24.367093 14.922048 L 24.471203 14.911633 L 24.575312 14.902011 L 24.679421 14.893125 L 24.783531 14.884929 L 24.887640 14.877354 L 24.991750 14.870379 L 25.095859 14.863935 L 25.199968 14.857994 L 25.304078 14.852514 L 25.408187 14.847462 L 25.512296 14.842804 L 25.616406 14.838512 L 25.720515 14.834554 L 25.824625 14.830908 L 25.928734 14.827540 L 26.032843 14.824439 L 26.136953 14.821585 L 26.241062 14.818960 L 26.345171 14.816527 L 26.449281 14.814291 L 26.553390 14.812224 L 26.657499 14.810336 L 26.761609 14.808577 L 26.865718 14.806971 L 26.969828 14.805484 L 27.073937 14.804104 L 27.178046 14.802842 L 27.282156 14.801678 L 27.386265 14.800610 L 27.490374 14.799619 L 27.594484 14.798717 L 27.698593 14.797871 L 27.802703 14.797098 L 27.906812 14.796385 L 28.010921 14.795732 L 28.115031 14.795125 L 28.219140 14.794566 L 28.323249 14.794056 L 28.427359 14.793582 L 28.531468 14.793144 L 28.635578 14.792740 L 28.739687 14.792374 L 28.843796 14.792027 L 28.947906 14.791716 L 29.052015 14.791429 L 29.156124 14.791160 L 29.260234 14.790916 L 29.364343 14.790689 L 29.468453 14.790481 L 29.572562 14.790290 L 29.676671 14.790105 L 29.780781 14.789945 L 29.884890 14.789791 L 29.988999 14.789654 L 30.093109 14.789528 L 30.197218 14.789416 L 30.301328 14.789299 L 30.405437 14.789205 L 30.509546 14.789110 L 30.613656 14.788028 L 30.613656 15.788028 L 20.306828 15.788028 Z"/>
  </g>
  <g id="layer002_datatype000">
    <path style="fill:#cc3d3d"
          d="M 14.503884 5.449550 L 14.645305 5.590972 L 11.109772 9.126505 L 10.968350 8.985084 Z"/>
    <path style="fill:#cc3d3d"
          d="M 17.415510 3.386387 L 17.440123 3.361503 L 17.464692 3.336577 L 17.489205 3.311594 L 17.513642 3.286538 L 17.537980 3.261385 L 17.562187 3.236105 L 17.586219 3.210661 L 17.610021 3.185001 L 17.633517 3.159059 L 17.656604 3.132754 L 17.679145 3.105980 L 17.700954 3.078607 L 17.721776 3.050476 L 17.741263 3.021405 L 17.758940 2.991200 L 17.774159 2.959681 L 17.786056 2.926758 L 17.793532 2.892541 L 17.795298 2.857537 L 17.790091 2.822870 L 17.777079 2.790369 L 17.756575 2.762544 L 18.322261 2.196859 L 18.605103 2.479702 L 17.556964 3.527841 L 15.069570 6.015236 L 14.928148 5.873814 L 17.415510 3.386387 Z"/>
    <path style="fill:#cc3d3d"
          d="M 17.132732 3.103609 L 17.157616 3.078997 L 17.182543 3.054427 L 17.207526 3.029915 L 17.232582 3.005478 L 17.257735 2.981140 L 17.283014 2.956933 L 17.308459 2.932900 L 17.334119 2.909098 L 17.360060 2.885603 L 17.386365 2.862516 L 17.413140 2.839975 L 17.440513 2.818166 L 17.468644 2.797344 L 17.497714 2.777857 L 17.527920 2.760180 L 17.559438 2.744961 L 17.592362 2.733063 L 17.626579 2.725588 L 17.661582 2.723822 L 17.696250 2.729029 L 17.728751 2.742041 L 17.756575 2.762544 L 18.322261 2.196859 L 18.039418 1.914016 L 16.991279 2.962156 L 14.503884 5.449550 L 14.645305 5.590972 L 17.132732 3.103609 Z"/>
    <path style="fill:#cc3d3d"
          d="M 12.582207 8.502663 L 12.557595 8.527547 L 12.533025 8.552473 L 12.508513 8.577456 L 12.484076 8.602512 L 12.459738 8.627665 L 12.435531 8.652944 L 12.411498 8.678389 L 12.387696 8.704049 L 12.364201 8.729991 L 12.341114 8.756296 L 12.318573 8.783070 L 12.296764 8.810443 L 12.275942 8.838574 L 12.256455 8.867644 L 12.238778 8.897850 L 12.223559 8.929369 L 12.211661 8.962292 L 12.204186 8.996509 L 12.202420 9.031513 L 12.207626 9.066180 L 12.220639 9.098681 L 12.241142 9.126505 L 11.675457 9.692191 L 11.392614 9.409348 L 12.440754 8.361209 L 14.928148 5.873814 L 15.069570 6.015236 L 12.582207 8.502663 Z"/>
    <path style="fill:#cc3d3d"
          d="M 12.864985 8.785440 L 12.840101 8.810053 L 12.815175 8.834623 L 12.790192 8.859135 L 12.765135 8.883572 L 12.739983 8.907910 L 12.714703 8.932117 L 12.689259 8.956149 L 12.663599 8.979951 L 12.637657 9.003447 L 12.611352 9.026534 L 12.584578 9.049075 L 12.557205 9.070884 L 12.529074 9.091706 L 12.500003 9.111193 L 12.469798 9.128870 L 12.438279 9.144089 L 12.405356 9.155987 L 12.371139 9.163462 L 12.336135 9.165228 L 12.301468 9.160021 L 12.268967 9.147009 L 12.241142 9.126505 L 11.675457 9.692191 L 11.958300 9.975034 L 13.006439 8.926894 L 15.493834 6.439500 L 15.352412 6.298078 L 12.864985 8.785440 Z"/>
    <path style="fill:#cc3d3d"
          d="M 18.264038 4.234916 L 18.288651 4.210031 L 18.313221 4.185105 L 18.337733 4.160122 L 18.362170 4.135066 L 18.386508 4.109913 L 18.410715 4.084634 L 18.434747 4.059189 L 18.458549 4.033529 L 18.482045 4.007588 L 18.505132 3.981282 L 18.527673 3.954508 L 18.549482 3.927135 L 18.570304 3.899004 L 18.589791 3.869934 L 18.607468 3.839728 L 18.622687 3.808209 L 18.634585 3.775286 L 18.642060 3.741069 L 18.643826 3.706065 L 18.638619 3.671398 L 18.625607 3.638897 L 18.605103 3.611073 L 19.170789 3.045387 L 19.453632 3.328230 L 18.405492 4.376369 L 15.918098 6.863764 L 15.776676 6.722342 L 18.264038 4.234916 Z"/>
    <path style="fill:#cc3d3d"
          d="M 17.981260 3.952138 L 18.006145 3.927525 L 18.031071 3.902955 L 18.056054 3.878443 L 18.081110 3.854006 L 18.106263 3.829668 L 18.131542 3.805461 L 18.156987 3.781429 L 18.182647 3.757627 L 18.208588 3.734131 L 18.234894 3.711044 L 18.261668 3.688503 L 18.289041 3.666694 L 18.317172 3.645872 L 18.346242 3.626385 L 18.376448 3.608708 L 18.407967 3.593489 L 18.440890 3.581591 L 18.475107 3.574116 L 18.510111 3.572350 L 18.544778 3.577557 L 18.577279 3.590569 L 18.605103 3.611073 L 19.170789 3.045387 L 18.887946 2.762544 L 17.839807 3.810684 L 15.352412 6.298078 L 15.493834 6.439500 L 17.981260 3.952138 Z"/>
    <path style="fill:#cc3d3d"
          d="M 13.430736 9.351191 L 13.406123 9.376075 L 13.381553 9.401001 L 13.357041 9.425984 L 13.332604 9.451041 L 13.308266 9.476193 L 13.284059 9.501473 L 13.260027 9.526917 L 13.236225 9.552577 L 13.212729 9.578519 L 13.189642 9.604824 L 13.167101 9.631598 L 13.145292 9.658971 L 13.124470 9.687102 L 13.104983 9.716173 L 13.087306 9.746378 L 13.072087 9.777897 L 13.060189 9.810820 L 13.052714 9.845037 L 13.050948 9.880041 L 13.056155 9.914708 L 13.069167 9.947209 L 13.089671 9.975034 L 12.523985 10.540719 L 12.241142 10.257876 L 13.289282 9.209737 L 15.776676 6.722342 L 15.918098 6.863764 L 13.430736 9.351191 Z"/>
    <path style="fill:#cc3d3d"
          d="M 13.713513 9.633969 L 13.688629 9.658581 L 13.663703 9.683151 L 13.638720 9.707663 L 13.613664 9.732100 L 13.588511 9.756438 L 13.563232 9.780645 L 13.537787 9.804678 L 13.512127 9.828480 L 13.486185 9.851975 L 13.459880 9.875062 L 13.433106 9.897603 L 13.405733 9.919412 L 13.377602 9.940234 L 13.348531 9.959721 L 13.318326 9.977398 L 13.286807 9.992617 L 13.253884 10.004515 L 13.219667 10.011990 L 13.184663 10.013756 L 13.149996 10.008550 L 13.117495 9.995537 L 13.089671 9.975034 L 12.523985 10.540719 L 12.806828 10.823562 L 13.854967 9.775422 L 16.342362 7.288028 L 16.200940 7.146606 L 13.713513 9.633969 Z"/>
    <path style="fill:#cc3d3d"
          d="M 19.112567 5.083444 L 19.137179 5.058560 L 19.161749 5.033633 L 19.186261 5.008650 L 19.210698 4.983594 L 19.235036 4.958441 L 19.259243 4.933162 L 19.283276 4.907717 L 19.307078 4.882057 L 19.330573 4.856116 L 19.353660 4.829811 L 19.376201 4.803036 L 19.398010 4.775663 L 19.418832 4.747532 L 19.438319 4.718462 L 19.455996 4.688256 L 19.471215 4.656738 L 19.483113 4.623814 L 19.490588 4.589597 L 19.492354 4.554594 L 19.487147 4.519926 L 19.474135 4.487425 L 19.453632 4.459601 L 20.019317 3.893915 L 20.302160 4.176758 L 19.254020 5.224897 L 16.766626 7.712292 L 16.625204 7.570871 L 19.112567 5.083444 Z"/>
    <path style="fill:#cc3d3d"
          d="M 18.829789 4.800666 L 18.854673 4.776053 L 18.879599 4.751484 L 18.904582 4.726971 L 18.929638 4.702534 L 18.954791 4.678196 L 18.980070 4.653989 L 19.005515 4.629957 L 19.031175 4.606155 L 19.057117 4.582659 L 19.083422 4.559572 L 19.110196 4.537031 L 19.137569 4.515222 L 19.165700 4.494400 L 19.194771 4.474913 L 19.224976 4.457236 L 19.256495 4.442017 L 19.289418 4.430120 L 19.323635 4.422644 L 19.358639 4.420878 L 19.393306 4.426085 L 19.425807 4.439097 L 19.453632 4.459601 L 20.019317 3.893915 L 19.736474 3.611073 L 18.688335 4.659212 L 16.200940 7.146606 L 16.342362 7.288028 L 18.829789 4.800666 Z"/>
    <path style="fill:#cc3d3d"
          d="M 14.279264 10.199719 L 14.254651 10.224603 L 14.230082 10.249530 L 14.205569 10.274512 L 14.181132 10.299569 L 14.156794 10.324721 L 14.132587 10.350001 L 14.108555 10.375445 L 14.084753 10.401106 L 14.061257 10.427047 L 14.038170 10.453352 L 14.015629 10.480126 L 13.993820 10.507500 L 13.972998 10.535630 L 13.953511 10.564701 L 13.935834 10.594907 L 13.920615 10.626425 L 13.908718 10.659349 L 13.901242 10.693566 L 13.899476 10.728569 L 13.904683 10.763236 L 13.917695 10.795737 L 13.938199 10.823562 L 13.372513 11.389247 L 13.089671 11.106404 L 14.137810 10.058265 L 16.625204 7.570871 L 16.766626 7.712292 L 14.279264 10.199719 Z"/>
    <path style="fill:#cc3d3d"
          d="M 14.562042 10.482497 L 14.537158 10.507109 L 14.512231 10.531679 L 14.487248 10.556191 L 14.462192 10.580629 L 14.437039 10.604967 L 14.411760 10.629173 L 14.386315 10.653206 L 14.360655 10.677008 L 14.334714 10.700503 L 14.308409 10.723590 L 14.281634 10.746131 L 14.254261 10.767940 L 14.226130 10.788762 L 14.197060 10.808250 L 14.166854 10.825926 L 14.135336 10.841145 L 14.102412 10.853043 L 14.068195 10.860518 L 14.033192 10.862284 L 13.998524 10.857078 L 13.966023 10.844065 L 13.938199 10.823562 L 13.372513 11.389247 L 13.655356 11.672090 L 14.703495 10.623950 L 17.190890 8.136556 L 17.049468 7.995135 L 14.562042 10.482497 Z"/>
    <path style="fill:#cc3d3d"
          d="M 19.961095 5.931972 L 19.985707 5.907088 L 20.010277 5.882161 L 20.034789 5.857178 L 20.059227 5.832122 L 20.083564 5.806969 L 20.107771 5.781690 L 20.131804 5.756245 L 20.155606 5.730585 L 20.179101 5.704644 L 20.202188 5.678339 L 20.224729 5.651565 L 20.246538 5.624191 L 20.267360 5.596060 L 20.286847 5.566990 L 20.304524 5.536784 L 20.319743 5.505266 L 20.331641 5.472342 L 20.339116 5.438125 L 20.340882 5.403122 L 20.335676 5.368455 L 20.322663 5.335953 L 20.302160 5.308129 L 20.867845 4.742443 L 21.150688 5.025286 L 20.102548 6.073426 L 17.615154 8.560820 L 17.473733 8.419399 L 19.961095 5.931972 Z"/>
    <path style="fill:#cc3d3d"
          d="M 19.678317 5.649194 L 19.703201 5.624581 L 19.728128 5.600012 L 19.753110 5.575499 L 19.778167 5.551062 L 19.803319 5.526724 L 19.828599 5.502518 L 19.854043 5.478485 L 19.879704 5.454683 L 19.905645 5.431187 L 19.931950 5.408100 L 19.958724 5.385559 L 19.986097 5.363750 L 20.014228 5.342929 L 20.043299 5.323441 L 20.073505 5.305764 L 20.105023 5.290545 L 20.137947 5.278648 L 20.172164 5.271172 L 20.207167 5.269406 L 20.241834 5.274613 L 20.274335 5.287626 L 20.302160 5.308129 L 20.867845 4.742443 L 20.585002 4.459601 L 19.536863 5.507740 L 17.049468 7.995135 L 17.190890 8.136556 L 19.678317 5.649194 Z"/>
    <path style="fill:#cc3d3d"
          d="M 15.127792 11.048247 L 15.103179 11.073131 L 15.078610 11.098058 L 15.054097 11.123040 L 15.029660 11.148097 L 15.005322 11.173250 L 14.981115 11.198529 L 14.957083 11.223973 L 14.933281 11.249634 L 14.909785 11.275575 L 14.886698 11.301880 L 14.864157 11.328654 L 14.842348 11.356028 L 14.821526 11.384158 L 14.802039 11.413229 L 14.784362 11.443435 L 14.769143 11.474953 L 14.757246 11.507877 L 14.749770 11.542094 L 14.748004 11.577097 L 14.753211 11.611764 L 14.766224 11.644265 L 14.786727 11.672090 L 14.221041 12.237775 L 13.938199 11.954933 L 14.986338 10.906793 L 17.473733 8.419399 L 17.615154 8.560820 L 15.127792 11.048247 Z"/>
    <path style="fill:#cc3d3d"
          d="M 15.410570 11.331025 L 15.385686 11.355638 L 15.360759 11.380207 L 15.335776 11.404719 L 15.310720 11.429157 L 15.285567 11.453495 L 15.260288 11.477701 L 15.234843 11.501734 L 15.209183 11.525536 L 15.183242 11.549031 L 15.156937 11.572118 L 15.130163 11.594660 L 15.102789 11.616468 L 15.074658 11.637290 L 15.045588 11.656778 L 15.015382 11.674455 L 14.983864 11.689673 L 14.950940 11.701571 L 14.916723 11.709046 L 14.881720 11.710813 L 14.847053 11.705606 L 14.814551 11.692593 L 14.786727 11.672090 L 14.221041 12.237775 L 14.503884 12.520618 L 15.552023 11.472479 L 18.039418 8.985084 L 17.897997 8.843663 L 15.410570 11.331025 Z"/>
    <path style="fill:#cc3d3d"
          d="M 20.809623 6.780500 L 20.834235 6.755616 L 20.858805 6.730689 L 20.883317 6.705706 L 20.907755 6.680650 L 20.932093 6.655497 L 20.956299 6.630218 L 20.980332 6.604773 L 21.004134 6.579113 L 21.027629 6.553172 L 21.050716 6.526867 L 21.073258 6.500093 L 21.095066 6.472719 L 21.115888 6.444589 L 21.135376 6.415518 L 21.153052 6.385312 L 21.168271 6.353794 L 21.180169 6.320870 L 21.187644 6.286653 L 21.189411 6.251650 L 21.184204 6.216983 L 21.171191 6.184482 L 21.150688 6.156657 L 21.716373 5.590972 L 21.999216 5.873814 L 20.951077 6.921954 L 18.463682 9.409348 L 18.322261 9.267927 L 20.809623 6.780500 Z"/>
    <path style="fill:#cc3d3d"
          d="M 20.526845 6.497722 L 20.551729 6.473109 L 20.576656 6.448540 L 20.601638 6.424027 L 20.626695 6.399590 L 20.651848 6.375252 L 20.677127 6.351046 L 20.702571 6.327013 L 20.728232 6.303211 L 20.754173 6.279716 L 20.780478 6.256628 L 20.807252 6.234087 L 20.834626 6.212279 L 20.862756 6.191457 L 20.891827 6.171969 L 20.922033 6.154292 L 20.953551 6.139074 L 20.986475 6.127176 L 21.020692 6.119701 L 21.055695 6.117934 L 21.090362 6.123141 L 21.122863 6.136154 L 21.150688 6.156657 L 21.716373 5.590972 L 21.433531 5.308129 L 20.385391 6.356268 L 17.897997 8.843663 L 18.039418 8.985084 L 20.526845 6.497722 Z"/>
    <path style="fill:#cc3d3d"
          d="M 15.976320 11.896775 L 15.951707 11.921659 L 15.927138 11.946586 L 15.902625 11.971569 L 15.878188 11.996625 L 15.853850 12.021778 L 15.829644 12.047057 L 15.805611 12.072502 L 15.781809 12.098162 L 15.758313 12.124103 L 15.735226 12.150408 L 15.712685 12.177182 L 15.690877 12.204556 L 15.670055 12.232686 L 15.650567 12.261757 L 15.632890 12.291963 L 15.617672 12.323481 L 15.605774 12.356405 L 15.598298 12.390622 L 15.596532 12.425625 L 15.601739 12.460292 L 15.614752 12.492793 L 15.635255 12.520618 L 15.069570 13.086303 L 14.786727 12.803461 L 15.834866 11.755321 L 18.322261 9.267927 L 18.463682 9.409348 L 15.976320 11.896775 Z"/>
    <path style="fill:#cc3d3d"
          d="M 16.259098 12.179553 L 16.234214 12.204166 L 16.209287 12.228735 L 16.184304 12.253248 L 16.159248 12.277685 L 16.134095 12.302023 L 16.108816 12.326229 L 16.083371 12.350262 L 16.057711 12.374064 L 16.031770 12.397560 L 16.005465 12.420647 L 15.978691 12.443188 L 15.951317 12.464996 L 15.923186 12.485818 L 15.894116 12.505306 L 15.863910 12.522983 L 15.832392 12.538201 L 15.799468 12.550099 L 15.765251 12.557575 L 15.730248 12.559341 L 15.695581 12.554134 L 15.663080 12.541121 L 15.635255 12.520618 L 15.069570 13.086303 L 15.352412 13.369146 L 16.400552 12.321007 L 18.887946 9.833612 L 18.746525 9.692191 L 16.259098 12.179553 Z"/>
    <path style="fill:#cc3d3d"
          d="M 21.658151 7.629028 L 21.682764 7.604144 L 21.707333 7.579217 L 21.731846 7.554235 L 21.756283 7.529178 L 21.780621 7.504025 L 21.804827 7.478746 L 21.828860 7.453302 L 21.852662 7.427641 L 21.876157 7.401700 L 21.899245 7.375395 L 21.921786 7.348621 L 21.943594 7.321247 L 21.964416 7.293117 L 21.983904 7.264046 L 22.001581 7.233840 L 22.016799 7.202322 L 22.028697 7.169398 L 22.036172 7.135181 L 22.037939 7.100178 L 22.032732 7.065511 L 22.019719 7.033010 L 21.999216 7.005185 L 22.564901 6.439500 L 22.847744 6.722342 L 21.799605 7.770482 L 19.312210 10.257876 L 19.170789 10.116455 L 21.658151 7.629028 Z"/>
    <path style="fill:#cc3d3d"
          d="M 21.375373 7.346250 L 21.400257 7.321637 L 21.425184 7.297068 L 21.450167 7.272556 L 21.475223 7.248118 L 21.500376 7.223780 L 21.525655 7.199574 L 21.551099 7.175541 L 21.576760 7.151739 L 21.602701 7.128244 L 21.629006 7.105157 L 21.655780 7.082615 L 21.683154 7.060807 L 21.711284 7.039985 L 21.740355 7.020497 L 21.770561 7.002820 L 21.802079 6.987602 L 21.835003 6.975704 L 21.869220 6.968229 L 21.904223 6.966462 L 21.938890 6.971669 L 21.971391 6.984682 L 21.999216 7.005185 L 22.564901 6.439500 L 22.282059 6.156657 L 21.233919 7.204796 L 18.746525 9.692191 L 18.887946 9.833612 L 21.375373 7.346250 Z"/>
    <path style="fill:#cc3d3d"
          d="M 16.824848 12.745303 L 16.800235 12.770187 L 16.775666 12.795114 L 16.751153 12.820097 L 16.726716 12.845153 L 16.702378 12.870306 L 16.678172 12.895585 L 16.654139 12.921030 L 16.630337 12.946690 L 16.606842 12.972631 L 16.583755 12.998936 L 16.561213 13.025710 L 16.539405 13.053084 L 16.518583 13.081215 L 16.499095 13.110285 L 16.481418 13.140491 L 16.466200 13.172009 L 16.454302 13.204933 L 16.446827 13.239150 L 16.445060 13.274153 L 16.450267 13.308820 L 16.463280 13.341322 L 16.483783 13.369146 L 15.918098 13.934832 L 15.635255 13.651989 L 16.683394 12.603849 L 19.170789 10.116455 L 19.312210 10.257876 L 16.824848 12.745303 Z"/>
    <path style="fill:#cc3d3d"
          d="M 17.107626 13.028081 L 17.082742 13.052694 L 17.057815 13.077263 L 17.032832 13.101776 L 17.007776 13.126213 L 16.982623 13.150551 L 16.957344 13.174757 L 16.931900 13.198790 L 16.906239 13.222592 L 16.880298 13.246088 L 16.853993 13.269175 L 16.827219 13.291716 L 16.799845 13.313525 L 16.771715 13.334347 L 16.742644 13.353834 L 16.712438 13.371511 L 16.680920 13.386730 L 16.647996 13.398627 L 16.613779 13.406103 L 16.578776 13.407869 L 16.544109 13.402662 L 16.511608 13.389649 L 16.483783 13.369146 L 15.918098 13.934832 L 16.200940 14.217674 L 17.249080 13.169535 L 19.736474 10.682140 L 19.595053 10.540719 L 17.107626 13.028081 Z"/>
    <path style="fill:#cc3d3d"
          d="M 22.506679 8.477556 L 22.531292 8.452672 L 22.555861 8.427745 L 22.580374 8.402763 L 22.604811 8.377706 L 22.629149 8.352554 L 22.653355 8.327274 L 22.677388 8.301830 L 22.701190 8.276169 L 22.724686 8.250228 L 22.747773 8.223923 L 22.770314 8.197149 L 22.792122 8.169776 L 22.812944 8.141645 L 22.832432 8.112574 L 22.850109 8.082368 L 22.865328 8.050850 L 22.877225 8.017926 L 22.884701 7.983709 L 22.886467 7.948706 L 22.881260 7.914039 L 22.868247 7.881538 L 22.847744 7.853713 L 23.413430 7.288028 L 23.696272 7.570871 L 22.648133 8.619010 L 20.160738 11.106404 L 20.019317 10.964983 L 22.506679 8.477556 Z"/>
    <path style="fill:#cc3d3d"
          d="M 22.223901 8.194778 L 22.248785 8.170166 L 22.273712 8.145596 L 22.298695 8.121084 L 22.323751 8.096646 L 22.348904 8.072308 L 22.374183 8.048102 L 22.399628 8.024069 L 22.425288 8.000267 L 22.451229 7.976772 L 22.477534 7.953685 L 22.504308 7.931144 L 22.531682 7.909335 L 22.559813 7.888513 L 22.588883 7.869025 L 22.619089 7.851349 L 22.650607 7.836130 L 22.683531 7.824232 L 22.717748 7.816757 L 22.752751 7.814991 L 22.787418 7.820197 L 22.819919 7.833210 L 22.847744 7.853713 L 23.413430 7.288028 L 23.130587 7.005185 L 22.082447 8.053325 L 19.595053 10.540719 L 19.736474 10.682140 L 22.223901 8.194778 Z"/>
    <path style="fill:#cc3d3d"
          d="M 17.673376 13.593831 L 17.648764 13.618715 L 17.624194 13.643642 L 17.599682 13.668625 L 17.575244 13.693681 L 17.550906 13.718834 L 17.526700 13.744113 L 17.502667 13.769558 L 17.478865 13.795218 L 17.455370 13.821159 L 17.432283 13.847464 L 17.409742 13.874239 L 17.387933 13.901612 L 17.367111 13.929743 L 17.347623 13.958813 L 17.329947 13.989019 L 17.314728 14.020537 L 17.302830 14.053461 L 17.295355 14.087678 L 17.293588 14.122681 L 17.298795 14.157349 L 17.311808 14.189850 L 17.332311 14.217674 L 16.766626 14.783360 L 16.483783 14.500517 L 17.531922 13.452378 L 20.019317 10.964983 L 20.160738 11.106404 L 17.673376 13.593831 Z"/>
    <path style="fill:#cc3d3d"
          d="M 17.956154 13.876609 L 17.931270 13.901222 L 17.906343 13.925791 L 17.881361 13.950304 L 17.856304 13.974741 L 17.831151 13.999079 L 17.805872 14.023286 L 17.780428 14.047318 L 17.754767 14.071120 L 17.728826 14.094616 L 17.702521 14.117703 L 17.675747 14.140244 L 17.648373 14.162053 L 17.620243 14.182875 L 17.591172 14.202362 L 17.560966 14.220039 L 17.529448 14.235258 L 17.496524 14.247155 L 17.462307 14.254631 L 17.427304 14.256397 L 17.392637 14.251190 L 17.360136 14.238178 L 17.332311 14.217674 L 16.766626 14.783360 L 17.049468 15.066202 L 18.097608 14.018063 L 20.585002 11.530669 L 20.443581 11.389247 L 17.956154 13.876609 Z"/>
    <path style="fill:#cc3d3d"
          d="M 20.585002 11.530669 L 20.443581 11.389247 L 23.979115 7.853713 L 24.120536 7.995135 Z"/>
    <path style="fill:#cc3d3d"
          d="M 11.109772 9.126505 L 11.036368 9.200335 L 10.962859 9.274059 L 10.889404 9.347837 L 10.816031 9.421697 L 10.742781 9.495680 L 10.669716 9.569848 L 10.596930 9.644294 L 10.524561 9.719158 L 10.452817 9.794647 L 10.382006 9.871069 L 10.312566 9.948862 L 10.245089 10.028617 L 10.180276 10.111037 L 10.118758 10.196752 L 10.060801 10.286028 L 10.006122 10.378582 L 9.954015 10.473708 L 9.903636 10.570562 L 9.854209 10.668368 L 9.805109 10.766500 L 9.755856 10.864481 L 9.706105 10.961962 L 9.655606 11.058696 L 9.604189 11.154512 L 9.551744 11.249300 L 9.498208 11.342997 L 9.443545 11.435567 L 9.387758 11.527013 L 9.330854 11.617342 L 9.272860 11.706581 L 9.213823 11.794777 L 9.153782 11.881968 L 9.092785 11.968204 L 9.030887 12.053539 L 8.968135 12.138020 L 8.904590 12.221708 L 8.840290 12.304641 L 8.775294 12.386878 L 8.709649 12.468465 L 8.643397 12.549447 L 8.576585 12.629867 L 8.509252 12.709767 L 8.441431 12.789179 L 8.373171 12.868152 L 8.304486 12.946700 L 8.235426 13.024873 L 8.166011 13.102690 L 8.096269 13.180182 L 8.026225 13.257370 L 7.955902 13.334280 L 7.885321 13.410932 L 7.814503 13.487347 L 7.743465 13.563542 L 7.672229 13.639539 L 7.600806 13.715349 L 7.529208 13.790983 L 7.457448 13.866456 L 7.385552 13.941793 L 7.313516 14.016990 L 7.241361 14.092068 L 7.169080 14.167020 L 7.096707 14.241880 L 7.024227 14.316632 L 6.951662 14.391300 L 6.879021 14.465892 L 6.806296 14.540401 L 6.733503 14.614840 L 6.660642 14.689212 L 6.587726 14.763529 L 6.514748 14.837784 L 6.441729 14.911998 L 6.368659 14.986161 L 6.295547 15.060282 L 6.222393 15.134360 L 6.149205 15.208405 L 6.075984 15.282417 L 6.002728 15.356394 L 5.929447 15.430346 L 5.856140 15.504272 L 5.782810 15.578175 L 5.709452 15.652050 L 5.636080 15.725911 L 5.562684 15.799748 L 5.489271 15.873567 L 5.415845 15.947374 L 5.342401 16.021163 L 5.268945 16.094940 L 5.195475 16.168703 L 5.121994 16.242455 L 5.048509 16.316202 L 4.975005 16.389931 L 4.901498 16.463657 L 4.827978 16.537370 L 4.754451 16.611076 L 4.680913 16.684771 L 4.607380 16.758471 L 4.533830 16.832153 L 4.460280 16.905837 L 4.387429 16.980219 L 3.680322 16.273112 L 10.968350 8.985084 Z"/>
    <path style="fill:#cc3d3d"
          d="M 23.979115 7.853713 L 24.052519 7.779884 L 24.126027 7.706160 L 24.199482 7.632382 L 24.272855 7.558522 L 24.346105 7.484539 L 24.419170 7.410371 L 24.491957 7.335925 L 24.564326 7.261061 L 24.636069 7.185571 L 24.706880 7.109150 L 24.776320 7.031357 L 24.843798 6.951601 L 24.908611 6.869182 L 24.970129 6.783467 L 25.028085 6.694190 L 25.082764 6.601637 L 25.134872 6.506511 L 25.185251 6.409657 L 25.234677 6.311850 L 25.283778 6.213719 L 25.333030 6.115738 L 25.382782 6.018257 L 25.433281 5.921523 L 25.484698 5.825707 L 25.537143 5.730919 L 25.590679 5.637222 L 25.645342 5.544652 L 25.701129 5.453206 L 25.758032 5.362877 L 25.816026 5.273638 L 25.875063 5.185442 L 25.935105 5.098251 L 25.996102 5.012015 L 26.058000 4.926680 L 26.120751 4.842199 L 26.184297 4.758511 L 26.248596 4.675578 L 26.313592 4.593341 L 26.379238 4.511753 L 26.445489 4.430772 L 26.512302 4.350352 L 26.579635 4.270452 L 26.647456 4.191040 L 26.715716 4.112067 L 26.784401 4.033519 L 26.853460 3.955346 L 26.922876 3.877528 L 26.992617 3.800037 L 27.062662 3.722849 L 27.132984 3.645938 L 27.203566 3.569287 L 27.274383 3.492872 L 27.345422 3.416677 L 27.416657 3.340680 L 27.488080 3.264870 L 27.559679 3.189235 L 27.631439 3.113763 L 27.703335 3.038426 L 27.775370 2.963228 L 27.847525 2.888150 L 27.919806 2.813199 L 27.992179 2.738338 L 28.064660 2.663586 L 28.137225 2.588919 L 28.209866 2.514326 L 28.282590 2.439818 L 28.355383 2.365378 L 28.428245 2.291007 L 28.501160 2.216690 L 28.574139 2.142435 L 28.647157 2.068221 L 28.720227 1.994058 L 28.793339 1.919937 L 28.866494 1.845858 L 28.939681 1.771813 L 29.012902 1.697801 L 29.086159 1.623825 L 29.159439 1.549872 L 29.232746 1.475947 L 29.306077 1.402044 L 29.379434 1.328169 L 29.452806 1.254308 L 29.526202 1.180471 L 29.599615 1.106651 L 29.673042 1.032845 L 29.746486 0.959056 L 29.819942 0.885279 L 29.893411 0.811515 L 29.966892 0.737764 L 30.040378 0.664017 L 30.113882 0.590287 L 30.187389 0.516561 L 30.260909 0.442849 L 30.334436 0.369143 L 30.407973 0.295447 L 30.481507 0.221748 L 30.555057 0.148065 L 30.628606 0.074382 L 30.701457 0.000000 L 31.408564 0.707107 L 24.120536 7.995135 Z"/>
  </g>
</svg>
