<?xml version="1.0" encoding="UTF-8" standalone="no"?>
<svg
   width="138.898215" 
   height="300.000000"
   version="1.1"
   xmlns:svg="http://www.w3.org/2000/svg"
   xmlns="http://www.w3.org/2000/svg">
  <g id="layer000_datatype000">
    <path style="fill:#3dcc5c"
          d="M 118.202407 300.000000 L 117.771789 281.361822 L 116.480856 262.763419 L 114.332361 244.244480 L 111.330890 225.844527 L 107.482849 207.602825 L 102.796448 189.558303 L 97.281690 171.749470 L 90.950342 154.214329 L 83.815917 136.990303 L 75.893639 120.114147 L 67.200415 103.621877 L 57.754797 87.548688 L 47.576942 71.928880 L 36.688571 56.795788 L 25.112919 42.181706 L 12.874690 28.117821 L 0.000000 14.634146 L 14.634146 0.000000 L 28.169076 14.175145 L 41.034907 28.960255 L 53.204182 44.323777 L 64.650932 60.232925 L 75.350728 76.653749 L 85.280736 93.551204 L 94.419766 110.889232 L 102.748315 128.630831 L 110.248608 146.738141 L 116.904640 165.172519 L 122.702207 183.894626 L 127.628936 202.864508 L 131.674313 222.041682 L 134.829705 241.385223 L 137.088379 260.853850 L 138.445515 280.406018 L 138.898215 300.000000 Z"/>
  </g>
</svg>
