<?xml version="1.0" encoding="UTF-8" standalone="no"?>
<svg
   width="300.000000" 
   height="300.000000"
   version="1.1"
   xmlns:svg="http://www.w3.org/2000/svg"
   xmlns="http://www.w3.org/2000/svg">
  <g id="layer000_datatype000">
    <path style="fill:#808080"
          d="M 300.000000 0.000000 L 300.000000 30.000000 L 297.000000 30.000000 L 297.000000 3.000000 L 270.000000 3.000000 L 270.000000 0.000000 Z"/>
    <path style="fill:#808080"
          d="M 0.000000 0.000000 L 0.000000 30.000000 L 3.000000 30.000000 L 3.000000 3.000000 L 30.000000 3.000000 L 30.000000 0.000000 Z"/>
    <path style="fill:#808080"
          d="M 300.000000 300.000000 L 300.000000 270.000000 L 297.000000 270.000000 L 297.000000 297.000000 L 270.000000 297.000000 L 270.000000 300.000000 Z"/>
    <path style="fill:#808080"
          d="M 0.000000 300.000000 L 0.000000 270.000000 L 3.000000 270.000000 L 3.000000 297.000000 L 30.000000 297.000000 L 30.000000 300.000000 Z"/>
    <path style="fill:#808080"
          d="M 5.700000 294.900000 L 5.100000 295.500000 L 4.200000 295.500000 L 3.600000 294.900000 L 3.600000 294.000000 L 4.200000 293.400000 L 5.100000 293.400000 L 5.700000 294.000000 L 5.700000 294.300000 L 5.100000 294.300000 L 4.800000 294.000000 L 4.500000 294.000000 L 4.200000 294.300000 L 4.200000 294.600000 L 4.500000 294.900000 L 4.800000 294.900000 L 5.100000 294.600000 L 5.700000 294.600000 L 5.700000 294.900000 Z"/>
    <path style="fill:#808080"
          d="M 7.500000 295.500000 L 7.500000 294.300000 L 7.200000 294.000000 L 6.900000 294.000000 L 6.600000 294.300000 L 6.600000 295.500000 L 6.000000 295.500000 L 6.000000 292.200000 L 6.600000 292.200000 L 6.600000 293.700000 L 6.900000 293.400000 L 7.500000 293.400000 L 8.100000 294.000000 L 8.100000 295.500000 L 7.500000 295.500000 Z"/>
    <path style="fill:#808080"
          d="M 8.400000 295.500000 L 8.400000 293.700000 L 9.000000 293.700000 L 9.000000 295.500000 L 8.400000 295.500000 Z"/>
    <path style="fill:#808080"
          d="M 9.000000 292.500000 L 9.000000 293.100000 L 8.400000 293.100000 L 8.400000 292.500000 L 9.000000 292.500000 Z"/>
    <path style="fill:#808080"
          d="M 9.300000 293.400000 L 10.800000 293.400000 L 11.400000 294.000000 L 11.400000 294.900000 L 10.800000 295.500000 L 9.900000 295.500000 L 9.900000 296.400000 L 9.300000 296.400000 L 9.300000 294.600000 L 9.900000 294.600000 L 9.900000 294.900000 L 10.500000 294.900000 L 10.800000 294.600000 L 10.800000 294.300000 L 10.500000 294.000000 L 9.900000 294.000000 L 9.900000 294.300000 L 9.300000 294.300000 L 9.300000 293.400000 Z"/>
    <path style="fill:#808080"
          d="M 11.700000 294.600000 L 12.300000 294.600000 L 12.300000 294.900000 L 13.200000 294.900000 L 13.200000 294.300000 L 12.000000 294.300000 L 11.700000 294.000000 L 11.700000 292.800000 L 12.000000 292.500000 L 12.600000 292.500000 L 12.600000 293.100000 L 12.300000 293.100000 L 12.300000 293.700000 L 13.200000 293.700000 L 13.200000 293.100000 L 12.900000 293.100000 L 12.900000 292.500000 L 13.500000 292.500000 L 13.800000 292.800000 L 13.800000 295.200000 L 13.500000 295.500000 L 12.000000 295.500000 L 11.700000 295.200000 L 11.700000 294.600000 Z"/>
    <path style="fill:#808080"
          d="M 14.100000 294.600000 L 14.700000 294.600000 L 14.700000 294.900000 L 15.600000 294.900000 L 15.600000 294.300000 L 14.400000 294.300000 L 14.100000 294.000000 L 14.100000 292.800000 L 14.400000 292.500000 L 15.000000 292.500000 L 15.000000 293.100000 L 14.700000 293.100000 L 14.700000 293.700000 L 15.600000 293.700000 L 15.600000 293.100000 L 15.300000 293.100000 L 15.300000 292.500000 L 15.900000 292.500000 L 16.200000 292.800000 L 16.200000 295.200000 L 15.900000 295.500000 L 14.400000 295.500000 L 14.100000 295.200000 L 14.100000 294.600000 Z"/>
  </g>
  <g id="layer099_datatype000">
    <path style="fill:#e5dd45"
          d="M 300.000000 0.000000 L 300.000000 300.000000 L 0.000000 300.000000 L 0.000000 0.000000 Z"/>
  </g>
</svg>
