<?xml version="1.0" encoding="UTF-8" standalone="no"?>
<svg
   width="300.000000" 
   height="300.000000"
   version="1.1"
   xmlns:svg="http://www.w3.org/2000/svg"
   xmlns="http://www.w3.org/2000/svg">
  <g id="layer000_datatype000">
    <path style="fill:#3dcc5c"
          d="M 300.000000 150.000000 L 299.857233 143.457092 L 299.429205 136.926639 L 298.716729 130.421071 L 297.721163 123.952773 L 296.444401 117.534058 L 294.888874 111.177143 L 293.057543 104.894130 L 290.953893 98.696979 L 288.581930 92.597485 L 285.946168 86.607261 L 283.051625 80.737708 L 279.903811 75.000000 L 276.508717 69.405059 L 272.872807 63.963535 L 269.003001 58.685786 L 264.906666 53.581859 L 260.591601 48.661469 L 256.066017 43.933983 L 251.338531 39.408399 L 246.418141 35.093334 L 241.314214 30.996999 L 236.036465 27.127193 L 230.594941 23.491283 L 225.000000 20.096189 L 219.262292 16.948375 L 213.392739 14.053832 L 207.402515 11.418070 L 201.303021 9.046107 L 195.105870 6.942457 L 188.822857 5.111126 L 182.465942 3.555599 L 176.047227 2.278837 L 169.578929 1.283271 L 163.073361 0.570795 L 156.542908 0.142767 L 150.000000 0.000000 L 143.457092 0.142767 L 136.926639 0.570795 L 130.421071 1.283271 L 123.952773 2.278837 L 117.534058 3.555599 L 111.177143 5.111126 L 104.894130 6.942457 L 98.696979 9.046107 L 92.597485 11.418070 L 86.607261 14.053832 L 80.737708 16.948375 L 75.000000 20.096189 L 69.405059 23.491283 L 63.963535 27.127193 L 58.685786 30.996999 L 53.581859 35.093334 L 48.661469 39.408399 L 43.933983 43.933983 L 39.408399 48.661469 L 35.093334 53.581859 L 30.996999 58.685786 L 27.127193 63.963535 L 23.491283 69.405059 L 20.096189 75.000000 L 16.948375 80.737708 L 14.053832 86.607261 L 11.418070 92.597485 L 9.046107 98.696979 L 6.942457 104.894130 L 5.111126 111.177143 L 3.555599 117.534058 L 2.278837 123.952773 L 1.283271 130.421071 L 0.570795 136.926639 L 0.142767 143.457092 L 0.000000 150.000000 L 0.142767 156.542908 L 0.570795 163.073361 L 1.283271 169.578929 L 2.278837 176.047227 L 3.555599 182.465942 L 5.111126 188.822857 L 6.942457 195.105870 L 9.046107 201.303021 L 11.418070 207.402515 L 14.053832 213.392739 L 16.948375 219.262292 L 20.096189 225.000000 L 23.491283 230.594941 L 27.127193 236.036465 L 30.996999 241.314214 L 35.093334 246.418141 L 39.408399 251.338531 L 43.933983 256.066017 L 48.661469 260.591601 L 53.581859 264.906666 L 58.685786 269.003001 L 63.963535 272.872807 L 69.405059 276.508717 L 75.000000 279.903811 L 80.737708 283.051625 L 86.607261 285.946168 L 92.597485 288.581930 L 98.696979 290.953893 L 104.894130 293.057543 L 111.177143 294.888874 L 117.534058 296.444401 L 123.952773 297.721163 L 130.421071 298.716729 L 136.926639 299.429205 L 143.457092 299.857233 L 150.000000 300.000000 L 156.542908 299.857233 L 163.073361 299.429205 L 169.578929 298.716729 L 176.047227 297.721163 L 182.465942 296.444401 L 188.822857 294.888874 L 195.105870 293.057543 L 201.303021 290.953893 L 207.402515 288.581930 L 213.392739 285.946168 L 219.262292 283.051625 L 225.000000 279.903811 L 230.594941 276.508717 L 236.036465 272.872807 L 241.314214 269.003001 L 246.418141 264.906666 L 251.338531 260.591601 L 256.066017 256.066017 L 260.591601 251.338531 L 264.906666 246.418141 L 269.003001 241.314214 L 272.872807 236.036465 L 276.508717 230.594941 L 279.903811 225.000000 L 283.051625 219.262292 L 285.946168 213.392739 L 288.581930 207.402515 L 290.953893 201.303021 L 293.057543 195.105870 L 294.888874 188.822857 L 296.444401 182.465942 L 297.721163 176.047227 L 298.716729 169.578929 L 299.429205 163.073361 L 299.857233 156.542908 L 300.000000 150.000000 Z"/>
  </g>
</svg>
