<?xml version="1.0" encoding="UTF-8" standalone="no"?>
<svg
   width="300.000000" 
   height="150.000000"
   version="1.1"
   xmlns:svg="http://www.w3.org/2000/svg"
   xmlns="http://www.w3.org/2000/svg">
  <g id="layer000_datatype000">
    <path style="fill:#3dcc5c"
          d="M 300.000000 75.000000 L 299.431366 68.475686 L 297.755139 62.073100 L 295.055928 55.903025 L 291.461297 50.056557 L 287.125376 44.600036 L 282.211862 39.573938 L 276.879521 34.995041 L 271.271882 30.860645 L 265.511423 27.153602 L 259.697571 23.847183 L 253.907417 20.909223 L 248.198051 18.305329 L 242.609637 16.001154 L 237.168615 13.963878 L 231.890676 12.163074 L 226.783341 10.571127 L 221.848085 9.163360 L 217.082039 7.917961 L 212.479302 6.815807 L 208.031936 5.840231 L 203.730713 4.976771 L 199.565651 4.212914 L 195.526401 3.537865 L 191.602515 2.942331 L 187.783628 2.418326 L 184.059573 1.959009 L 180.420452 1.558533 L 176.856663 1.211926 L 173.358917 0.914980 L 169.918226 0.664167 L 166.525882 0.456564 L 163.173425 0.289792 L 159.852614 0.161965 L 156.555381 0.071656 L 153.273791 0.017865 L 150.000000 0.000000 L 146.726209 0.017865 L 143.444619 0.071656 L 140.147386 0.161965 L 136.826575 0.289792 L 133.474118 0.456564 L 130.081774 0.664167 L 126.641083 0.914980 L 123.143337 1.211926 L 119.579548 1.558533 L 115.940427 1.959009 L 112.216372 2.418326 L 108.397485 2.942331 L 104.473599 3.537865 L 100.434349 4.212914 L 96.269287 4.976771 L 91.968064 5.840231 L 87.520698 6.815807 L 82.917961 7.917961 L 78.151915 9.163360 L 73.216659 10.571127 L 68.109324 12.163074 L 62.831385 13.963878 L 57.390363 16.001154 L 51.801949 18.305329 L 46.092583 20.909223 L 40.302429 23.847183 L 34.488577 27.153602 L 28.728118 30.860645 L 23.120479 34.995041 L 17.788138 39.573938 L 12.874624 44.600036 L 8.538703 50.056557 L 4.944072 55.903025 L 2.244861 62.073100 L 0.568634 68.475686 L 0.000000 75.000000 L 0.568634 81.524314 L 2.244861 87.926900 L 4.944072 94.096975 L 8.538703 99.943443 L 12.874624 105.399964 L 17.788138 110.426062 L 23.120479 115.004959 L 28.728118 119.139355 L 34.488577 122.846398 L 40.302429 126.152817 L 46.092583 129.090777 L 51.801949 131.694671 L 57.390363 133.998846 L 62.831385 136.036122 L 68.109324 137.836926 L 73.216659 139.428873 L 78.151915 140.836640 L 82.917961 142.082039 L 87.520698 143.184193 L 91.968064 144.159769 L 96.269287 145.023229 L 100.434349 145.787086 L 104.473599 146.462135 L 108.397485 147.057669 L 112.216372 147.581674 L 115.940427 148.040991 L 119.579548 148.441467 L 123.143337 148.788074 L 126.641083 149.085020 L 130.081774 149.335833 L 133.474118 149.543436 L 136.826575 149.710208 L 140.147386 149.838035 L 143.444619 149.928344 L 146.726209 149.982135 L 150.000000 150.000000 L 153.273791 149.982135 L 156.555381 149.928344 L 159.852614 149.838035 L 163.173425 149.710208 L 166.525882 149.543436 L 169.918226 149.335833 L 173.358917 149.085020 L 176.856663 148.788074 L 180.420452 148.441467 L 184.059573 148.040991 L 187.783628 147.581674 L 191.602515 147.057669 L 195.526401 146.462135 L 199.565651 145.787086 L 203.730713 145.023229 L 208.031936 144.159769 L 212.479302 143.184193 L 217.082039 142.082039 L 221.848085 140.836640 L 226.783341 139.428873 L 231.890676 137.836926 L 237.168615 136.036122 L 242.609637 133.998846 L 248.198051 131.694671 L 253.907417 129.090777 L 259.697571 126.152817 L 265.511423 122.846398 L 271.271882 119.139355 L 276.879521 115.004959 L 282.211862 110.426062 L 287.125376 105.399964 L 291.461297 99.943443 L 295.055928 94.096975 L 297.755139 87.926900 L 299.431366 81.524314 L 300.000000 75.000000 Z"/>
  </g>
  <g id="layer001_datatype000">
    <path style="fill:#2b0fff"
          d="M 300.000000 75.000000 L 299.431366 68.475686 L 297.755139 62.073100 L 295.055928 55.903025 L 291.461297 50.056557 L 287.125376 44.600036 L 282.211862 39.573938 L 276.879521 34.995041 L 271.271882 30.860645 L 265.511423 27.153602 L 259.697571 23.847183 L 253.907417 20.909223 L 248.198051 18.305329 L 242.609637 16.001154 L 237.168615 13.963878 L 231.890676 12.163074 L 226.783341 10.571127 L 221.848085 9.163360 L 217.082039 7.917961 L 212.479302 6.815807 L 208.031936 5.840231 L 203.730713 4.976771 L 199.565651 4.212914 L 195.526401 3.537865 L 191.602515 2.942331 L 187.783628 2.418326 L 184.059573 1.959009 L 180.420452 1.558533 L 176.856663 1.211926 L 173.358917 0.914980 L 169.918226 0.664167 L 166.525882 0.456564 L 163.173425 0.289792 L 159.852614 0.161965 L 156.555381 0.071656 L 153.273791 0.017865 L 150.000000 0.000000 L 146.726209 0.017865 L 143.444619 0.071656 L 140.147386 0.161965 L 136.826575 0.289792 L 133.474118 0.456564 L 130.081774 0.664167 L 126.641083 0.914980 L 123.143337 1.211926 L 119.579548 1.558533 L 115.940427 1.959009 L 112.216372 2.418326 L 108.397485 2.942331 L 104.473599 3.537865 L 100.434349 4.212914 L 96.269287 4.976771 L 91.968064 5.840231 L 87.520698 6.815807 L 82.917961 7.917961 L 78.151915 9.163360 L 73.216659 10.571127 L 68.109324 12.163074 L 62.831385 13.963878 L 57.390363 16.001154 L 51.801949 18.305329 L 46.092583 20.909223 L 40.302429 23.847183 L 34.488577 27.153602 L 28.728118 30.860645 L 23.120479 34.995041 L 17.788138 39.573938 L 12.874624 44.600036 L 8.538703 50.056557 L 4.944072 55.903025 L 2.244861 62.073100 L 0.568634 68.475686 L 0.000000 75.000000 L 0.568634 81.524314 L 2.244861 87.926900 L 4.944072 94.096975 L 8.538703 99.943443 L 12.874624 105.399964 L 17.788138 110.426062 L 23.120479 115.004959 L 28.728118 119.139355 L 34.488577 122.846398 L 40.302429 126.152817 L 46.092583 129.090777 L 51.801949 131.694671 L 57.390363 133.998846 L 62.831385 136.036122 L 68.109324 137.836926 L 73.216659 139.428873 L 78.151915 140.836640 L 82.917961 142.082039 L 87.520698 143.184193 L 91.968064 144.159769 L 96.269287 145.023229 L 100.434349 145.787086 L 104.473599 146.462135 L 108.397485 147.057669 L 112.216372 147.581674 L 115.940427 148.040991 L 119.579548 148.441467 L 123.143337 148.788074 L 126.641083 149.085020 L 130.081774 149.335833 L 133.474118 149.543436 L 136.826575 149.710208 L 140.147386 149.838035 L 143.444619 149.928344 L 146.726209 149.982135 L 150.000000 150.000000 L 153.273791 149.982135 L 156.555381 149.928344 L 159.852614 149.838035 L 163.173425 149.710208 L 166.525882 149.543436 L 169.918226 149.335833 L 173.358917 149.085020 L 176.856663 148.788074 L 180.420452 148.441467 L 184.059573 148.040991 L 187.783628 147.581674 L 191.602515 147.057669 L 195.526401 146.462135 L 199.565651 145.787086 L 203.730713 145.023229 L 208.031936 144.159769 L 212.479302 143.184193 L 217.082039 142.082039 L 221.848085 140.836640 L 226.783341 139.428873 L 231.890676 137.836926 L 237.168615 136.036122 L 242.609637 133.998846 L 248.198051 131.694671 L 253.907417 129.090777 L 259.697571 126.152817 L 265.511423 122.846398 L 271.271882 119.139355 L 276.879521 115.004959 L 282.211862 110.426062 L 287.125376 105.399964 L 291.461297 99.943443 L 295.055928 94.096975 L 297.755139 87.926900 L 299.431366 81.524314 L 300.000000 75.000000 Z"/>
  </g>
</svg>
