<?xml version="1.0" encoding="UTF-8" standalone="no"?>
<svg
   width="300.000000" 
   height="60.913706"
   version="1.1"
   xmlns:svg="http://www.w3.org/2000/svg"
   xmlns="http://www.w3.org/2000/svg">
  <g id="layer000_datatype000">
    <path style="fill:#808080"
          d="M 4.568528 0.000000 L 4.568528 60.913706 L 0.000000 60.913706 L 0.000000 0.000000 Z"/>
    <path style="fill:#808080"
          d="M 13.705584 0.000000 L 13.705584 60.913706 L 9.137056 60.913706 L 9.137056 0.000000 Z"/>
    <path style="fill:#808080"
          d="M 22.842640 0.000000 L 22.842640 60.913706 L 18.274112 60.913706 L 18.274112 0.000000 Z"/>
    <path style="fill:#808080"
          d="M 31.979695 0.000000 L 31.979695 60.913706 L 27.411168 60.913706 L 27.411168 0.000000 Z"/>
    <path style="fill:#808080"
          d="M 41.116751 0.000000 L 41.116751 60.913706 L 36.548223 60.913706 L 36.548223 0.000000 Z"/>
    <path style="fill:#808080"
          d="M 50.253807 0.000000 L 50.253807 60.913706 L 45.685279 60.913706 L 45.685279 0.000000 Z"/>
    <path style="fill:#808080"
          d="M 59.390863 0.000000 L 59.390863 60.913706 L 54.822335 60.913706 L 54.822335 0.000000 Z"/>
    <path style="fill:#808080"
          d="M 68.527919 0.000000 L 68.527919 60.913706 L 63.959391 60.913706 L 63.959391 0.000000 Z"/>
    <path style="fill:#808080"
          d="M 77.664975 0.000000 L 77.664975 60.913706 L 73.096447 60.913706 L 73.096447 0.000000 Z"/>
    <path style="fill:#808080"
          d="M 86.802030 0.000000 L 86.802030 60.913706 L 82.233503 60.913706 L 82.233503 0.000000 Z"/>
    <path style="fill:#808080"
          d="M 95.939086 0.000000 L 95.939086 60.913706 L 91.370558 60.913706 L 91.370558 0.000000 Z"/>
    <path style="fill:#808080"
          d="M 105.076142 0.000000 L 105.076142 60.913706 L 100.507614 60.913706 L 100.507614 0.000000 Z"/>
    <path style="fill:#808080"
          d="M 114.213198 0.000000 L 114.213198 60.913706 L 109.644670 60.913706 L 109.644670 0.000000 Z"/>
    <path style="fill:#808080"
          d="M 123.350254 0.000000 L 123.350254 60.913706 L 118.781726 60.913706 L 118.781726 0.000000 Z"/>
    <path style="fill:#808080"
          d="M 132.487310 0.000000 L 132.487310 60.913706 L 127.918782 60.913706 L 127.918782 0.000000 Z"/>
    <path style="fill:#808080"
          d="M 141.624365 0.000000 L 141.624365 60.913706 L 137.055838 60.913706 L 137.055838 0.000000 Z"/>
    <path style="fill:#808080"
          d="M 150.761421 0.000000 L 150.761421 60.913706 L 146.192893 60.913706 L 146.192893 0.000000 Z"/>
    <path style="fill:#808080"
          d="M 159.898477 0.000000 L 159.898477 60.913706 L 155.329949 60.913706 L 155.329949 0.000000 Z"/>
    <path style="fill:#808080"
          d="M 169.035533 0.000000 L 169.035533 60.913706 L 164.467005 60.913706 L 164.467005 0.000000 Z"/>
    <path style="fill:#808080"
          d="M 178.172589 0.000000 L 178.172589 60.913706 L 173.604061 60.913706 L 173.604061 0.000000 Z"/>
    <path style="fill:#808080"
          d="M 178.172589 0.000000 L 300.000000 28.020305 L 300.000000 32.893401 L 178.172589 60.913706 Z"/>
  </g>
</svg>
