<?xml version="1.0" encoding="UTF-8" standalone="no"?>
<svg width="10.000000" height="8.600000">
  <g id="layer000_datatype000">
    <path style="fill:#3dcc5c"
          d="M 5.000000 0.000000 L 5.000000 0.200000 L 0.000000 0.200000 L 0.000000 0.000000 Z"/>
    <path style="fill:#3dcc5c"
          d="M 8.517707 0.599954 L 8.552707 0.599762 L 8.587706 0.599510 L 8.622704 0.599177 L 8.657701 0.598739 L 8.692696 0.598163 L 8.727688 0.597405 L 8.762674 0.596406 L 8.797649 0.595092 L 8.832606 0.593363 L 8.867532 0.591087 L 8.902403 0.588094 L 8.937180 0.584159 L 8.971795 0.578991 L 9.006130 0.572215 L 9.039988 0.563356 L 9.073037 0.551830 L 9.104730 0.536963 L 9.134211 0.518053 L 9.160211 0.494551 L 9.181043 0.466356 L 9.194823 0.434173 L 9.200000 0.400000 L 10.000000 0.400000 L 10.000000 0.800000 L 8.517707 0.800000 L 5.000000 0.800000 L 5.000000 0.600000 L 8.517707 0.599954 Z"/>
    <path style="fill:#3dcc5c"
          d="M 8.517707 0.200046 L 8.552707 0.200238 L 8.587706 0.200490 L 8.622704 0.200823 L 8.657701 0.201261 L 8.692696 0.201837 L 8.727688 0.202595 L 8.762674 0.203594 L 8.797649 0.204908 L 8.832606 0.206637 L 8.867532 0.208913 L 8.902403 0.211906 L 8.937180 0.215841 L 8.971795 0.221009 L 9.006130 0.227785 L 9.039988 0.236644 L 9.073037 0.248170 L 9.104730 0.263037 L 9.134211 0.281947 L 9.160211 0.305449 L 9.181043 0.333644 L 9.194823 0.365827 L 9.200000 0.400000 L 10.000000 0.400000 L 10.000000 0.000000 L 8.517707 0.000000 L 5.000000 0.000000 L 5.000000 0.200000 L 8.517707 0.200046 Z"/>
    <path style="fill:#3dcc5c"
          d="M 1.482293 0.800046 L 1.447293 0.800238 L 1.412294 0.800490 L 1.377296 0.800823 L 1.342299 0.801261 L 1.307304 0.801837 L 1.272312 0.802595 L 1.237326 0.803594 L 1.202351 0.804908 L 1.167394 0.806637 L 1.132468 0.808913 L 1.097597 0.811906 L 1.062820 0.815841 L 1.028205 0.821009 L 0.993870 0.827785 L 0.960012 0.836644 L 0.926963 0.848170 L 0.895270 0.863037 L 0.865789 0.881947 L 0.839789 0.905449 L 0.818957 0.933644 L 0.805177 0.965827 L 0.800000 1.000000 L -0.000000 1.000000 L -0.000000 0.600000 L 1.482293 0.600000 L 5.000000 0.600000 L 5.000000 0.800000 L 1.482293 0.800046 Z"/>
    <path style="fill:#3dcc5c"
          d="M 1.482293 1.199954 L 1.447293 1.199762 L 1.412294 1.199510 L 1.377296 1.199177 L 1.342299 1.198739 L 1.307304 1.198163 L 1.272312 1.197405 L 1.237326 1.196406 L 1.202351 1.195092 L 1.167394 1.193363 L 1.132468 1.191087 L 1.097597 1.188094 L 1.062820 1.184159 L 1.028205 1.178991 L 0.993870 1.172215 L 0.960012 1.163356 L 0.926963 1.151830 L 0.895270 1.136963 L 0.865789 1.118053 L 0.839789 1.094551 L 0.818957 1.066356 L 0.805177 1.034173 L 0.800000 1.000000 L -0.000000 1.000000 L -0.000000 1.400000 L 1.482293 1.400000 L 5.000000 1.400000 L 5.000000 1.200000 L 1.482293 1.199954 Z"/>
    <path style="fill:#3dcc5c"
          d="M 8.517707 1.799954 L 8.552707 1.799762 L 8.587706 1.799510 L 8.622704 1.799177 L 8.657701 1.798739 L 8.692696 1.798163 L 8.727688 1.797405 L 8.762674 1.796406 L 8.797649 1.795092 L 8.832606 1.793363 L 8.867532 1.791087 L 8.902403 1.788094 L 8.937180 1.784159 L 8.971795 1.778991 L 9.006130 1.772215 L 9.039988 1.763356 L 9.073037 1.751830 L 9.104730 1.736963 L 9.134211 1.718053 L 9.160211 1.694551 L 9.181043 1.666356 L 9.194823 1.634173 L 9.200000 1.600000 L 10.000000 1.600000 L 10.000000 2.000000 L 8.517707 2.000000 L 5.000000 2.000000 L 5.000000 1.800000 L 8.517707 1.799954 Z"/>
    <path style="fill:#3dcc5c"
          d="M 8.517707 1.400046 L 8.552707 1.400238 L 8.587706 1.400490 L 8.622704 1.400823 L 8.657701 1.401261 L 8.692696 1.401837 L 8.727688 1.402595 L 8.762674 1.403594 L 8.797649 1.404908 L 8.832606 1.406637 L 8.867532 1.408913 L 8.902403 1.411906 L 8.937180 1.415841 L 8.971795 1.421009 L 9.006130 1.427785 L 9.039988 1.436644 L 9.073037 1.448170 L 9.104730 1.463037 L 9.134211 1.481947 L 9.160211 1.505449 L 9.181043 1.533644 L 9.194823 1.565827 L 9.200000 1.600000 L 10.000000 1.600000 L 10.000000 1.200000 L 8.517707 1.200000 L 5.000000 1.200000 L 5.000000 1.400000 L 8.517707 1.400046 Z"/>
    <path style="fill:#3dcc5c"
          d="M 1.482293 2.000046 L 1.447293 2.000238 L 1.412294 2.000490 L 1.377296 2.000823 L 1.342299 2.001261 L 1.307304 2.001837 L 1.272312 2.002595 L 1.237326 2.003594 L 1.202351 2.004908 L 1.167394 2.006637 L 1.132468 2.008913 L 1.097597 2.011906 L 1.062820 2.015841 L 1.028205 2.021009 L 0.993870 2.027785 L 0.960012 2.036644 L 0.926963 2.048170 L 0.895270 2.063037 L 0.865789 2.081947 L 0.839789 2.105449 L 0.818957 2.133644 L 0.805177 2.165827 L 0.800000 2.200000 L -0.000000 2.200000 L -0.000000 1.800000 L 1.482293 1.800000 L 5.000000 1.800000 L 5.000000 2.000000 L 1.482293 2.000046 Z"/>
    <path style="fill:#3dcc5c"
          d="M 1.482293 2.399954 L 1.447293 2.399762 L 1.412294 2.399510 L 1.377296 2.399177 L 1.342299 2.398739 L 1.307304 2.398163 L 1.272312 2.397405 L 1.237326 2.396406 L 1.202351 2.395092 L 1.167394 2.393363 L 1.132468 2.391087 L 1.097597 2.388094 L 1.062820 2.384159 L 1.028205 2.378991 L 0.993870 2.372215 L 0.960012 2.363356 L 0.926963 2.351830 L 0.895270 2.336963 L 0.865789 2.318053 L 0.839789 2.294551 L 0.818957 2.266356 L 0.805177 2.234173 L 0.800000 2.200000 L -0.000000 2.200000 L -0.000000 2.600000 L 1.482293 2.600000 L 5.000000 2.600000 L 5.000000 2.400000 L 1.482293 2.399954 Z"/>
    <path style="fill:#3dcc5c"
          d="M 8.517707 2.999954 L 8.552707 2.999762 L 8.587706 2.999510 L 8.622704 2.999177 L 8.657701 2.998739 L 8.692696 2.998163 L 8.727688 2.997405 L 8.762674 2.996406 L 8.797649 2.995092 L 8.832606 2.993363 L 8.867532 2.991087 L 8.902403 2.988094 L 8.937180 2.984159 L 8.971795 2.978991 L 9.006130 2.972215 L 9.039988 2.963356 L 9.073037 2.951830 L 9.104730 2.936963 L 9.134211 2.918053 L 9.160211 2.894551 L 9.181043 2.866356 L 9.194823 2.834173 L 9.200000 2.800000 L 10.000000 2.800000 L 10.000000 3.200000 L 8.517707 3.200000 L 5.000000 3.200000 L 5.000000 3.000000 L 8.517707 2.999954 Z"/>
    <path style="fill:#3dcc5c"
          d="M 8.517707 2.600046 L 8.552707 2.600238 L 8.587706 2.600490 L 8.622704 2.600823 L 8.657701 2.601261 L 8.692696 2.601837 L 8.727688 2.602595 L 8.762674 2.603594 L 8.797649 2.604908 L 8.832606 2.606637 L 8.867532 2.608913 L 8.902403 2.611906 L 8.937180 2.615841 L 8.971795 2.621009 L 9.006130 2.627785 L 9.039988 2.636644 L 9.073037 2.648170 L 9.104730 2.663037 L 9.134211 2.681947 L 9.160211 2.705449 L 9.181043 2.733644 L 9.194823 2.765827 L 9.200000 2.800000 L 10.000000 2.800000 L 10.000000 2.400000 L 8.517707 2.400000 L 5.000000 2.400000 L 5.000000 2.600000 L 8.517707 2.600046 Z"/>
    <path style="fill:#3dcc5c"
          d="M 1.482293 3.200046 L 1.447293 3.200238 L 1.412294 3.200490 L 1.377296 3.200823 L 1.342299 3.201261 L 1.307304 3.201837 L 1.272312 3.202595 L 1.237326 3.203594 L 1.202351 3.204908 L 1.167394 3.206637 L 1.132468 3.208913 L 1.097597 3.211906 L 1.062820 3.215841 L 1.028205 3.221009 L 0.993870 3.227785 L 0.960012 3.236644 L 0.926963 3.248170 L 0.895270 3.263037 L 0.865789 3.281947 L 0.839789 3.305449 L 0.818957 3.333644 L 0.805177 3.365827 L 0.800000 3.400000 L -0.000000 3.400000 L -0.000000 3.000000 L 1.482293 3.000000 L 5.000000 3.000000 L 5.000000 3.200000 L 1.482293 3.200046 Z"/>
    <path style="fill:#3dcc5c"
          d="M 1.482293 3.599954 L 1.447293 3.599762 L 1.412294 3.599510 L 1.377296 3.599177 L 1.342299 3.598739 L 1.307304 3.598163 L 1.272312 3.597405 L 1.237326 3.596406 L 1.202351 3.595092 L 1.167394 3.593363 L 1.132468 3.591087 L 1.097597 3.588094 L 1.062820 3.584159 L 1.028205 3.578991 L 0.993870 3.572215 L 0.960012 3.563356 L 0.926963 3.551830 L 0.895270 3.536963 L 0.865789 3.518053 L 0.839789 3.494551 L 0.818957 3.466356 L 0.805177 3.434173 L 0.800000 3.400000 L -0.000000 3.400000 L -0.000000 3.800000 L 1.482293 3.800000 L 5.000000 3.800000 L 5.000000 3.600000 L 1.482293 3.599954 Z"/>
    <path style="fill:#3dcc5c"
          d="M 8.517707 4.199954 L 8.552707 4.199762 L 8.587706 4.199510 L 8.622704 4.199177 L 8.657701 4.198739 L 8.692696 4.198163 L 8.727688 4.197405 L 8.762674 4.196406 L 8.797649 4.195092 L 8.832606 4.193363 L 8.867532 4.191087 L 8.902403 4.188094 L 8.937180 4.184159 L 8.971795 4.178991 L 9.006130 4.172215 L 9.039988 4.163356 L 9.073037 4.151830 L 9.104730 4.136963 L 9.134211 4.118053 L 9.160211 4.094551 L 9.181043 4.066356 L 9.194823 4.034173 L 9.200000 4.000000 L 10.000000 4.000000 L 10.000000 4.400000 L 8.517707 4.400000 L 5.000000 4.400000 L 5.000000 4.200000 L 8.517707 4.199954 Z"/>
    <path style="fill:#3dcc5c"
          d="M 8.517707 3.800046 L 8.552707 3.800238 L 8.587706 3.800490 L 8.622704 3.800823 L 8.657701 3.801261 L 8.692696 3.801837 L 8.727688 3.802595 L 8.762674 3.803594 L 8.797649 3.804908 L 8.832606 3.806637 L 8.867532 3.808913 L 8.902403 3.811906 L 8.937180 3.815841 L 8.971795 3.821009 L 9.006130 3.827785 L 9.039988 3.836644 L 9.073037 3.848170 L 9.104730 3.863037 L 9.134211 3.881947 L 9.160211 3.905449 L 9.181043 3.933644 L 9.194823 3.965827 L 9.200000 4.000000 L 10.000000 4.000000 L 10.000000 3.600000 L 8.517707 3.600000 L 5.000000 3.600000 L 5.000000 3.800000 L 8.517707 3.800046 Z"/>
    <path style="fill:#3dcc5c"
          d="M 1.482293 4.400046 L 1.447293 4.400238 L 1.412294 4.400490 L 1.377296 4.400823 L 1.342299 4.401261 L 1.307304 4.401837 L 1.272312 4.402595 L 1.237326 4.403594 L 1.202351 4.404908 L 1.167394 4.406637 L 1.132468 4.408913 L 1.097597 4.411906 L 1.062820 4.415841 L 1.028205 4.421009 L 0.993870 4.427785 L 0.960012 4.436644 L 0.926963 4.448170 L 0.895270 4.463037 L 0.865789 4.481947 L 0.839789 4.505449 L 0.818957 4.533644 L 0.805177 4.565827 L 0.800000 4.600000 L -0.000000 4.600000 L -0.000000 4.200000 L 1.482293 4.200000 L 5.000000 4.200000 L 5.000000 4.400000 L 1.482293 4.400046 Z"/>
    <path style="fill:#3dcc5c"
          d="M 1.482293 4.799954 L 1.447293 4.799762 L 1.412294 4.799510 L 1.377296 4.799177 L 1.342299 4.798739 L 1.307304 4.798163 L 1.272312 4.797405 L 1.237326 4.796406 L 1.202351 4.795092 L 1.167394 4.793363 L 1.132468 4.791087 L 1.097597 4.788094 L 1.062820 4.784159 L 1.028205 4.778991 L 0.993870 4.772215 L 0.960012 4.763356 L 0.926963 4.751830 L 0.895270 4.736963 L 0.865789 4.718053 L 0.839789 4.694551 L 0.818957 4.666356 L 0.805177 4.634173 L 0.800000 4.600000 L -0.000000 4.600000 L -0.000000 5.000000 L 1.482293 5.000000 L 5.000000 5.000000 L 5.000000 4.800000 L 1.482293 4.799954 Z"/>
    <path style="fill:#3dcc5c"
          d="M 8.517707 5.399954 L 8.552707 5.399762 L 8.587706 5.399510 L 8.622704 5.399177 L 8.657701 5.398739 L 8.692696 5.398163 L 8.727688 5.397405 L 8.762674 5.396406 L 8.797649 5.395092 L 8.832606 5.393363 L 8.867532 5.391087 L 8.902403 5.388094 L 8.937180 5.384159 L 8.971795 5.378991 L 9.006130 5.372215 L 9.039988 5.363356 L 9.073037 5.351830 L 9.104730 5.336963 L 9.134211 5.318053 L 9.160211 5.294551 L 9.181043 5.266356 L 9.194823 5.234173 L 9.200000 5.200000 L 10.000000 5.200000 L 10.000000 5.600000 L 8.517707 5.600000 L 5.000000 5.600000 L 5.000000 5.400000 L 8.517707 5.399954 Z"/>
    <path style="fill:#3dcc5c"
          d="M 8.517707 5.000046 L 8.552707 5.000238 L 8.587706 5.000490 L 8.622704 5.000823 L 8.657701 5.001261 L 8.692696 5.001837 L 8.727688 5.002595 L 8.762674 5.003594 L 8.797649 5.004908 L 8.832606 5.006637 L 8.867532 5.008913 L 8.902403 5.011906 L 8.937180 5.015841 L 8.971795 5.021009 L 9.006130 5.027785 L 9.039988 5.036644 L 9.073037 5.048170 L 9.104730 5.063037 L 9.134211 5.081947 L 9.160211 5.105449 L 9.181043 5.133644 L 9.194823 5.165827 L 9.200000 5.200000 L 10.000000 5.200000 L 10.000000 4.800000 L 8.517707 4.800000 L 5.000000 4.800000 L 5.000000 5.000000 L 8.517707 5.000046 Z"/>
    <path style="fill:#3dcc5c"
          d="M 1.482293 5.600046 L 1.447293 5.600238 L 1.412294 5.600490 L 1.377296 5.600823 L 1.342299 5.601261 L 1.307304 5.601837 L 1.272312 5.602595 L 1.237326 5.603594 L 1.202351 5.604908 L 1.167394 5.606637 L 1.132468 5.608913 L 1.097597 5.611906 L 1.062820 5.615841 L 1.028205 5.621009 L 0.993870 5.627785 L 0.960012 5.636644 L 0.926963 5.648170 L 0.895270 5.663037 L 0.865789 5.681947 L 0.839789 5.705449 L 0.818957 5.733644 L 0.805177 5.765827 L 0.800000 5.800000 L -0.000000 5.800000 L -0.000000 5.400000 L 1.482293 5.400000 L 5.000000 5.400000 L 5.000000 5.600000 L 1.482293 5.600046 Z"/>
    <path style="fill:#3dcc5c"
          d="M 1.482293 5.999954 L 1.447293 5.999762 L 1.412294 5.999510 L 1.377296 5.999177 L 1.342299 5.998739 L 1.307304 5.998163 L 1.272312 5.997405 L 1.237326 5.996406 L 1.202351 5.995092 L 1.167394 5.993363 L 1.132468 5.991087 L 1.097597 5.988094 L 1.062820 5.984159 L 1.028205 5.978991 L 0.993870 5.972215 L 0.960012 5.963356 L 0.926963 5.951830 L 0.895270 5.936963 L 0.865789 5.918053 L 0.839789 5.894551 L 0.818957 5.866356 L 0.805177 5.834173 L 0.800000 5.800000 L -0.000000 5.800000 L -0.000000 6.200000 L 1.482293 6.200000 L 5.000000 6.200000 L 5.000000 6.000000 L 1.482293 5.999954 Z"/>
    <path style="fill:#3dcc5c"
          d="M 8.517707 6.599954 L 8.552707 6.599762 L 8.587706 6.599510 L 8.622704 6.599177 L 8.657701 6.598739 L 8.692696 6.598163 L 8.727688 6.597405 L 8.762674 6.596406 L 8.797649 6.595092 L 8.832606 6.593363 L 8.867532 6.591087 L 8.902403 6.588094 L 8.937180 6.584159 L 8.971795 6.578991 L 9.006130 6.572215 L 9.039988 6.563356 L 9.073037 6.551830 L 9.104730 6.536963 L 9.134211 6.518053 L 9.160211 6.494551 L 9.181043 6.466356 L 9.194823 6.434173 L 9.200000 6.400000 L 10.000000 6.400000 L 10.000000 6.800000 L 8.517707 6.800000 L 5.000000 6.800000 L 5.000000 6.600000 L 8.517707 6.599954 Z"/>
    <path style="fill:#3dcc5c"
          d="M 8.517707 6.200046 L 8.552707 6.200238 L 8.587706 6.200490 L 8.622704 6.200823 L 8.657701 6.201261 L 8.692696 6.201837 L 8.727688 6.202595 L 8.762674 6.203594 L 8.797649 6.204908 L 8.832606 6.206637 L 8.867532 6.208913 L 8.902403 6.211906 L 8.937180 6.215841 L 8.971795 6.221009 L 9.006130 6.227785 L 9.039988 6.236644 L 9.073037 6.248170 L 9.104730 6.263037 L 9.134211 6.281947 L 9.160211 6.305449 L 9.181043 6.333644 L 9.194823 6.365827 L 9.200000 6.400000 L 10.000000 6.400000 L 10.000000 6.000000 L 8.517707 6.000000 L 5.000000 6.000000 L 5.000000 6.200000 L 8.517707 6.200046 Z"/>
    <path style="fill:#3dcc5c"
          d="M 1.482293 6.800046 L 1.447293 6.800238 L 1.412294 6.800490 L 1.377296 6.800823 L 1.342299 6.801261 L 1.307304 6.801837 L 1.272312 6.802595 L 1.237326 6.803594 L 1.202351 6.804908 L 1.167394 6.806637 L 1.132468 6.808913 L 1.097597 6.811906 L 1.062820 6.815841 L 1.028205 6.821009 L 0.993870 6.827785 L 0.960012 6.836644 L 0.926963 6.848170 L 0.895270 6.863037 L 0.865789 6.881947 L 0.839789 6.905449 L 0.818957 6.933644 L 0.805177 6.965827 L 0.800000 7.000000 L -0.000000 7.000000 L -0.000000 6.600000 L 1.482293 6.600000 L 5.000000 6.600000 L 5.000000 6.800000 L 1.482293 6.800046 Z"/>
    <path style="fill:#3dcc5c"
          d="M 1.482293 7.199954 L 1.447293 7.199762 L 1.412294 7.199510 L 1.377296 7.199177 L 1.342299 7.198739 L 1.307304 7.198163 L 1.272312 7.197405 L 1.237326 7.196406 L 1.202351 7.195092 L 1.167394 7.193363 L 1.132468 7.191087 L 1.097597 7.188094 L 1.062820 7.184159 L 1.028205 7.178991 L 0.993870 7.172215 L 0.960012 7.163356 L 0.926963 7.151830 L 0.895270 7.136963 L 0.865789 7.118053 L 0.839789 7.094551 L 0.818957 7.066356 L 0.805177 7.034173 L 0.800000 7.000000 L -0.000000 7.000000 L -0.000000 7.400000 L 1.482293 7.400000 L 5.000000 7.400000 L 5.000000 7.200000 L 1.482293 7.199954 Z"/>
    <path style="fill:#3dcc5c"
          d="M 8.517707 7.799954 L 8.552707 7.799762 L 8.587706 7.799510 L 8.622704 7.799177 L 8.657701 7.798739 L 8.692696 7.798163 L 8.727688 7.797405 L 8.762674 7.796406 L 8.797649 7.795092 L 8.832606 7.793363 L 8.867532 7.791087 L 8.902403 7.788094 L 8.937180 7.784159 L 8.971795 7.778991 L 9.006130 7.772215 L 9.039988 7.763356 L 9.073037 7.751830 L 9.104730 7.736963 L 9.134211 7.718053 L 9.160211 7.694551 L 9.181043 7.666356 L 9.194823 7.634173 L 9.200000 7.600000 L 10.000000 7.600000 L 10.000000 8.000000 L 8.517707 8.000000 L 5.000000 8.000000 L 5.000000 7.800000 L 8.517707 7.799954 Z"/>
    <path style="fill:#3dcc5c"
          d="M 8.517707 7.400046 L 8.552707 7.400238 L 8.587706 7.400490 L 8.622704 7.400823 L 8.657701 7.401261 L 8.692696 7.401837 L 8.727688 7.402595 L 8.762674 7.403594 L 8.797649 7.404908 L 8.832606 7.406637 L 8.867532 7.408913 L 8.902403 7.411906 L 8.937180 7.415841 L 8.971795 7.421009 L 9.006130 7.427785 L 9.039988 7.436644 L 9.073037 7.448170 L 9.104730 7.463037 L 9.134211 7.481947 L 9.160211 7.505449 L 9.181043 7.533644 L 9.194823 7.565827 L 9.200000 7.600000 L 10.000000 7.600000 L 10.000000 7.200000 L 8.517707 7.200000 L 5.000000 7.200000 L 5.000000 7.400000 L 8.517707 7.400046 Z"/>
    <path style="fill:#3dcc5c"
          d="M 1.482293 8.000046 L 1.447293 8.000238 L 1.412294 8.000490 L 1.377296 8.000823 L 1.342299 8.001261 L 1.307304 8.001837 L 1.272312 8.002595 L 1.237326 8.003594 L 1.202351 8.004908 L 1.167394 8.006637 L 1.132468 8.008913 L 1.097597 8.011906 L 1.062820 8.015841 L 1.028205 8.021009 L 0.993870 8.027785 L 0.960012 8.036644 L 0.926963 8.048170 L 0.895270 8.063037 L 0.865789 8.081947 L 0.839789 8.105449 L 0.818957 8.133644 L 0.805177 8.165827 L 0.800000 8.200000 L -0.000000 8.200000 L -0.000000 7.800000 L 1.482293 7.800000 L 5.000000 7.800000 L 5.000000 8.000000 L 1.482293 8.000046 Z"/>
    <path style="fill:#3dcc5c"
          d="M 1.482293 8.399954 L 1.447293 8.399762 L 1.412294 8.399510 L 1.377296 8.399177 L 1.342299 8.398739 L 1.307304 8.398163 L 1.272312 8.397405 L 1.237326 8.396406 L 1.202351 8.395092 L 1.167394 8.393363 L 1.132468 8.391087 L 1.097597 8.388094 L 1.062820 8.384159 L 1.028205 8.378991 L 0.993870 8.372215 L 0.960012 8.363356 L 0.926963 8.351830 L 0.895270 8.336963 L 0.865789 8.318053 L 0.839789 8.294551 L 0.818957 8.266356 L 0.805177 8.234173 L 0.800000 8.200000 L -0.000000 8.200000 L -0.000000 8.600000 L 1.482293 8.600000 L 5.000000 8.600000 L 5.000000 8.400000 L 1.482293 8.399954 Z"/>
    <path style="fill:#3dcc5c"
          d="M 5.000000 8.600000 L 5.000000 8.400000 L 10.000000 8.400000 L 10.000000 8.600000 Z"/>
  </g>
</svg>
