<?xml version="1.0" encoding="UTF-8" standalone="no"?>
<svg
   width="300.000000" 
   height="150.000000"
   version="1.1"
   xmlns:svg="http://www.w3.org/2000/svg"
   xmlns="http://www.w3.org/2000/svg">
  <g id="layer000_datatype000">
    <path style="fill:#3dcc5c"
          d="M 300.000000 75.000000 L 299.430000 68.475000 L 297.750000 62.070000 L 295.050000 55.905000 L 291.465000 50.055000 L 287.130000 44.595000 L 282.210000 39.570000 L 276.885000 34.995000 L 271.275000 30.855000 L 265.515000 27.150000 L 259.695000 23.850000 L 253.905000 20.910000 L 248.205000 18.300000 L 242.610000 16.005000 L 237.165000 13.965000 L 231.885000 12.165000 L 226.785000 10.575000 L 221.850000 9.165000 L 217.080000 7.920000 L 212.475000 6.810000 L 208.035000 5.835000 L 203.730000 4.980000 L 199.560000 4.215000 L 195.525000 3.540000 L 191.610000 2.940000 L 187.785000 2.415000 L 184.065000 1.965000 L 180.420000 1.560000 L 176.850000 1.215000 L 173.355000 0.915000 L 169.920000 0.660000 L 166.530000 0.450000 L 163.170000 0.285000 L 159.855000 0.165000 L 156.555000 0.075000 L 153.270000 0.015000 L 150.000000 0.000000 L 146.730000 0.015000 L 143.445000 0.075000 L 140.145000 0.165000 L 136.830000 0.285000 L 133.470000 0.450000 L 130.080000 0.660000 L 126.645000 0.915000 L 123.150000 1.215000 L 119.580000 1.560000 L 115.935000 1.965000 L 112.215000 2.415000 L 108.390000 2.940000 L 104.475000 3.540000 L 100.440000 4.215000 L 96.270000 4.980000 L 91.965000 5.835000 L 87.525000 6.810000 L 82.920000 7.920000 L 78.150000 9.165000 L 73.215000 10.575000 L 68.115000 12.165000 L 62.835000 13.965000 L 57.390000 16.005000 L 51.795000 18.300000 L 46.095000 20.910000 L 40.305000 23.850000 L 34.485000 27.150000 L 28.725000 30.855000 L 23.115000 34.995000 L 17.790000 39.570000 L 12.870000 44.595000 L 8.535000 50.055000 L 4.950000 55.905000 L 2.250000 62.070000 L 0.570000 68.475000 L 0.000000 75.000000 L 0.570000 81.525000 L 2.250000 87.930000 L 4.950000 94.095000 L 8.535000 99.945000 L 12.870000 105.405000 L 17.790000 110.430000 L 23.115000 115.005000 L 28.725000 119.145000 L 34.485000 122.850000 L 40.305000 126.150000 L 46.095000 129.090000 L 51.795000 131.700000 L 57.390000 133.995000 L 62.835000 136.035000 L 68.115000 137.835000 L 73.215000 139.425000 L 78.150000 140.835000 L 82.920000 142.080000 L 87.525000 143.190000 L 91.965000 144.165000 L 96.270000 145.020000 L 100.440000 145.785000 L 104.475000 146.460000 L 108.390000 147.060000 L 112.215000 147.585000 L 115.935000 148.035000 L 119.580000 148.440000 L 123.150000 148.785000 L 126.645000 149.085000 L 130.080000 149.340000 L 133.470000 149.550000 L 136.830000 149.715000 L 140.145000 149.835000 L 143.445000 149.925000 L 146.730000 149.985000 L 150.000000 150.000000 L 153.270000 149.985000 L 156.555000 149.925000 L 159.855000 149.835000 L 163.170000 149.715000 L 166.530000 149.550000 L 169.920000 149.340000 L 173.355000 149.085000 L 176.850000 148.785000 L 180.420000 148.440000 L 184.065000 148.035000 L 187.785000 147.585000 L 191.610000 147.060000 L 195.525000 146.460000 L 199.560000 145.785000 L 203.730000 145.020000 L 208.035000 144.165000 L 212.475000 143.190000 L 217.080000 142.080000 L 221.850000 140.835000 L 226.785000 139.425000 L 231.885000 137.835000 L 237.165000 136.035000 L 242.610000 133.995000 L 248.205000 131.700000 L 253.905000 129.090000 L 259.695000 126.150000 L 265.515000 122.850000 L 271.275000 119.145000 L 276.885000 115.005000 L 282.210000 110.430000 L 287.130000 105.405000 L 291.465000 99.945000 L 295.050000 94.095000 L 297.750000 87.930000 L 299.430000 81.525000 L 300.000000 75.000000 Z"/>
  </g>
</svg>
