<?xml version="1.0" encoding="UTF-8" standalone="no"?>
<svg
   width="300.000000" 
   height="225.000000"
   version="1.1"
   xmlns:svg="http://www.w3.org/2000/svg"
   xmlns="http://www.w3.org/2000/svg">
  <g id="layer000_datatype000">
    <path style="fill:#3dcc5c"
          d="M 300.000000 0.000000 L 0.000000 0.000000 L 0.000000 112.500000 L 75.000000 112.500000 L 75.284318 109.237845 L 76.122428 106.036552 L 77.472037 102.951510 L 79.269353 100.028280 L 81.437310 97.300020 L 83.894070 94.786972 L 86.560237 92.497523 L 89.364060 90.430320 L 92.244285 88.576800 L 95.151218 86.923590 L 98.046293 85.454610 L 100.900972 84.152663 L 103.695180 83.000580 L 106.415693 81.981938 L 109.054665 81.081540 L 111.608333 80.285565 L 114.075960 79.581682 L 116.458980 78.958980 L 118.760348 78.407903 L 120.984030 77.920117 L 123.134640 77.488388 L 125.217173 77.106458 L 127.236802 76.768935 L 129.198743 76.471163 L 131.108182 76.209165 L 132.970215 75.979507 L 134.789775 75.779265 L 136.571670 75.605963 L 138.320542 75.457492 L 140.040885 75.332085 L 141.737062 75.228285 L 143.413290 75.144892 L 145.073692 75.080985 L 146.722313 75.035828 L 148.363102 75.008932 L 150.000000 75.000000 L 151.636898 75.008932 L 153.277687 75.035828 L 154.926308 75.080985 L 156.586710 75.144892 L 158.262938 75.228285 L 159.959115 75.332085 L 161.679458 75.457492 L 163.428330 75.605963 L 165.210225 75.779265 L 167.029785 75.979507 L 168.891818 76.209165 L 170.801257 76.471163 L 172.763197 76.768935 L 174.782827 77.106458 L 176.865360 77.488388 L 179.015970 77.920117 L 181.239653 78.407903 L 183.541020 78.958980 L 185.924040 79.581682 L 188.391667 80.285565 L 190.945335 81.081540 L 193.584307 81.981938 L 196.304820 83.000580 L 199.099028 84.152663 L 201.953707 85.454610 L 204.848782 86.923590 L 207.755715 88.576800 L 210.635940 90.430320 L 213.439763 92.497523 L 216.105930 94.786972 L 218.562690 97.300020 L 220.730648 100.028280 L 222.527963 102.951510 L 223.877573 106.036552 L 224.715683 109.237845 L 225.000000 112.500000 L 224.715683 115.762155 L 223.877573 118.963448 L 222.527963 122.048490 L 220.730648 124.971720 L 218.562690 127.699980 L 216.105930 130.213027 L 213.439763 132.502478 L 210.635940 134.569680 L 207.755715 136.423200 L 204.848782 138.076410 L 201.953707 139.545390 L 199.099028 140.847338 L 196.304820 141.999420 L 193.584307 143.018062 L 190.945335 143.918460 L 188.391667 144.714435 L 185.924040 145.418318 L 183.541020 146.041020 L 181.239653 146.592097 L 179.015970 147.079882 L 176.865360 147.511613 L 174.782827 147.893542 L 172.763197 148.231065 L 170.801257 148.528837 L 168.891818 148.790835 L 167.029785 149.020493 L 165.210225 149.220735 L 163.428330 149.394037 L 161.679458 149.542507 L 159.959115 149.667915 L 158.262938 149.771715 L 156.586710 149.855108 L 154.926308 149.919015 L 153.277687 149.964172 L 151.636898 149.991068 L 150.000000 150.000000 L 148.363102 149.991068 L 146.722313 149.964172 L 145.073692 149.919015 L 143.413290 149.855108 L 141.737062 149.771715 L 140.040885 149.667915 L 138.320542 149.542507 L 136.571670 149.394037 L 134.789775 149.220735 L 132.970215 149.020493 L 131.108182 148.790835 L 129.198743 148.528837 L 127.236802 148.231065 L 125.217173 147.893542 L 123.134640 147.511613 L 120.984030 147.079882 L 118.760348 146.592097 L 116.458980 146.041020 L 114.075960 145.418318 L 111.608333 144.714435 L 109.054665 143.918460 L 106.415693 143.018062 L 103.695180 141.999420 L 100.900972 140.847338 L 98.046293 139.545390 L 95.151218 138.076410 L 92.244285 136.423200 L 89.364060 134.569680 L 86.560237 132.502478 L 83.894070 130.213027 L 81.437310 127.699980 L 79.269353 124.971720 L 77.472037 122.048490 L 76.122428 118.963448 L 75.284318 115.762155 L 75.000000 112.500000 L 0.000000 112.500000 L 0.000000 225.000000 L 300.000000 225.000000 Z"/>
  </g>
</svg>
