<?xml version="1.0" encoding="UTF-8" standalone="no"?>
<svg
   width="300.000000" 
   height="300.000000"
   version="1.1"
   xmlns:svg="http://www.w3.org/2000/svg"
   xmlns="http://www.w3.org/2000/svg">
  <g id="layer000_datatype000">
    <path style="fill:#3dcc5c"
          d="M 151.500000 0.000000 L 151.500000 300.000000 L 148.500000 300.000000 L 148.500000 0.000000 Z"/>
    <path style="fill:#3dcc5c"
          d="M 128.016363 1.612097 L 174.946702 297.918599 L 171.983637 298.387903 L 125.053298 2.081401 Z"/>
    <path style="fill:#3dcc5c"
          d="M 105.074036 6.877997 L 197.779134 292.194952 L 194.925964 293.122003 L 102.220866 7.805048 Z"/>
    <path style="fill:#3dcc5c"
          d="M 83.237935 15.668036 L 219.435085 282.969993 L 216.762065 284.331964 L 80.564915 17.030007 Z"/>
    <path style="fill:#3dcc5c"
          d="M 63.045738 27.765773 L 239.381313 270.470871 L 236.954262 272.234227 L 60.618687 29.529129 Z"/>
    <path style="fill:#3dcc5c"
          d="M 44.994643 42.873323 L 257.126677 255.005357 L 255.005357 257.126677 L 42.873323 44.994643 Z"/>
    <path style="fill:#3dcc5c"
          d="M 29.529129 60.618687 L 272.234227 236.954262 L 270.470871 239.381313 L 27.765773 63.045738 Z"/>
    <path style="fill:#3dcc5c"
          d="M 17.030007 80.564915 L 284.331964 216.762065 L 282.969993 219.435085 L 15.668036 83.237935 Z"/>
    <path style="fill:#3dcc5c"
          d="M 7.805048 102.220866 L 293.122003 194.925964 L 292.194952 197.779134 L 6.877997 105.074036 Z"/>
    <path style="fill:#3dcc5c"
          d="M 2.081401 125.053298 L 298.387903 171.983637 L 297.918599 174.946702 L 1.612097 128.016363 Z"/>
    <path style="fill:#3dcc5c"
          d="M 0.000000 148.500000 L 300.000000 148.500000 L 300.000000 151.500000 L 0.000000 151.500000 Z"/>
    <path style="fill:#3dcc5c"
          d="M 1.612097 171.983637 L 297.918599 125.053298 L 298.387903 128.016363 L 2.081401 174.946702 Z"/>
    <path style="fill:#3dcc5c"
          d="M 6.877997 194.925964 L 292.194952 102.220866 L 293.122003 105.074036 L 7.805048 197.779134 Z"/>
    <path style="fill:#3dcc5c"
          d="M 15.668036 216.762065 L 282.969993 80.564915 L 284.331964 83.237935 L 17.030007 219.435085 Z"/>
    <path style="fill:#3dcc5c"
          d="M 27.765773 236.954262 L 270.470871 60.618687 L 272.234227 63.045738 L 29.529129 239.381313 Z"/>
    <path style="fill:#3dcc5c"
          d="M 42.873323 255.005357 L 255.005357 42.873323 L 257.126677 44.994643 L 44.994643 257.126677 Z"/>
    <path style="fill:#3dcc5c"
          d="M 60.618687 270.470871 L 236.954262 27.765773 L 239.381313 29.529129 L 63.045738 272.234227 Z"/>
    <path style="fill:#3dcc5c"
          d="M 80.564915 282.969993 L 216.762065 15.668036 L 219.435085 17.030007 L 83.237935 284.331964 Z"/>
    <path style="fill:#3dcc5c"
          d="M 102.220866 292.194952 L 194.925964 6.877997 L 197.779134 7.805048 L 105.074036 293.122003 Z"/>
    <path style="fill:#3dcc5c"
          d="M 125.053298 297.918599 L 171.983637 1.612097 L 174.946702 2.081401 L 128.016363 298.387903 Z"/>
  </g>
</svg>
