<?xml version="1.0" encoding="UTF-8" standalone="no"?>
<svg
   width="300.000000" 
   height="66.666667"
   version="1.1"
   xmlns:svg="http://www.w3.org/2000/svg"
   xmlns="http://www.w3.org/2000/svg">
  <g id="layer001_datatype000">
    <path style="fill:#2b0fff"
          d="M 6.666667 16.666667 L 6.666667 33.333333 L 0.000000 33.333333 L 0.000000 16.666667 Z"/>
    <path style="fill:#2b0fff"
          d="M 20.000000 16.666667 L 20.000000 33.333333 L 13.333333 33.333333 L 13.333333 16.666667 Z"/>
    <path style="fill:#2b0fff"
          d="M 33.333333 16.666667 L 33.333333 33.333333 L 26.666667 33.333333 L 26.666667 16.666667 Z"/>
    <path style="fill:#2b0fff"
          d="M 46.666667 16.666667 L 46.666667 33.333333 L 40.000000 33.333333 L 40.000000 16.666667 Z"/>
    <path style="fill:#2b0fff"
          d="M 60.000000 16.666667 L 60.000000 33.333333 L 53.333333 33.333333 L 53.333333 16.666667 Z"/>
    <path style="fill:#2b0fff"
          d="M 73.333333 16.666667 L 73.333333 33.333333 L 66.666667 33.333333 L 66.666667 16.666667 Z"/>
    <path style="fill:#2b0fff"
          d="M 86.666667 16.666667 L 86.666667 33.333333 L 80.000000 33.333333 L 80.000000 16.666667 Z"/>
    <path style="fill:#2b0fff"
          d="M 100.000000 16.666667 L 100.000000 33.333333 L 93.333333 33.333333 L 93.333333 16.666667 Z"/>
    <path style="fill:#2b0fff"
          d="M 113.333333 16.666667 L 113.333333 33.333333 L 106.666667 33.333333 L 106.666667 16.666667 Z"/>
    <path style="fill:#2b0fff"
          d="M 126.666667 16.666667 L 126.666667 33.333333 L 120.000000 33.333333 L 120.000000 16.666667 Z"/>
    <path style="fill:#2b0fff"
          d="M 140.000000 16.666667 L 140.000000 33.333333 L 133.333333 33.333333 L 133.333333 16.666667 Z"/>
    <path style="fill:#2b0fff"
          d="M 153.333333 0.000000 L 153.333333 16.666667 L 146.666667 16.666667 L 146.666667 0.000000 Z"/>
    <path style="fill:#2b0fff"
          d="M 153.333333 16.666667 L 153.333333 33.333333 L 146.666667 33.333333 L 146.666667 16.666667 Z"/>
    <path style="fill:#2b0fff"
          d="M 166.666667 16.666667 L 166.666667 33.333333 L 160.000000 33.333333 L 160.000000 16.666667 Z"/>
    <path style="fill:#2b0fff"
          d="M 180.000000 16.666667 L 180.000000 33.333333 L 173.333333 33.333333 L 173.333333 16.666667 Z"/>
    <path style="fill:#2b0fff"
          d="M 193.333333 16.666667 L 193.333333 33.333333 L 186.666667 33.333333 L 186.666667 16.666667 Z"/>
    <path style="fill:#2b0fff"
          d="M 206.666667 16.666667 L 206.666667 33.333333 L 200.000000 33.333333 L 200.000000 16.666667 Z"/>
    <path style="fill:#2b0fff"
          d="M 220.000000 16.666667 L 220.000000 33.333333 L 213.333333 33.333333 L 213.333333 16.666667 Z"/>
    <path style="fill:#2b0fff"
          d="M 233.333333 16.666667 L 233.333333 33.333333 L 226.666667 33.333333 L 226.666667 16.666667 Z"/>
    <path style="fill:#2b0fff"
          d="M 246.666667 16.666667 L 246.666667 33.333333 L 240.000000 33.333333 L 240.000000 16.666667 Z"/>
    <path style="fill:#2b0fff"
          d="M 260.000000 16.666667 L 260.000000 33.333333 L 253.333333 33.333333 L 253.333333 16.666667 Z"/>
    <path style="fill:#2b0fff"
          d="M 273.333333 16.666667 L 273.333333 33.333333 L 266.666667 33.333333 L 266.666667 16.666667 Z"/>
    <path style="fill:#2b0fff"
          d="M 286.666667 16.666667 L 286.666667 33.333333 L 280.000000 33.333333 L 280.000000 16.666667 Z"/>
    <path style="fill:#2b0fff"
          d="M 300.000000 16.666667 L 300.000000 33.333333 L 293.333333 33.333333 L 293.333333 16.666667 Z"/>
  </g>
  <g id="layer002_datatype000">
    <path style="fill:#cc3d3d"
          d="M 10.333333 33.333333 L 10.333333 50.000000 L 3.666667 50.000000 L 3.666667 33.333333 Z"/>
    <path style="fill:#cc3d3d"
          d="M 23.333333 33.333333 L 23.333333 50.000000 L 16.666667 50.000000 L 16.666667 33.333333 Z"/>
    <path style="fill:#cc3d3d"
          d="M 36.333333 33.333333 L 36.333333 50.000000 L 29.666667 50.000000 L 29.666667 33.333333 Z"/>
    <path style="fill:#cc3d3d"
          d="M 49.333333 33.333333 L 49.333333 50.000000 L 42.666667 50.000000 L 42.666667 33.333333 Z"/>
    <path style="fill:#cc3d3d"
          d="M 62.333333 33.333333 L 62.333333 50.000000 L 55.666667 50.000000 L 55.666667 33.333333 Z"/>
    <path style="fill:#cc3d3d"
          d="M 75.333333 33.333333 L 75.333333 50.000000 L 68.666667 50.000000 L 68.666667 33.333333 Z"/>
    <path style="fill:#cc3d3d"
          d="M 88.333333 33.333333 L 88.333333 50.000000 L 81.666667 50.000000 L 81.666667 33.333333 Z"/>
    <path style="fill:#cc3d3d"
          d="M 101.333333 33.333333 L 101.333333 50.000000 L 94.666667 50.000000 L 94.666667 33.333333 Z"/>
    <path style="fill:#cc3d3d"
          d="M 114.333333 33.333333 L 114.333333 50.000000 L 107.666667 50.000000 L 107.666667 33.333333 Z"/>
    <path style="fill:#cc3d3d"
          d="M 127.333333 33.333333 L 127.333333 50.000000 L 120.666667 50.000000 L 120.666667 33.333333 Z"/>
    <path style="fill:#cc3d3d"
          d="M 140.333333 33.333333 L 140.333333 50.000000 L 133.666667 50.000000 L 133.666667 33.333333 Z"/>
    <path style="fill:#cc3d3d"
          d="M 153.333333 50.000000 L 153.333333 66.666667 L 146.666667 66.666667 L 146.666667 50.000000 Z"/>
    <path style="fill:#cc3d3d"
          d="M 153.333333 33.333333 L 153.333333 50.000000 L 146.666667 50.000000 L 146.666667 33.333333 Z"/>
    <path style="fill:#cc3d3d"
          d="M 166.333333 33.333333 L 166.333333 50.000000 L 159.666667 50.000000 L 159.666667 33.333333 Z"/>
    <path style="fill:#cc3d3d"
          d="M 179.333333 33.333333 L 179.333333 50.000000 L 172.666667 50.000000 L 172.666667 33.333333 Z"/>
    <path style="fill:#cc3d3d"
          d="M 192.333333 33.333333 L 192.333333 50.000000 L 185.666667 50.000000 L 185.666667 33.333333 Z"/>
    <path style="fill:#cc3d3d"
          d="M 205.333333 33.333333 L 205.333333 50.000000 L 198.666667 50.000000 L 198.666667 33.333333 Z"/>
    <path style="fill:#cc3d3d"
          d="M 218.333333 33.333333 L 218.333333 50.000000 L 211.666667 50.000000 L 211.666667 33.333333 Z"/>
    <path style="fill:#cc3d3d"
          d="M 231.333333 33.333333 L 231.333333 50.000000 L 224.666667 50.000000 L 224.666667 33.333333 Z"/>
    <path style="fill:#cc3d3d"
          d="M 244.333333 33.333333 L 244.333333 50.000000 L 237.666667 50.000000 L 237.666667 33.333333 Z"/>
    <path style="fill:#cc3d3d"
          d="M 257.333333 33.333333 L 257.333333 50.000000 L 250.666667 50.000000 L 250.666667 33.333333 Z"/>
    <path style="fill:#cc3d3d"
          d="M 270.333333 33.333333 L 270.333333 50.000000 L 263.666667 50.000000 L 263.666667 33.333333 Z"/>
    <path style="fill:#cc3d3d"
          d="M 283.333333 33.333333 L 283.333333 50.000000 L 276.666667 50.000000 L 276.666667 33.333333 Z"/>
    <path style="fill:#cc3d3d"
          d="M 296.333333 33.333333 L 296.333333 50.000000 L 289.666667 50.000000 L 289.666667 33.333333 Z"/>
  </g>
</svg>
