<?xml version="1.0" encoding="UTF-8" standalone="no"?>
<svg
   width="300.000000" 
   height="205.479452"
   version="1.1"
   xmlns:svg="http://www.w3.org/2000/svg"
   xmlns="http://www.w3.org/2000/svg">
  <g id="layer000_datatype000">
    <path style="fill:#3dcc5c"
          d="M 41.095890 154.109589 L 41.095890 164.383562 L 20.547945 164.383562 L 0.000000 143.835616 L 0.000000 133.561644 L 82.191781 133.561644 L 82.191781 123.287671 L 102.739726 123.287671 L 102.739726 164.383562 L 82.191781 164.383562 L 82.191781 154.109589 L 41.095890 154.109589 L 41.095890 154.109589 Z"/>
    <path style="fill:#3dcc5c"
          d="M 30.821918 41.095890 L 30.821918 61.643836 L 20.547945 61.643836 L 20.547945 92.465753 L 41.095890 92.465753 L 41.095890 51.369863 L 51.369863 41.095890 L 92.465753 41.095890 L 102.739726 51.369863 L 102.739726 71.917808 L 82.191781 71.917808 L 82.191781 61.643836 L 61.643836 61.643836 L 61.643836 92.465753 L 82.191781 92.465753 L 82.191781 82.191781 L 102.739726 82.191781 L 102.739726 102.739726 L 92.465753 113.013699 L 10.273973 113.013699 L 0.000000 102.739726 L 0.000000 51.369863 L 10.273973 41.095890 L 30.821918 41.095890 Z"/>
    <path style="fill:#3dcc5c"
          d="M 133.561644 102.739726 L 133.561644 205.479452 L 113.013699 205.479452 L 113.013699 102.739726 Z"/>
    <path style="fill:#3dcc5c"
          d="M 186.986301 102.739726 L 186.986301 205.479452 L 166.438356 205.479452 L 166.438356 102.739726 Z"/>
    <path style="fill:#3dcc5c"
          d="M 166.438356 0.000000 L 166.438356 102.739726 L 133.561644 102.739726 L 133.561644 0.000000 Z"/>
    <path style="fill:#3dcc5c"
          d="M 223.972603 102.739726 L 223.972603 205.479452 L 203.424658 205.479452 L 203.424658 102.739726 Z"/>
    <path style="fill:#3dcc5c"
          d="M 203.424658 0.000000 L 203.424658 102.739726 L 186.986301 102.739726 L 186.986301 0.000000 Z"/>
    <path style="fill:#3dcc5c"
          d="M 252.739726 102.739726 L 252.739726 205.479452 L 232.191781 205.479452 L 232.191781 102.739726 Z"/>
    <path style="fill:#3dcc5c"
          d="M 232.191781 0.000000 L 232.191781 102.739726 L 223.972603 102.739726 L 223.972603 0.000000 Z"/>
    <path style="fill:#3dcc5c"
          d="M 277.397260 102.739726 L 277.397260 205.479452 L 256.849315 205.479452 L 256.849315 102.739726 Z"/>
    <path style="fill:#3dcc5c"
          d="M 256.849315 0.000000 L 256.849315 102.739726 L 252.739726 102.739726 L 252.739726 0.000000 Z"/>
    <path style="fill:#3dcc5c"
          d="M 300.000000 102.739726 L 300.000000 205.479452 L 279.452055 205.479452 L 279.452055 102.739726 Z"/>
    <path style="fill:#3dcc5c"
          d="M 279.452055 0.000000 L 279.452055 102.739726 L 277.397260 102.739726 L 277.397260 0.000000 Z"/>
  </g>
</svg>
