<?xml version="1.0" encoding="UTF-8" standalone="no"?>
<svg
   width="300.000000" 
   height="91.744559"
   version="1.1"
   xmlns:svg="http://www.w3.org/2000/svg"
   xmlns="http://www.w3.org/2000/svg">
  <g id="layer000_datatype000">
    <path style="fill:#3dcc5c"
          d="M 79.273855 88.207056 L 80.895152 88.180485 L 82.524332 88.135855 L 84.165432 88.072693 L 85.822531 87.990250 L 87.499792 87.887609 L 89.201535 87.763557 L 90.932198 87.616632 L 92.696412 87.445049 L 94.498925 87.246684 L 96.344728 87.019031 L 98.239007 86.759113 L 100.187104 86.463442 L 102.194553 86.127954 L 104.267034 85.747865 L 106.410244 85.317620 L 108.629897 84.830719 L 110.931492 84.279590 L 113.320082 83.655433 L 115.800041 82.948028 L 118.374569 82.145555 L 121.045173 81.234366 L 123.810867 80.198806 L 126.667275 79.021078 L 129.605427 77.681062 L 132.610340 76.156350 L 135.659397 74.422306 L 138.720472 72.452409 L 141.750050 70.218761 L 144.691173 67.693197 L 147.471476 64.849203 L 150.001097 61.665805 L 152.171802 58.135281 L 153.859995 54.276271 L 154.940128 50.150546 L 155.313005 45.872279 L 154.940128 41.594012 L 153.859995 37.468287 L 152.171802 33.609277 L 150.001097 30.078754 L 147.471476 26.895356 L 144.691173 24.051362 L 141.750050 21.525798 L 138.720472 19.292150 L 135.659397 17.322253 L 132.610340 15.588209 L 129.605427 14.063497 L 126.667275 12.723480 L 123.810867 11.545752 L 121.045173 10.510193 L 118.374569 9.599003 L 115.800041 8.796530 L 113.320082 8.089126 L 110.931492 7.464968 L 108.629897 6.913839 L 106.410244 6.426939 L 104.267034 5.996693 L 102.194553 5.616604 L 100.187104 5.281116 L 98.239007 4.985446 L 96.344728 4.725527 L 94.498925 4.497875 L 92.696412 4.299509 L 90.932198 4.127927 L 89.201535 3.981002 L 87.499792 3.856949 L 85.822531 3.754309 L 84.165432 3.671866 L 82.524332 3.608704 L 80.895152 3.564073 L 79.273855 3.537503 L 77.656502 3.528674 L 76.039150 3.537503 L 74.417853 3.564073 L 72.788673 3.608704 L 71.147573 3.671866 L 69.490474 3.754309 L 67.813213 3.856949 L 66.111470 3.981002 L 64.380806 4.127927 L 62.616593 4.299509 L 60.814079 4.497875 L 58.968277 4.725527 L 57.073998 4.985446 L 55.125901 5.281116 L 53.118452 5.616604 L 51.045970 5.996693 L 48.902761 6.426939 L 46.683108 6.913839 L 44.381513 7.464968 L 41.992923 8.089126 L 39.512963 8.796530 L 36.938436 9.599003 L 34.267832 10.510193 L 31.502138 11.545752 L 28.645730 12.723480 L 25.707578 14.063497 L 22.702665 15.588209 L 19.653608 17.322253 L 16.592533 19.292150 L 13.562954 21.525798 L 10.621831 24.051362 L 7.841529 26.895356 L 5.311907 30.078754 L 3.141203 33.609277 L 1.453010 37.468287 L 0.372877 41.594012 L 0.000000 45.872279 L 0.372877 50.150546 L 1.453010 54.276271 L 3.141203 58.135281 L 5.311907 61.665805 L 7.841529 64.849203 L 10.621831 67.693197 L 13.562954 70.218761 L 16.592533 72.452409 L 19.653608 74.422306 L 22.702665 76.156350 L 25.707578 77.681062 L 28.645730 79.021078 L 31.502138 80.198806 L 34.267832 81.234366 L 36.938436 82.145555 L 39.512963 82.948028 L 41.992923 83.655433 L 44.381513 84.279590 L 46.683108 84.830719 L 48.902761 85.317620 L 51.045970 85.747865 L 53.118452 86.127954 L 55.125901 86.463442 L 57.073998 86.759113 L 58.968277 87.019031 L 60.814079 87.246684 L 62.616593 87.445049 L 64.380806 87.616632 L 66.111470 87.763557 L 67.813213 87.887609 L 69.490474 87.990250 L 71.147573 88.072693 L 72.788673 88.135855 L 74.417853 88.180485 L 76.039150 88.207056 L 77.656502 88.215884 Z"/>
    <path style="fill:#3dcc5c"
          d="M 220.457398 91.735525 L 222.117376 91.708312 L 223.785498 91.662624 L 225.465957 91.597944 L 227.162971 91.513518 L 228.880840 91.408386 L 230.624058 91.281314 L 232.397235 91.130782 L 234.205210 90.954944 L 236.052911 90.751603 L 237.945553 90.518171 L 239.888611 90.251562 L 241.887697 89.948150 L 243.948675 89.603721 L 246.077593 89.213278 L 248.280585 88.771036 L 250.563859 88.270176 L 252.933493 87.702752 L 255.395203 87.059490 L 257.954169 86.329552 L 260.614505 85.500332 L 263.378816 84.557166 L 266.247404 83.483081 L 269.217377 82.258528 L 272.281536 80.861044 L 275.426811 79.265104 L 278.632736 77.441856 L 281.869255 75.359050 L 285.094467 72.981166 L 288.251768 70.269975 L 291.266350 67.186324 L 294.040802 63.694827 L 296.451248 59.774370 L 298.348575 55.437316 L 299.574455 50.754894 L 300.000000 45.872279 L 299.574455 40.989664 L 298.348575 36.307243 L 296.451248 31.970189 L 294.040802 28.049731 L 291.266350 24.558234 L 288.251768 21.474583 L 285.094467 18.763392 L 281.869255 16.385509 L 278.632736 14.302702 L 275.426811 12.479455 L 272.281536 10.883514 L 269.217377 9.486031 L 266.247404 8.261478 L 263.378816 7.187393 L 260.614505 6.244226 L 257.954169 5.415007 L 255.395203 4.685068 L 252.933493 4.041807 L 250.563859 3.474383 L 248.280585 2.973523 L 246.077593 2.531280 L 243.948675 2.140838 L 241.887697 1.796409 L 239.888611 1.492996 L 237.945553 1.226388 L 236.052911 0.992955 L 234.205210 0.789615 L 232.397235 0.613776 L 230.624058 0.463245 L 228.880840 0.336172 L 227.162971 0.231040 L 225.465957 0.146614 L 223.785498 0.081935 L 222.117376 0.036246 L 220.457398 0.009033 L 218.801499 0.000000 L 217.145600 0.009033 L 215.485622 0.036246 L 213.817500 0.081935 L 212.137042 0.146614 L 210.440027 0.231040 L 208.722159 0.336172 L 206.978940 0.463245 L 205.205764 0.613776 L 203.397788 0.789615 L 201.550087 0.992955 L 199.657446 1.226388 L 197.714387 1.492996 L 195.715301 1.796409 L 193.654323 2.140838 L 191.525405 2.531280 L 189.322414 2.973523 L 187.039140 3.474383 L 184.669506 4.041807 L 182.207796 4.685068 L 179.648830 5.415007 L 176.988494 6.244226 L 174.224183 7.187393 L 171.355594 8.261478 L 168.385621 9.486031 L 165.321462 10.883514 L 162.176187 12.479455 L 158.970262 14.302702 L 155.733744 16.385509 L 152.508531 18.763392 L 149.351231 21.474583 L 146.336649 24.558234 L 143.562197 28.049731 L 141.151751 31.970189 L 139.254423 36.307243 L 138.028544 40.989664 L 137.602999 45.872279 L 138.028544 50.754894 L 139.254423 55.437316 L 141.151751 59.774370 L 143.562197 63.694827 L 146.336649 67.186324 L 149.351231 70.269975 L 152.508531 72.981166 L 155.733744 75.359050 L 158.970262 77.441856 L 162.176187 79.265104 L 165.321462 80.861044 L 168.385621 82.258528 L 171.355594 83.483081 L 174.224183 84.557166 L 176.988494 85.500332 L 179.648830 86.329552 L 182.207796 87.059490 L 184.669506 87.702752 L 187.039140 88.270176 L 189.322414 88.771036 L 191.525405 89.213278 L 193.654323 89.603721 L 195.715301 89.948150 L 197.714387 90.251562 L 199.657446 90.518171 L 201.550087 90.751603 L 203.397788 90.954944 L 205.205764 91.130782 L 206.978940 91.281314 L 208.722159 91.408386 L 210.440027 91.513518 L 212.137042 91.597944 L 213.817500 91.662624 L 215.485622 91.708312 L 217.145600 91.735525 L 218.801499 91.744559 Z"/>
  </g>
</svg>
