<?xml version="1.0" encoding="UTF-8" standalone="no"?>
<svg
   width="300.000000" 
   height="24.000000"
   version="1.1"
   xmlns:svg="http://www.w3.org/2000/svg"
   xmlns="http://www.w3.org/2000/svg">
  <g id="layer000_datatype000">
    <path style="fill:#808080"
          d="M 255.595911 17.998609 L 256.015906 17.996469 L 256.435899 17.994080 L 256.855890 17.991414 L 257.275880 17.988437 L 257.695867 17.985115 L 258.115850 17.981406 L 258.535830 17.977267 L 258.955804 17.972646 L 259.375773 17.967489 L 259.795733 17.961732 L 260.215684 17.955305 L 260.635623 17.948132 L 261.055546 17.940126 L 261.475451 17.931189 L 261.895333 17.921214 L 262.315185 17.910080 L 262.735001 17.897652 L 263.154771 17.883780 L 263.574486 17.868297 L 263.994130 17.851016 L 264.413687 17.831728 L 264.833134 17.810202 L 265.252446 17.786177 L 265.671589 17.759365 L 266.090522 17.729445 L 266.509192 17.696057 L 266.927537 17.658802 L 267.345475 17.617238 L 267.762908 17.570870 L 268.179713 17.519152 L 268.595736 17.461476 L 269.010787 17.397171 L 269.424632 17.325495 L 269.836978 17.245630 L 270.247465 17.156682 L 270.655648 17.057670 L 271.060981 16.947529 L 271.462791 16.825111 L 271.860257 16.689189 L 272.252377 16.538463 L 272.637939 16.371585 L 273.015483 16.187179 L 273.383269 15.983884 L 273.739236 15.760406 L 274.080983 15.515594 L 274.405747 15.248526 L 274.710413 14.958620 L 274.991545 14.645756 L 275.245465 14.310400 L 275.468372 13.953717 L 275.656513 13.577648 L 275.806388 13.184940 L 275.914984 12.779088 L 275.979994 12.364216 L 276.000000 12.000000 L 300.000000 12.000000 L 300.000000 24.000000 L 255.595911 24.000000 L 0.000000 24.000000 L 0.000000 18.000000 L 255.595911 17.998609 Z"/>
    <path style="fill:#808080"
          d="M 255.595911 6.001391 L 256.015906 6.003531 L 256.435899 6.005920 L 256.855890 6.008586 L 257.275880 6.011563 L 257.695867 6.014885 L 258.115850 6.018594 L 258.535830 6.022733 L 258.955804 6.027354 L 259.375773 6.032511 L 259.795733 6.038268 L 260.215684 6.044695 L 260.635623 6.051868 L 261.055546 6.059874 L 261.475451 6.068811 L 261.895333 6.078786 L 262.315185 6.089920 L 262.735001 6.102348 L 263.154771 6.116220 L 263.574486 6.131703 L 263.994130 6.148984 L 264.413687 6.168272 L 264.833134 6.189798 L 265.252446 6.213823 L 265.671589 6.240635 L 266.090522 6.270555 L 266.509192 6.303943 L 266.927537 6.341198 L 267.345475 6.382762 L 267.762908 6.429130 L 268.179713 6.480848 L 268.595736 6.538524 L 269.010787 6.602829 L 269.424632 6.674505 L 269.836978 6.754370 L 270.247465 6.843318 L 270.655648 6.942330 L 271.060981 7.052471 L 271.462791 7.174889 L 271.860257 7.310811 L 272.252377 7.461537 L 272.637939 7.628415 L 273.015483 7.812821 L 273.383269 8.016116 L 273.739236 8.239594 L 274.080983 8.484406 L 274.405747 8.751474 L 274.710413 9.041380 L 274.991545 9.354244 L 275.245465 9.689600 L 275.468372 10.046283 L 275.656513 10.422352 L 275.806388 10.815060 L 275.914984 11.220912 L 275.979994 11.635784 L 276.000000 12.000000 L 300.000000 12.000000 L 300.000000 0.000000 L 255.595911 0.000000 L 0.000000 0.000000 L 0.000000 6.000000 L 255.595911 6.001391 Z"/>
  </g>
</svg>
