<?xml version="1.0" encoding="UTF-8" standalone="no"?>
<svg
   width="300.000000" 
   height="43.765423"
   version="1.1"
   xmlns:svg="http://www.w3.org/2000/svg"
   xmlns="http://www.w3.org/2000/svg">
  <g id="layer000_datatype000">
    <path style="fill:#808080"
          d="M -0.000000 23.872049 L 6.122449 23.842287 L 12.244898 23.827522 L 18.367347 23.805430 L 24.489796 23.772389 L 30.612245 23.722956 L 36.734694 23.649027 L 42.857143 23.538509 L 48.979592 23.373434 L 55.102041 23.127410 L 61.224490 22.762402 L 67.346939 22.226144 L 73.469388 21.453958 L 79.591837 20.382974 L 85.714286 18.984856 L 91.836735 17.300433 L 97.959184 15.438227 L 104.081633 13.531343 L 110.204082 11.692987 L 116.326531 9.997299 L 122.448980 8.481314 L 128.571429 7.155263 L 134.693878 6.012771 L 140.816327 5.038752 L 146.938776 4.214318 L 153.061224 3.519970 L 159.183673 2.937278 L 165.306122 2.449419 L 171.428571 2.041641 L 177.551020 1.701256 L 183.673469 1.417289 L 189.795918 1.180503 L 195.918367 0.983231 L 202.040816 0.818847 L 208.163265 0.681904 L 214.285714 0.567847 L 220.408163 0.472850 L 226.530612 0.393703 L 232.653061 0.327861 L 238.775510 0.273030 L 244.897959 0.227309 L 251.020408 0.189263 L 257.142857 0.157599 L 263.265306 0.131288 L 269.387755 0.109314 L 275.510204 0.090994 L 281.632653 0.075786 L 287.755102 0.063074 L 293.877551 0.052535 L 300.000000 0.000000 L 300.000000 43.765423 L -0.000000 43.765423 Z"/>
  </g>
</svg>
