<?xml version="1.0" encoding="UTF-8" standalone="no"?>
<svg
   width="300.000000" 
   height="163.580397"
   version="1.1"
   xmlns:svg="http://www.w3.org/2000/svg"
   xmlns="http://www.w3.org/2000/svg">
  <g id="layer000_datatype000">
    <path style="fill:#3dcc5c"
          d="M 153.124051 163.563344 L 156.255721 163.512021 L 159.402619 163.425814 L 162.572540 163.303810 L 165.773364 163.144565 L 169.013134 162.946306 L 172.300192 162.706689 L 175.643112 162.422891 L 179.050838 162.091465 L 182.532543 161.708306 L 186.097864 161.268576 L 189.756821 160.766521 L 193.519733 160.195409 L 197.397288 159.547387 L 201.400458 158.813213 L 205.540245 157.982158 L 209.827690 157.041669 L 214.273413 155.977117 L 218.887173 154.771506 L 223.677422 153.405095 L 228.650335 151.855052 L 233.808830 150.095013 L 239.150998 148.094743 L 244.668387 145.819863 L 250.343672 143.231510 L 256.147913 140.286402 L 262.037420 136.936952 L 267.950141 133.131932 L 273.802024 128.817455 L 279.483048 123.939118 L 284.853434 118.445707 L 289.739609 112.296708 L 293.932505 105.477208 L 297.193390 98.023209 L 299.279757 90.054028 L 300.000000 81.790198 L 299.279757 73.526369 L 297.193390 65.557188 L 293.932505 58.103189 L 289.739609 51.283689 L 284.853434 45.134690 L 279.483048 39.641279 L 273.802024 34.762942 L 267.950141 30.448465 L 262.037420 26.643445 L 256.147913 23.293995 L 250.343672 20.348887 L 244.668387 17.760534 L 239.150998 15.485654 L 233.808830 13.485384 L 228.650335 11.725345 L 223.677422 10.175302 L 218.887173 8.808891 L 214.273413 7.603280 L 209.827690 6.538728 L 205.540245 5.598239 L 201.400458 4.767184 L 197.397288 4.033010 L 193.519733 3.384988 L 189.756821 2.813876 L 186.097864 2.311821 L 182.532543 1.872091 L 179.050838 1.488932 L 175.643112 1.157506 L 172.300192 0.873708 L 169.013134 0.634091 L 165.773364 0.435832 L 162.572540 0.276586 L 159.402619 0.154583 L 156.255721 0.068376 L 153.124051 0.017053 L 150.000000 0.000000 L 146.875949 0.017053 L 143.744279 0.068376 L 140.597381 0.154583 L 137.427460 0.276586 L 134.226636 0.435832 L 130.986866 0.634091 L 127.699808 0.873708 L 124.356888 1.157506 L 120.949162 1.488932 L 117.467457 1.872091 L 113.902136 2.311821 L 110.243179 2.813876 L 106.480267 3.384988 L 102.602712 4.033010 L 98.599542 4.767184 L 94.459755 5.598239 L 90.172310 6.538728 L 85.726587 7.603280 L 81.112827 8.808891 L 76.322578 10.175302 L 71.349665 11.725345 L 66.191170 13.485384 L 60.849002 15.485654 L 55.331613 17.760534 L 49.656328 20.348887 L 43.852087 23.293995 L 37.962580 26.643445 L 32.049859 30.448465 L 26.197976 34.762942 L 20.516952 39.641279 L 15.146566 45.134690 L 10.260391 51.283689 L 6.067495 58.103189 L 2.806610 65.557188 L 0.720243 73.526369 L 0.000000 81.790198 L 13.683343 81.790198 L 14.200106 75.861051 L 15.723418 70.042524 L 18.176408 64.435289 L 21.443128 59.122156 L 25.383511 54.163392 L 29.848808 49.595789 L 34.694716 45.434587 L 39.790818 41.677332 L 45.025787 38.308457 L 50.309298 35.303656 L 55.571257 32.633703 L 60.759796 30.267342 L 65.838423 28.173368 L 70.783106 26.321929 L 75.579584 24.685406 L 80.221017 23.238677 L 84.706066 21.959332 L 89.037337 20.827536 L 93.220200 19.825922 L 97.261866 18.939346 L 101.170719 18.154652 L 104.955837 17.460473 L 108.626627 16.847008 L 112.192562 16.305790 L 115.663075 15.829595 L 119.047422 15.412179 L 122.354573 15.048227 L 125.593266 14.733241 L 128.771939 14.463388 L 131.898757 14.235453 L 134.981653 14.046791 L 138.028290 13.895220 L 141.046163 13.779065 L 144.042621 13.696989 L 147.024848 13.648105 L 150.000000 13.631870 L 152.975152 13.648105 L 155.957379 13.696989 L 158.953837 13.779065 L 161.971710 13.895220 L 165.018347 14.046791 L 168.101243 14.235453 L 171.228061 14.463388 L 174.406734 14.733241 L 177.645427 15.048227 L 180.952578 15.412179 L 184.336925 15.829595 L 187.807438 16.305790 L 191.373373 16.847008 L 195.044163 17.460473 L 198.829281 18.154652 L 202.738134 18.939346 L 206.779800 19.825922 L 210.962663 20.827536 L 215.293934 21.959332 L 219.778983 23.238677 L 224.420416 24.685406 L 229.216894 26.321929 L 234.161577 28.173368 L 239.240204 30.267342 L 244.428743 32.633703 L 249.690702 35.303656 L 254.974213 38.308457 L 260.209182 41.677332 L 265.305284 45.434587 L 270.151192 49.595789 L 274.616489 54.163392 L 278.556872 59.122156 L 281.823592 64.435289 L 284.276582 70.042524 L 285.799894 75.861051 L 286.316657 81.790198 L 285.799894 87.719346 L 284.276582 93.537873 L 281.823592 99.145108 L 278.556872 104.458241 L 274.616489 109.417005 L 270.151192 113.984608 L 265.305284 118.145810 L 260.209182 121.903065 L 254.974213 125.271940 L 249.690702 128.276741 L 244.428743 130.946694 L 239.240204 133.313055 L 234.161577 135.407029 L 229.216894 137.258468 L 224.420416 138.894991 L 219.778983 140.341720 L 215.293934 141.621065 L 210.962663 142.752861 L 206.779800 143.754475 L 202.738134 144.641051 L 198.829281 145.425745 L 195.044163 146.119924 L 191.373373 146.733389 L 187.807438 147.274607 L 184.336925 147.750802 L 180.952578 148.168218 L 177.645427 148.532170 L 174.406734 148.847156 L 171.228061 149.117009 L 168.101243 149.344944 L 165.018347 149.533606 L 161.971710 149.685177 L 158.953837 149.801332 L 155.957379 149.883408 L 152.975152 149.932292 L 150.000000 149.948527 L 147.024848 149.932292 L 144.042621 149.883408 L 141.046163 149.801332 L 138.028290 149.685177 L 134.981653 149.533606 L 131.898757 149.344944 L 128.771939 149.117009 L 125.593266 148.847156 L 122.354573 148.532170 L 119.047422 148.168218 L 115.663075 147.750802 L 112.192562 147.274607 L 108.626627 146.733389 L 104.955837 146.119924 L 101.170719 145.425745 L 97.261866 144.641051 L 93.220200 143.754475 L 89.037337 142.752861 L 84.706066 141.621065 L 80.221017 140.341720 L 75.579584 138.894991 L 70.783106 137.258468 L 65.838423 135.407029 L 60.759796 133.313055 L 55.571257 130.946694 L 50.309298 128.276741 L 45.025787 125.271940 L 39.790818 121.903065 L 34.694716 118.145810 L 29.848808 113.984608 L 25.383511 109.417005 L 21.443128 104.458241 L 18.176408 99.145108 L 15.723418 93.537873 L 14.200106 87.719346 L 13.683343 81.790198 L 0.000000 81.790198 L 0.720243 90.054028 L 2.806610 98.023209 L 6.067495 105.477208 L 10.260391 112.296708 L 15.146566 118.445707 L 20.516952 123.939118 L 26.197976 128.817455 L 32.049859 133.131932 L 37.962580 136.936952 L 43.852087 140.286402 L 49.656328 143.231510 L 55.331613 145.819863 L 60.849002 148.094743 L 66.191170 150.095013 L 71.349665 151.855052 L 76.322578 153.405095 L 81.112827 154.771506 L 85.726587 155.977117 L 90.172310 157.041669 L 94.459755 157.982158 L 98.599542 158.813213 L 102.602712 159.547387 L 106.480267 160.195409 L 110.243179 160.766521 L 113.902136 161.268576 L 117.467457 161.708306 L 120.949162 162.091465 L 124.356888 162.422891 L 127.699808 162.706689 L 130.986866 162.946306 L 134.226636 163.144565 L 137.427460 163.303810 L 140.597381 163.425814 L 143.744279 163.512021 L 146.875949 163.563344 L 150.000000 163.580397 Z"/>
  </g>
</svg>
