<?xml version="1.0" encoding="UTF-8" standalone="no"?>
<svg
   width="273.465704" 
   height="300.000000"
   version="1.1"
   xmlns:svg="http://www.w3.org/2000/svg"
   xmlns="http://www.w3.org/2000/svg">
  <g id="layer000_datatype000">
    <path style="fill:#808080"
          d="M 56.859206 0.000000 L 56.859206 54.151625 L 2.707581 54.151625 L 2.707581 0.000000 Z"/>
    <path style="fill:#808080"
          d="M 0.000000 64.981949 L 0.000000 58.483755 L 2.166065 58.483755 L 2.166065 64.981949 L 0.000000 64.981949 Z"/>
    <path style="fill:#808080"
          d="M 2.166065 54.151625 L 2.166065 56.317690 L 0.000000 56.317690 L 0.000000 54.151625 L 2.166065 54.151625 Z"/>
    <path style="fill:#808080"
          d="M 8.664260 64.981949 L 8.664260 60.649819 L 7.581227 59.566787 L 6.498195 59.566787 L 5.415162 60.649819 L 5.415162 64.981949 L 3.249097 64.981949 L 3.249097 57.400722 L 5.415162 57.400722 L 5.415162 58.483755 L 6.498195 57.400722 L 8.664260 57.400722 L 10.830325 59.566787 L 10.830325 64.981949 L 8.664260 64.981949 Z"/>
    <path style="fill:#808080"
          d="M 17.328520 64.981949 L 15.162455 64.981949 L 14.079422 63.898917 L 14.079422 58.483755 L 11.913357 58.483755 L 11.913357 56.317690 L 14.079422 56.317690 L 14.079422 54.151625 L 16.245487 54.151625 L 16.245487 56.317690 L 18.411552 56.317690 L 18.411552 58.483755 L 16.245487 58.483755 L 16.245487 62.815884 L 17.328520 62.815884 L 17.328520 64.981949 Z"/>
    <path style="fill:#808080"
          d="M 24.909747 60.649819 L 24.909747 59.566787 L 22.743682 59.566787 L 21.660650 60.649819 L 21.660650 64.981949 L 19.494585 64.981949 L 19.494585 57.400722 L 21.660650 57.400722 L 21.660650 58.483755 L 22.743682 57.400722 L 25.992780 57.400722 L 27.075812 58.483755 L 27.075812 60.649819 L 24.909747 60.649819 Z"/>
    <path style="fill:#808080"
          d="M 28.158845 64.981949 L 28.158845 58.483755 L 30.324910 58.483755 L 30.324910 64.981949 L 28.158845 64.981949 Z"/>
    <path style="fill:#808080"
          d="M 30.324910 54.151625 L 30.324910 56.317690 L 28.158845 56.317690 L 28.158845 54.151625 L 30.324910 54.151625 Z"/>
    <path style="fill:#808080"
          d="M 36.823105 64.981949 L 36.823105 60.649819 L 35.740072 59.566787 L 34.657040 59.566787 L 33.574007 60.649819 L 33.574007 64.981949 L 31.407942 64.981949 L 31.407942 57.400722 L 33.574007 57.400722 L 33.574007 58.483755 L 34.657040 57.400722 L 36.823105 57.400722 L 38.989170 59.566787 L 38.989170 64.981949 L 36.823105 64.981949 Z"/>
    <path style="fill:#808080"
          d="M 41.155235 64.981949 L 40.072202 63.898917 L 40.072202 62.815884 L 45.487365 62.815884 L 45.487365 61.732852 L 41.155235 61.732852 L 40.072202 60.649819 L 40.072202 57.400722 L 41.155235 56.317690 L 46.570397 56.317690 L 47.653430 57.400722 L 47.653430 58.483755 L 42.238267 58.483755 L 42.238267 59.566787 L 46.570397 59.566787 L 47.653430 60.649819 L 47.653430 63.898917 L 46.570397 64.981949 L 41.155235 64.981949 Z"/>
    <path style="fill:#808080"
          d="M 48.736462 64.981949 L 48.736462 58.483755 L 50.902527 58.483755 L 50.902527 64.981949 L 48.736462 64.981949 Z"/>
    <path style="fill:#808080"
          d="M 50.902527 54.151625 L 50.902527 56.317690 L 48.736462 56.317690 L 48.736462 54.151625 L 50.902527 54.151625 Z"/>
    <path style="fill:#808080"
          d="M 59.566787 62.815884 L 57.400722 64.981949 L 54.151625 64.981949 L 51.985560 62.815884 L 51.985560 59.566787 L 54.151625 57.400722 L 57.400722 57.400722 L 59.566787 59.566787 L 59.566787 60.649819 L 57.400722 60.649819 L 56.317690 59.566787 L 55.234657 59.566787 L 54.151625 60.649819 L 54.151625 61.732852 L 55.234657 62.815884 L 56.317690 62.815884 L 57.400722 61.732852 L 59.566787 61.732852 L 59.566787 62.815884 Z"/>
    <path style="fill:#808080"
          d="M 15.703971 72.563177 L 14.620939 73.646209 L 14.620939 77.978339 L 15.703971 79.061372 L 15.162455 81.227437 L 14.620939 81.227437 L 12.454874 79.061372 L 12.454874 72.563177 L 14.620939 70.397112 L 17.111913 70.397112 L 16.570397 72.563177 L 15.703971 72.563177 Z"/>
    <path style="fill:#808080"
          d="M 17.870036 79.061372 L 18.953069 77.978339 L 18.953069 73.646209 L 17.870036 72.563177 L 18.411552 70.397112 L 18.953069 70.397112 L 21.119134 72.563177 L 21.119134 79.061372 L 18.953069 81.227437 L 16.462094 81.227437 L 17.003610 79.061372 L 17.870036 79.061372 Z"/>
    <path style="fill:#808080"
          d="M 31.949458 68.231047 L 29.783394 83.393502 L 27.617329 83.393502 L 29.783394 68.231047 L 31.949458 68.231047 Z"/>
    <path style="fill:#808080"
          d="M 41.696751 72.563177 L 40.613718 73.646209 L 40.613718 77.978339 L 41.696751 79.061372 L 41.155235 81.227437 L 40.613718 81.227437 L 38.447653 79.061372 L 38.447653 72.563177 L 40.613718 70.397112 L 43.104693 70.397112 L 42.563177 72.563177 L 41.696751 72.563177 Z"/>
    <path style="fill:#808080"
          d="M 43.862816 79.061372 L 44.945848 77.978339 L 44.945848 73.646209 L 43.862816 72.563177 L 44.404332 70.397112 L 44.945848 70.397112 L 47.111913 72.563177 L 47.111913 79.061372 L 44.945848 81.227437 L 42.454874 81.227437 L 42.996390 79.061372 L 43.862816 79.061372 Z"/>
  </g>
  <g id="layer001_datatype000">
    <path style="fill:#add8e6"
          d="M 165.162455 0.000000 L 165.162455 54.151625 L 111.010830 54.151625 L 111.010830 0.000000 Z"/>
    <path style="fill:#add8e6"
          d="M 134.296029 57.400722 L 139.711191 57.400722 L 141.877256 59.566787 L 141.877256 62.815884 L 139.711191 64.981949 L 136.462094 64.981949 L 136.462094 68.231047 L 134.296029 68.231047 L 134.296029 61.732852 L 136.462094 61.732852 L 136.462094 62.815884 L 138.628159 62.815884 L 139.711191 61.732852 L 139.711191 60.649819 L 138.628159 59.566787 L 136.462094 59.566787 L 136.462094 60.649819 L 134.296029 60.649819 L 134.296029 57.400722 Z"/>
    <path style="fill:#add8e6"
          d="M 124.007220 74.729242 L 122.924188 74.729242 L 122.924188 72.563177 L 125.090253 70.397112 L 126.173285 70.397112 L 126.173285 79.061372 L 127.256318 79.061372 L 127.256318 81.227437 L 122.924188 81.227437 L 122.924188 79.061372 L 124.007220 79.061372 L 124.007220 74.729242 L 124.007220 74.729242 Z"/>
    <path style="fill:#add8e6"
          d="M 138.086643 68.231047 L 135.920578 83.393502 L 133.754513 83.393502 L 135.920578 68.231047 L 138.086643 68.231047 Z"/>
    <path style="fill:#add8e6"
          d="M 147.833935 72.563177 L 146.750903 73.646209 L 146.750903 77.978339 L 147.833935 79.061372 L 147.292419 81.227437 L 146.750903 81.227437 L 144.584838 79.061372 L 144.584838 72.563177 L 146.750903 70.397112 L 149.241877 70.397112 L 148.700361 72.563177 L 147.833935 72.563177 Z"/>
    <path style="fill:#add8e6"
          d="M 150.000000 79.061372 L 151.083032 77.978339 L 151.083032 73.646209 L 150.000000 72.563177 L 150.541516 70.397112 L 151.083032 70.397112 L 153.249097 72.563177 L 153.249097 79.061372 L 151.083032 81.227437 L 148.592058 81.227437 L 149.133574 79.061372 L 150.000000 79.061372 Z"/>
  </g>
  <g id="layer002_datatype000">
    <path style="fill:#0000ff"
          d="M 273.465704 0.000000 L 273.465704 54.151625 L 219.314079 54.151625 L 219.314079 0.000000 Z"/>
    <path style="fill:#0000ff"
          d="M 237.725632 57.400722 L 243.140794 57.400722 L 245.306859 59.566787 L 245.306859 62.815884 L 243.140794 64.981949 L 239.891697 64.981949 L 239.891697 68.231047 L 237.725632 68.231047 L 237.725632 61.732852 L 239.891697 61.732852 L 239.891697 62.815884 L 242.057762 62.815884 L 243.140794 61.732852 L 243.140794 60.649819 L 242.057762 59.566787 L 239.891697 59.566787 L 239.891697 60.649819 L 237.725632 60.649819 L 237.725632 57.400722 Z"/>
    <path style="fill:#0000ff"
          d="M 249.638989 58.483755 L 249.638989 55.234657 L 251.805054 55.234657 L 251.805054 58.483755 L 255.054152 58.483755 L 255.054152 60.649819 L 251.805054 60.649819 L 251.805054 63.898917 L 249.638989 63.898917 L 249.638989 60.649819 L 246.389892 60.649819 L 246.389892 58.483755 L 249.638989 58.483755 Z"/>
    <path style="fill:#0000ff"
          d="M 229.602888 71.480144 L 230.685921 70.397112 L 236.101083 70.397112 L 237.184116 71.480144 L 237.184116 74.729242 L 232.851986 79.061372 L 237.184116 79.061372 L 237.184116 81.227437 L 229.602888 81.227437 L 229.602888 79.061372 L 235.018051 73.646209 L 235.018051 72.563177 L 231.768953 72.563177 L 231.768953 73.646209 L 229.602888 73.646209 L 229.602888 71.480144 Z"/>
    <path style="fill:#0000ff"
          d="M 248.014440 68.231047 L 245.848375 83.393502 L 243.682310 83.393502 L 245.848375 68.231047 L 248.014440 68.231047 Z"/>
    <path style="fill:#0000ff"
          d="M 257.761733 72.563177 L 256.678700 73.646209 L 256.678700 77.978339 L 257.761733 79.061372 L 257.220217 81.227437 L 256.678700 81.227437 L 254.512635 79.061372 L 254.512635 72.563177 L 256.678700 70.397112 L 259.169675 70.397112 L 258.628159 72.563177 L 257.761733 72.563177 Z"/>
    <path style="fill:#0000ff"
          d="M 259.927798 79.061372 L 261.010830 77.978339 L 261.010830 73.646209 L 259.927798 72.563177 L 260.469314 70.397112 L 261.010830 70.397112 L 263.176895 72.563177 L 263.176895 79.061372 L 261.010830 81.227437 L 258.519856 81.227437 L 259.061372 79.061372 L 259.927798 79.061372 Z"/>
  </g>
  <g id="layer003_datatype000">
    <path style="fill:#00008b"
          d="M 56.859206 108.303249 L 56.859206 162.454874 L 2.707581 162.454874 L 2.707581 108.303249 Z"/>
    <path style="fill:#00008b"
          d="M 16.245487 165.703971 L 21.660650 165.703971 L 23.826715 167.870036 L 23.826715 171.119134 L 21.660650 173.285199 L 18.411552 173.285199 L 18.411552 176.534296 L 16.245487 176.534296 L 16.245487 170.036101 L 18.411552 170.036101 L 18.411552 171.119134 L 20.577617 171.119134 L 21.660650 170.036101 L 21.660650 168.953069 L 20.577617 167.870036 L 18.411552 167.870036 L 18.411552 168.953069 L 16.245487 168.953069 L 16.245487 165.703971 Z"/>
    <path style="fill:#00008b"
          d="M 28.158845 166.787004 L 28.158845 163.537906 L 30.324910 163.537906 L 30.324910 166.787004 L 33.574007 166.787004 L 33.574007 168.953069 L 30.324910 168.953069 L 30.324910 172.202166 L 28.158845 172.202166 L 28.158845 168.953069 L 24.909747 168.953069 L 24.909747 166.787004 L 28.158845 166.787004 Z"/>
    <path style="fill:#00008b"
          d="M 37.906137 166.787004 L 37.906137 163.537906 L 40.072202 163.537906 L 40.072202 166.787004 L 43.321300 166.787004 L 43.321300 168.953069 L 40.072202 168.953069 L 40.072202 172.202166 L 37.906137 172.202166 L 37.906137 168.953069 L 34.657040 168.953069 L 34.657040 166.787004 L 37.906137 166.787004 Z"/>
    <path style="fill:#00008b"
          d="M 18.411552 178.700361 L 20.577617 180.866426 L 20.577617 183.032491 L 19.494585 184.115523 L 20.577617 185.198556 L 20.577617 187.364621 L 18.411552 189.530686 L 15.162455 189.530686 L 12.996390 187.364621 L 12.996390 186.281588 L 15.162455 186.281588 L 16.245487 187.364621 L 17.328520 187.364621 L 18.411552 186.281588 L 17.328520 185.198556 L 17.328520 183.032491 L 18.411552 181.949458 L 17.328520 180.866426 L 16.245487 180.866426 L 15.162455 181.949458 L 12.996390 181.949458 L 12.996390 180.866426 L 15.162455 178.700361 L 18.411552 178.700361 Z"/>
    <path style="fill:#00008b"
          d="M 31.407942 176.534296 L 29.241877 191.696751 L 27.075812 191.696751 L 29.241877 176.534296 L 31.407942 176.534296 Z"/>
    <path style="fill:#00008b"
          d="M 41.155235 180.866426 L 40.072202 181.949458 L 40.072202 186.281588 L 41.155235 187.364621 L 40.613718 189.530686 L 40.072202 189.530686 L 37.906137 187.364621 L 37.906137 180.866426 L 40.072202 178.700361 L 42.563177 178.700361 L 42.021661 180.866426 L 41.155235 180.866426 Z"/>
    <path style="fill:#00008b"
          d="M 43.321300 187.364621 L 44.404332 186.281588 L 44.404332 181.949458 L 43.321300 180.866426 L 43.862816 178.700361 L 44.404332 178.700361 L 46.570397 180.866426 L 46.570397 187.364621 L 44.404332 189.530686 L 41.913357 189.530686 L 42.454874 187.364621 L 43.321300 187.364621 Z"/>
  </g>
  <g id="layer004_datatype000">
    <path style="fill:#008000"
          d="M 165.162455 108.303249 L 165.162455 162.454874 L 111.010830 162.454874 L 111.010830 108.303249 Z"/>
    <path style="fill:#008000"
          d="M 139.711191 173.285199 L 139.711191 168.953069 L 138.628159 167.870036 L 137.545126 167.870036 L 136.462094 168.953069 L 136.462094 173.285199 L 134.296029 173.285199 L 134.296029 165.703971 L 136.462094 165.703971 L 136.462094 166.787004 L 137.545126 165.703971 L 139.711191 165.703971 L 141.877256 167.870036 L 141.877256 173.285199 L 139.711191 173.285199 Z"/>
    <path style="fill:#008000"
          d="M 128.880866 184.115523 L 128.880866 186.281588 L 127.797834 186.281588 L 127.797834 189.530686 L 125.631769 189.530686 L 125.631769 186.281588 L 121.299639 186.281588 L 121.299639 178.700361 L 123.465704 178.700361 L 123.465704 184.115523 L 125.631769 184.115523 L 125.631769 178.700361 L 127.797834 178.700361 L 127.797834 184.115523 L 128.880866 184.115523 Z"/>
    <path style="fill:#008000"
          d="M 139.711191 176.534296 L 137.545126 191.696751 L 135.379061 191.696751 L 137.545126 176.534296 L 139.711191 176.534296 Z"/>
    <path style="fill:#008000"
          d="M 149.458484 180.866426 L 148.375451 181.949458 L 148.375451 186.281588 L 149.458484 187.364621 L 148.916968 189.530686 L 148.375451 189.530686 L 146.209386 187.364621 L 146.209386 180.866426 L 148.375451 178.700361 L 150.866426 178.700361 L 150.324910 180.866426 L 149.458484 180.866426 Z"/>
    <path style="fill:#008000"
          d="M 151.624549 187.364621 L 152.707581 186.281588 L 152.707581 181.949458 L 151.624549 180.866426 L 152.166065 178.700361 L 152.707581 178.700361 L 154.873646 180.866426 L 154.873646 187.364621 L 152.707581 189.530686 L 150.216606 189.530686 L 150.758123 187.364621 L 151.624549 187.364621 Z"/>
    <path style="fill:#008000"
          d="M 273.465704 108.303249 L 273.465704 162.454874 L 219.314079 162.454874 L 219.314079 108.303249 Z"/>
    <path style="fill:#008000"
          d="M 243.140794 173.285199 L 243.140794 168.953069 L 242.057762 167.870036 L 240.974729 167.870036 L 239.891697 168.953069 L 239.891697 173.285199 L 237.725632 173.285199 L 237.725632 165.703971 L 239.891697 165.703971 L 239.891697 166.787004 L 240.974729 165.703971 L 243.140794 165.703971 L 245.306859 167.870036 L 245.306859 173.285199 L 243.140794 173.285199 Z"/>
    <path style="fill:#008000"
          d="M 249.638989 166.787004 L 249.638989 163.537906 L 251.805054 163.537906 L 251.805054 166.787004 L 255.054152 166.787004 L 255.054152 168.953069 L 251.805054 168.953069 L 251.805054 172.202166 L 249.638989 172.202166 L 249.638989 168.953069 L 246.389892 168.953069 L 246.389892 166.787004 L 249.638989 166.787004 Z"/>
    <path style="fill:#008000"
          d="M 237.184116 184.115523 L 237.184116 186.281588 L 236.101083 186.281588 L 236.101083 189.530686 L 233.935018 189.530686 L 233.935018 186.281588 L 229.602888 186.281588 L 229.602888 178.700361 L 231.768953 178.700361 L 231.768953 184.115523 L 233.935018 184.115523 L 233.935018 178.700361 L 236.101083 178.700361 L 236.101083 184.115523 L 237.184116 184.115523 Z"/>
    <path style="fill:#008000"
          d="M 248.014440 176.534296 L 245.848375 191.696751 L 243.682310 191.696751 L 245.848375 176.534296 L 248.014440 176.534296 Z"/>
    <path style="fill:#008000"
          d="M 257.761733 180.866426 L 256.678700 181.949458 L 256.678700 186.281588 L 257.761733 187.364621 L 257.220217 189.530686 L 256.678700 189.530686 L 254.512635 187.364621 L 254.512635 180.866426 L 256.678700 178.700361 L 259.169675 178.700361 L 258.628159 180.866426 L 257.761733 180.866426 Z"/>
    <path style="fill:#008000"
          d="M 259.927798 187.364621 L 261.010830 186.281588 L 261.010830 181.949458 L 259.927798 180.866426 L 260.469314 178.700361 L 261.010830 178.700361 L 263.176895 180.866426 L 263.176895 187.364621 L 261.010830 189.530686 L 258.519856 189.530686 L 259.061372 187.364621 L 259.927798 187.364621 Z"/>
  </g>
  <g id="layer005_datatype000">
    <path style="fill:#006400"
          d="M 56.859206 216.606498 L 56.859206 270.758123 L 2.707581 270.758123 L 2.707581 216.606498 Z"/>
    <path style="fill:#006400"
          d="M 21.660650 281.588448 L 21.660650 277.256318 L 20.577617 276.173285 L 19.494585 276.173285 L 18.411552 277.256318 L 18.411552 281.588448 L 16.245487 281.588448 L 16.245487 274.007220 L 18.411552 274.007220 L 18.411552 275.090253 L 19.494585 274.007220 L 21.660650 274.007220 L 23.826715 276.173285 L 23.826715 281.588448 L 21.660650 281.588448 Z"/>
    <path style="fill:#006400"
          d="M 28.158845 275.090253 L 28.158845 271.841155 L 30.324910 271.841155 L 30.324910 275.090253 L 33.574007 275.090253 L 33.574007 277.256318 L 30.324910 277.256318 L 30.324910 280.505415 L 28.158845 280.505415 L 28.158845 277.256318 L 24.909747 277.256318 L 24.909747 275.090253 L 28.158845 275.090253 Z"/>
    <path style="fill:#006400"
          d="M 37.906137 275.090253 L 37.906137 271.841155 L 40.072202 271.841155 L 40.072202 275.090253 L 43.321300 275.090253 L 43.321300 277.256318 L 40.072202 277.256318 L 40.072202 280.505415 L 37.906137 280.505415 L 37.906137 277.256318 L 34.657040 277.256318 L 34.657040 275.090253 L 37.906137 275.090253 Z"/>
    <path style="fill:#006400"
          d="M 20.577617 289.169675 L 15.162455 289.169675 L 15.162455 291.335740 L 19.494585 291.335740 L 20.577617 292.418773 L 20.577617 296.750903 L 19.494585 297.833935 L 14.079422 297.833935 L 12.996390 296.750903 L 12.996390 294.584838 L 15.162455 294.584838 L 15.162455 295.667870 L 18.411552 295.667870 L 18.411552 293.501805 L 14.079422 293.501805 L 12.996390 292.418773 L 12.996390 287.003610 L 20.577617 287.003610 L 20.577617 289.169675 Z"/>
    <path style="fill:#006400"
          d="M 31.407942 284.837545 L 29.241877 300.000000 L 27.075812 300.000000 L 29.241877 284.837545 L 31.407942 284.837545 Z"/>
    <path style="fill:#006400"
          d="M 41.155235 289.169675 L 40.072202 290.252708 L 40.072202 294.584838 L 41.155235 295.667870 L 40.613718 297.833935 L 40.072202 297.833935 L 37.906137 295.667870 L 37.906137 289.169675 L 40.072202 287.003610 L 42.563177 287.003610 L 42.021661 289.169675 L 41.155235 289.169675 Z"/>
    <path style="fill:#006400"
          d="M 43.321300 295.667870 L 44.404332 294.584838 L 44.404332 290.252708 L 43.321300 289.169675 L 43.862816 287.003610 L 44.404332 287.003610 L 46.570397 289.169675 L 46.570397 295.667870 L 44.404332 297.833935 L 41.913357 297.833935 L 42.454874 295.667870 L 43.321300 295.667870 Z"/>
  </g>
</svg>
