<?xml version="1.0" encoding="UTF-8" standalone="no"?>
<svg
   width="300.000000" 
   height="300.000000"
   version="1.1"
   xmlns:svg="http://www.w3.org/2000/svg"
   xmlns="http://www.w3.org/2000/svg">
  <g id="layer000_datatype000">
    <path style="fill:#3dcc5c"
          d="M 292.682927 150.000000 L 292.547124 143.776258 L 292.139975 137.564364 L 291.462255 131.376141 L 290.515253 125.223370 L 289.300772 119.117762 L 287.821124 113.070941 L 286.079126 107.094416 L 284.078093 101.199565 L 281.821836 95.397608 L 279.314648 89.699589 L 276.561302 84.116356 L 273.567039 78.658537 L 270.337560 73.336519 L 266.879011 68.160435 L 263.197977 63.140138 L 259.301463 58.285183 L 255.196888 53.604812 L 250.892065 49.107935 L 246.395188 44.803112 L 241.714817 40.698537 L 236.859862 36.802023 L 231.839565 33.120989 L 226.663481 29.662440 L 221.341463 26.432961 L 215.883644 23.438698 L 210.300411 20.685352 L 204.602392 18.178164 L 198.800435 15.921907 L 192.905584 13.920874 L 186.929059 12.178876 L 180.882238 10.699228 L 174.776630 9.484747 L 168.623859 8.537745 L 162.435636 7.860025 L 156.223742 7.452876 L 150.000000 7.317073 L 143.776258 7.452876 L 137.564364 7.860025 L 131.376141 8.537745 L 125.223370 9.484747 L 119.117762 10.699228 L 113.070941 12.178876 L 107.094416 13.920874 L 101.199565 15.921907 L 95.397608 18.178164 L 89.699589 20.685352 L 84.116356 23.438698 L 78.658537 26.432961 L 73.336519 29.662440 L 68.160435 33.120989 L 63.140138 36.802023 L 58.285183 40.698537 L 53.604812 44.803112 L 49.107935 49.107935 L 44.803112 53.604812 L 40.698537 58.285183 L 36.802023 63.140138 L 33.120989 68.160435 L 29.662440 73.336519 L 26.432961 78.658537 L 23.438698 84.116356 L 20.685352 89.699589 L 18.178164 95.397608 L 15.921907 101.199565 L 13.920874 107.094416 L 12.178876 113.070941 L 10.699228 119.117762 L 9.484747 125.223370 L 8.537745 131.376141 L 7.860025 137.564364 L 7.452876 143.776258 L 7.317073 150.000000 L 7.452876 156.223742 L 7.860025 162.435636 L 8.537745 168.623859 L 9.484747 174.776630 L 10.699228 180.882238 L 12.178876 186.929059 L 13.920874 192.905584 L 15.921907 198.800435 L 18.178164 204.602392 L 20.685352 210.300411 L 23.438698 215.883644 L 26.432961 221.341463 L 29.662440 226.663481 L 33.120989 231.839565 L 36.802023 236.859862 L 40.698537 241.714817 L 44.803112 246.395188 L 49.107935 250.892065 L 53.604812 255.196888 L 58.285183 259.301463 L 63.140138 263.197977 L 68.160435 266.879011 L 73.336519 270.337560 L 78.658537 273.567039 L 84.116356 276.561302 L 89.699589 279.314648 L 95.397608 281.821836 L 101.199565 284.078093 L 107.094416 286.079126 L 113.070941 287.821124 L 119.117762 289.300772 L 125.223370 290.515253 L 131.376141 291.462255 L 137.564364 292.139975 L 143.776258 292.547124 L 150.000000 292.682927 L 156.223742 292.547124 L 162.435636 292.139975 L 168.623859 291.462255 L 174.776630 290.515253 L 180.882238 289.300772 L 186.929059 287.821124 L 192.905584 286.079126 L 198.800435 284.078093 L 204.602392 281.821836 L 210.300411 279.314648 L 215.883644 276.561302 L 221.341463 273.567039 L 226.663481 270.337560 L 231.839565 266.879011 L 236.859862 263.197977 L 241.714817 259.301463 L 246.395188 255.196888 L 250.892065 250.892065 L 255.196888 246.395188 L 259.301463 241.714817 L 263.197977 236.859862 L 266.879011 231.839565 L 270.337560 226.663481 L 273.567039 221.341463 L 276.561302 215.883644 L 279.314648 210.300411 L 281.821836 204.602392 L 284.078093 198.800435 L 286.079126 192.905584 L 287.821124 186.929059 L 289.300772 180.882238 L 290.515253 174.776630 L 291.462255 168.623859 L 292.139975 162.435636 L 292.547124 156.223742 L 292.682927 150.000000 L 300.000000 150.000000 L 299.857233 156.542908 L 299.429205 163.073361 L 298.716729 169.578929 L 297.721163 176.047227 L 296.444401 182.465942 L 294.888874 188.822857 L 293.057543 195.105870 L 290.953893 201.303021 L 288.581930 207.402515 L 285.946168 213.392739 L 283.051625 219.262292 L 279.903811 225.000000 L 276.508717 230.594941 L 272.872807 236.036465 L 269.003001 241.314214 L 264.906666 246.418141 L 260.591601 251.338531 L 256.066017 256.066017 L 251.338531 260.591601 L 246.418141 264.906666 L 241.314214 269.003001 L 236.036465 272.872807 L 230.594941 276.508717 L 225.000000 279.903811 L 219.262292 283.051625 L 213.392739 285.946168 L 207.402515 288.581930 L 201.303021 290.953893 L 195.105870 293.057543 L 188.822857 294.888874 L 182.465942 296.444401 L 176.047227 297.721163 L 169.578929 298.716729 L 163.073361 299.429205 L 156.542908 299.857233 L 150.000000 300.000000 L 143.457092 299.857233 L 136.926639 299.429205 L 130.421071 298.716729 L 123.952773 297.721163 L 117.534058 296.444401 L 111.177143 294.888874 L 104.894130 293.057543 L 98.696979 290.953893 L 92.597485 288.581930 L 86.607261 285.946168 L 80.737708 283.051625 L 75.000000 279.903811 L 69.405059 276.508717 L 63.963535 272.872807 L 58.685786 269.003001 L 53.581859 264.906666 L 48.661469 260.591601 L 43.933983 256.066017 L 39.408399 251.338531 L 35.093334 246.418141 L 30.996999 241.314214 L 27.127193 236.036465 L 23.491283 230.594941 L 20.096189 225.000000 L 16.948375 219.262292 L 14.053832 213.392739 L 11.418070 207.402515 L 9.046107 201.303021 L 6.942457 195.105870 L 5.111126 188.822857 L 3.555599 182.465942 L 2.278837 176.047227 L 1.283271 169.578929 L 0.570795 163.073361 L 0.142767 156.542908 L 0.000000 150.000000 L 0.142767 143.457092 L 0.570795 136.926639 L 1.283271 130.421071 L 2.278837 123.952773 L 3.555599 117.534058 L 5.111126 111.177143 L 6.942457 104.894130 L 9.046107 98.696979 L 11.418070 92.597485 L 14.053832 86.607261 L 16.948375 80.737708 L 20.096189 75.000000 L 23.491283 69.405059 L 27.127193 63.963535 L 30.996999 58.685786 L 35.093334 53.581859 L 39.408399 48.661469 L 43.933983 43.933983 L 48.661469 39.408399 L 53.581859 35.093334 L 58.685786 30.996999 L 63.963535 27.127193 L 69.405059 23.491283 L 75.000000 20.096189 L 80.737708 16.948375 L 86.607261 14.053832 L 92.597485 11.418070 L 98.696979 9.046107 L 104.894130 6.942457 L 111.177143 5.111126 L 117.534058 3.555599 L 123.952773 2.278837 L 130.421071 1.283271 L 136.926639 0.570795 L 143.457092 0.142767 L 150.000000 0.000000 L 156.542908 0.142767 L 163.073361 0.570795 L 169.578929 1.283271 L 176.047227 2.278837 L 182.465942 3.555599 L 188.822857 5.111126 L 195.105870 6.942457 L 201.303021 9.046107 L 207.402515 11.418070 L 213.392739 14.053832 L 219.262292 16.948375 L 225.000000 20.096189 L 230.594941 23.491283 L 236.036465 27.127193 L 241.314214 30.996999 L 246.418141 35.093334 L 251.338531 39.408399 L 256.066017 43.933983 L 260.591601 48.661469 L 264.906666 53.581859 L 269.003001 58.685786 L 272.872807 63.963535 L 276.508717 69.405059 L 279.903811 75.000000 L 283.051625 80.737708 L 285.946168 86.607261 L 288.581930 92.597485 L 290.953893 98.696979 L 293.057543 104.894130 L 294.888874 111.177143 L 296.444401 117.534058 L 297.721163 123.952773 L 298.716729 130.421071 L 299.429205 136.926639 L 299.857233 143.457092 L 300.000000 150.000000 Z"/>
  </g>
</svg>
