<?xml version="1.0" encoding="UTF-8" standalone="no"?>
<svg
   width="300.000000" 
   height="258.000000"
   version="1.1"
   xmlns:svg="http://www.w3.org/2000/svg"
   xmlns="http://www.w3.org/2000/svg">
  <g id="layer000_datatype000">
    <path style="fill:#808080"
          d="M 150.000000 0.000000 L 150.000000 6.000000 L 0.000000 6.000000 L 0.000000 0.000000 Z"/>
    <path style="fill:#808080"
          d="M 255.531211 17.998626 L 256.581195 17.992868 L 257.631168 17.985290 L 258.681120 17.975314 L 259.731038 17.962182 L 260.780894 17.944895 L 261.830646 17.922141 L 262.880217 17.892189 L 263.929472 17.852768 L 264.978182 17.800887 L 266.025949 17.732622 L 267.072083 17.642828 L 268.115394 17.524780 L 269.153838 17.369738 L 270.183909 17.166450 L 271.199654 16.900669 L 272.191096 16.554905 L 273.141902 16.108875 L 274.026331 15.541600 L 274.806329 14.836537 L 275.431278 13.990682 L 275.844690 13.025188 L 276.000000 12.000000 L 300.000000 12.000000 L 300.000000 24.000000 L 255.531211 24.000000 L 150.000000 24.000000 L 150.000000 18.000000 L 255.531211 17.998626 Z"/>
    <path style="fill:#808080"
          d="M 255.531211 6.001374 L 256.581195 6.007132 L 257.631168 6.014710 L 258.681120 6.024686 L 259.731038 6.037818 L 260.780894 6.055105 L 261.830646 6.077859 L 262.880217 6.107811 L 263.929472 6.147232 L 264.978182 6.199113 L 266.025949 6.267378 L 267.072083 6.357172 L 268.115394 6.475220 L 269.153838 6.630262 L 270.183909 6.833550 L 271.199654 7.099331 L 272.191096 7.445095 L 273.141902 7.891125 L 274.026331 8.458400 L 274.806329 9.163463 L 275.431278 10.009318 L 275.844690 10.974812 L 276.000000 12.000000 L 300.000000 12.000000 L 300.000000 0.000000 L 255.531211 0.000000 L 150.000000 0.000000 L 150.000000 6.000000 L 255.531211 6.001374 Z"/>
    <path style="fill:#808080"
          d="M 44.468789 24.001374 L 43.418805 24.007132 L 42.368832 24.014710 L 41.318880 24.024686 L 40.268962 24.037818 L 39.219106 24.055105 L 38.169354 24.077859 L 37.119783 24.107811 L 36.070528 24.147232 L 35.021818 24.199113 L 33.974051 24.267378 L 32.927917 24.357172 L 31.884606 24.475220 L 30.846162 24.630262 L 29.816091 24.833550 L 28.800346 25.099331 L 27.808904 25.445095 L 26.858098 25.891125 L 25.973669 26.458400 L 25.193671 27.163463 L 24.568722 28.009318 L 24.155310 28.974812 L 24.000000 30.000000 L -0.000000 30.000000 L -0.000000 18.000000 L 44.468789 18.000000 L 150.000000 18.000000 L 150.000000 24.000000 L 44.468789 24.001374 Z"/>
    <path style="fill:#808080"
          d="M 44.468789 35.998626 L 43.418805 35.992868 L 42.368832 35.985290 L 41.318880 35.975314 L 40.268962 35.962182 L 39.219106 35.944895 L 38.169354 35.922141 L 37.119783 35.892189 L 36.070528 35.852768 L 35.021818 35.800887 L 33.974051 35.732622 L 32.927917 35.642828 L 31.884606 35.524780 L 30.846162 35.369738 L 29.816091 35.166450 L 28.800346 34.900669 L 27.808904 34.554905 L 26.858098 34.108875 L 25.973669 33.541600 L 25.193671 32.836537 L 24.568722 31.990682 L 24.155310 31.025188 L 24.000000 30.000000 L -0.000000 30.000000 L -0.000000 42.000000 L 44.468789 42.000000 L 150.000000 42.000000 L 150.000000 36.000000 L 44.468789 35.998626 Z"/>
    <path style="fill:#808080"
          d="M 255.531211 53.998626 L 256.581195 53.992868 L 257.631168 53.985290 L 258.681120 53.975314 L 259.731038 53.962182 L 260.780894 53.944895 L 261.830646 53.922141 L 262.880217 53.892189 L 263.929472 53.852768 L 264.978182 53.800887 L 266.025949 53.732622 L 267.072083 53.642828 L 268.115394 53.524780 L 269.153838 53.369738 L 270.183909 53.166450 L 271.199654 52.900669 L 272.191096 52.554905 L 273.141902 52.108875 L 274.026331 51.541600 L 274.806329 50.836537 L 275.431278 49.990682 L 275.844690 49.025188 L 276.000000 48.000000 L 300.000000 48.000000 L 300.000000 60.000000 L 255.531211 60.000000 L 150.000000 60.000000 L 150.000000 54.000000 L 255.531211 53.998626 Z"/>
    <path style="fill:#808080"
          d="M 255.531211 42.001374 L 256.581195 42.007132 L 257.631168 42.014710 L 258.681120 42.024686 L 259.731038 42.037818 L 260.780894 42.055105 L 261.830646 42.077859 L 262.880217 42.107811 L 263.929472 42.147232 L 264.978182 42.199113 L 266.025949 42.267378 L 267.072083 42.357172 L 268.115394 42.475220 L 269.153838 42.630262 L 270.183909 42.833550 L 271.199654 43.099331 L 272.191096 43.445095 L 273.141902 43.891125 L 274.026331 44.458400 L 274.806329 45.163463 L 275.431278 46.009318 L 275.844690 46.974812 L 276.000000 48.000000 L 300.000000 48.000000 L 300.000000 36.000000 L 255.531211 36.000000 L 150.000000 36.000000 L 150.000000 42.000000 L 255.531211 42.001374 Z"/>
    <path style="fill:#808080"
          d="M 44.468789 60.001374 L 43.418805 60.007132 L 42.368832 60.014710 L 41.318880 60.024686 L 40.268962 60.037818 L 39.219106 60.055105 L 38.169354 60.077859 L 37.119783 60.107811 L 36.070528 60.147232 L 35.021818 60.199113 L 33.974051 60.267378 L 32.927917 60.357172 L 31.884606 60.475220 L 30.846162 60.630262 L 29.816091 60.833550 L 28.800346 61.099331 L 27.808904 61.445095 L 26.858098 61.891125 L 25.973669 62.458400 L 25.193671 63.163463 L 24.568722 64.009318 L 24.155310 64.974812 L 24.000000 66.000000 L -0.000000 66.000000 L -0.000000 54.000000 L 44.468789 54.000000 L 150.000000 54.000000 L 150.000000 60.000000 L 44.468789 60.001374 Z"/>
    <path style="fill:#808080"
          d="M 44.468789 71.998626 L 43.418805 71.992868 L 42.368832 71.985290 L 41.318880 71.975314 L 40.268962 71.962182 L 39.219106 71.944895 L 38.169354 71.922141 L 37.119783 71.892189 L 36.070528 71.852768 L 35.021818 71.800887 L 33.974051 71.732622 L 32.927917 71.642828 L 31.884606 71.524780 L 30.846162 71.369738 L 29.816091 71.166450 L 28.800346 70.900669 L 27.808904 70.554905 L 26.858098 70.108875 L 25.973669 69.541600 L 25.193671 68.836537 L 24.568722 67.990682 L 24.155310 67.025188 L 24.000000 66.000000 L -0.000000 66.000000 L -0.000000 78.000000 L 44.468789 78.000000 L 150.000000 78.000000 L 150.000000 72.000000 L 44.468789 71.998626 Z"/>
    <path style="fill:#808080"
          d="M 255.531211 89.998626 L 256.581195 89.992868 L 257.631168 89.985290 L 258.681120 89.975314 L 259.731038 89.962182 L 260.780894 89.944895 L 261.830646 89.922141 L 262.880217 89.892189 L 263.929472 89.852768 L 264.978182 89.800887 L 266.025949 89.732622 L 267.072083 89.642828 L 268.115394 89.524780 L 269.153838 89.369738 L 270.183909 89.166450 L 271.199654 88.900669 L 272.191096 88.554905 L 273.141902 88.108875 L 274.026331 87.541600 L 274.806329 86.836537 L 275.431278 85.990682 L 275.844690 85.025188 L 276.000000 84.000000 L 300.000000 84.000000 L 300.000000 96.000000 L 255.531211 96.000000 L 150.000000 96.000000 L 150.000000 90.000000 L 255.531211 89.998626 Z"/>
    <path style="fill:#808080"
          d="M 255.531211 78.001374 L 256.581195 78.007132 L 257.631168 78.014710 L 258.681120 78.024686 L 259.731038 78.037818 L 260.780894 78.055105 L 261.830646 78.077859 L 262.880217 78.107811 L 263.929472 78.147232 L 264.978182 78.199113 L 266.025949 78.267378 L 267.072083 78.357172 L 268.115394 78.475220 L 269.153838 78.630262 L 270.183909 78.833550 L 271.199654 79.099331 L 272.191096 79.445095 L 273.141902 79.891125 L 274.026331 80.458400 L 274.806329 81.163463 L 275.431278 82.009318 L 275.844690 82.974812 L 276.000000 84.000000 L 300.000000 84.000000 L 300.000000 72.000000 L 255.531211 72.000000 L 150.000000 72.000000 L 150.000000 78.000000 L 255.531211 78.001374 Z"/>
    <path style="fill:#808080"
          d="M 44.468789 96.001374 L 43.418805 96.007132 L 42.368832 96.014710 L 41.318880 96.024686 L 40.268962 96.037818 L 39.219106 96.055105 L 38.169354 96.077859 L 37.119783 96.107811 L 36.070528 96.147232 L 35.021818 96.199113 L 33.974051 96.267378 L 32.927917 96.357172 L 31.884606 96.475220 L 30.846162 96.630262 L 29.816091 96.833550 L 28.800346 97.099331 L 27.808904 97.445095 L 26.858098 97.891125 L 25.973669 98.458400 L 25.193671 99.163463 L 24.568722 100.009318 L 24.155310 100.974812 L 24.000000 102.000000 L -0.000000 102.000000 L -0.000000 90.000000 L 44.468789 90.000000 L 150.000000 90.000000 L 150.000000 96.000000 L 44.468789 96.001374 Z"/>
    <path style="fill:#808080"
          d="M 44.468789 107.998626 L 43.418805 107.992868 L 42.368832 107.985290 L 41.318880 107.975314 L 40.268962 107.962182 L 39.219106 107.944895 L 38.169354 107.922141 L 37.119783 107.892189 L 36.070528 107.852768 L 35.021818 107.800887 L 33.974051 107.732622 L 32.927917 107.642828 L 31.884606 107.524780 L 30.846162 107.369738 L 29.816091 107.166450 L 28.800346 106.900669 L 27.808904 106.554905 L 26.858098 106.108875 L 25.973669 105.541600 L 25.193671 104.836537 L 24.568722 103.990682 L 24.155310 103.025188 L 24.000000 102.000000 L -0.000000 102.000000 L -0.000000 114.000000 L 44.468789 114.000000 L 150.000000 114.000000 L 150.000000 108.000000 L 44.468789 107.998626 Z"/>
    <path style="fill:#808080"
          d="M 255.531211 125.998626 L 256.581195 125.992868 L 257.631168 125.985290 L 258.681120 125.975314 L 259.731038 125.962182 L 260.780894 125.944895 L 261.830646 125.922141 L 262.880217 125.892189 L 263.929472 125.852768 L 264.978182 125.800887 L 266.025949 125.732622 L 267.072083 125.642828 L 268.115394 125.524780 L 269.153838 125.369738 L 270.183909 125.166450 L 271.199654 124.900669 L 272.191096 124.554905 L 273.141902 124.108875 L 274.026331 123.541600 L 274.806329 122.836537 L 275.431278 121.990682 L 275.844690 121.025188 L 276.000000 120.000000 L 300.000000 120.000000 L 300.000000 132.000000 L 255.531211 132.000000 L 150.000000 132.000000 L 150.000000 126.000000 L 255.531211 125.998626 Z"/>
    <path style="fill:#808080"
          d="M 255.531211 114.001374 L 256.581195 114.007132 L 257.631168 114.014710 L 258.681120 114.024686 L 259.731038 114.037818 L 260.780894 114.055105 L 261.830646 114.077859 L 262.880217 114.107811 L 263.929472 114.147232 L 264.978182 114.199113 L 266.025949 114.267378 L 267.072083 114.357172 L 268.115394 114.475220 L 269.153838 114.630262 L 270.183909 114.833550 L 271.199654 115.099331 L 272.191096 115.445095 L 273.141902 115.891125 L 274.026331 116.458400 L 274.806329 117.163463 L 275.431278 118.009318 L 275.844690 118.974812 L 276.000000 120.000000 L 300.000000 120.000000 L 300.000000 108.000000 L 255.531211 108.000000 L 150.000000 108.000000 L 150.000000 114.000000 L 255.531211 114.001374 Z"/>
    <path style="fill:#808080"
          d="M 44.468789 132.001374 L 43.418805 132.007132 L 42.368832 132.014710 L 41.318880 132.024686 L 40.268962 132.037818 L 39.219106 132.055105 L 38.169354 132.077859 L 37.119783 132.107811 L 36.070528 132.147232 L 35.021818 132.199113 L 33.974051 132.267378 L 32.927917 132.357172 L 31.884606 132.475220 L 30.846162 132.630262 L 29.816091 132.833550 L 28.800346 133.099331 L 27.808904 133.445095 L 26.858098 133.891125 L 25.973669 134.458400 L 25.193671 135.163463 L 24.568722 136.009318 L 24.155310 136.974812 L 24.000000 138.000000 L -0.000000 138.000000 L -0.000000 126.000000 L 44.468789 126.000000 L 150.000000 126.000000 L 150.000000 132.000000 L 44.468789 132.001374 Z"/>
    <path style="fill:#808080"
          d="M 44.468789 143.998626 L 43.418805 143.992868 L 42.368832 143.985290 L 41.318880 143.975314 L 40.268962 143.962182 L 39.219106 143.944895 L 38.169354 143.922141 L 37.119783 143.892189 L 36.070528 143.852768 L 35.021818 143.800887 L 33.974051 143.732622 L 32.927917 143.642828 L 31.884606 143.524780 L 30.846162 143.369738 L 29.816091 143.166450 L 28.800346 142.900669 L 27.808904 142.554905 L 26.858098 142.108875 L 25.973669 141.541600 L 25.193671 140.836537 L 24.568722 139.990682 L 24.155310 139.025188 L 24.000000 138.000000 L -0.000000 138.000000 L -0.000000 150.000000 L 44.468789 150.000000 L 150.000000 150.000000 L 150.000000 144.000000 L 44.468789 143.998626 Z"/>
    <path style="fill:#808080"
          d="M 255.531211 161.998626 L 256.581195 161.992868 L 257.631168 161.985290 L 258.681120 161.975314 L 259.731038 161.962182 L 260.780894 161.944895 L 261.830646 161.922141 L 262.880217 161.892189 L 263.929472 161.852768 L 264.978182 161.800887 L 266.025949 161.732622 L 267.072083 161.642828 L 268.115394 161.524780 L 269.153838 161.369738 L 270.183909 161.166450 L 271.199654 160.900669 L 272.191096 160.554905 L 273.141902 160.108875 L 274.026331 159.541600 L 274.806329 158.836537 L 275.431278 157.990682 L 275.844690 157.025188 L 276.000000 156.000000 L 300.000000 156.000000 L 300.000000 168.000000 L 255.531211 168.000000 L 150.000000 168.000000 L 150.000000 162.000000 L 255.531211 161.998626 Z"/>
    <path style="fill:#808080"
          d="M 255.531211 150.001374 L 256.581195 150.007132 L 257.631168 150.014710 L 258.681120 150.024686 L 259.731038 150.037818 L 260.780894 150.055105 L 261.830646 150.077859 L 262.880217 150.107811 L 263.929472 150.147232 L 264.978182 150.199113 L 266.025949 150.267378 L 267.072083 150.357172 L 268.115394 150.475220 L 269.153838 150.630262 L 270.183909 150.833550 L 271.199654 151.099331 L 272.191096 151.445095 L 273.141902 151.891125 L 274.026331 152.458400 L 274.806329 153.163463 L 275.431278 154.009318 L 275.844690 154.974812 L 276.000000 156.000000 L 300.000000 156.000000 L 300.000000 144.000000 L 255.531211 144.000000 L 150.000000 144.000000 L 150.000000 150.000000 L 255.531211 150.001374 Z"/>
    <path style="fill:#808080"
          d="M 44.468789 168.001374 L 43.418805 168.007132 L 42.368832 168.014710 L 41.318880 168.024686 L 40.268962 168.037818 L 39.219106 168.055105 L 38.169354 168.077859 L 37.119783 168.107811 L 36.070528 168.147232 L 35.021818 168.199113 L 33.974051 168.267378 L 32.927917 168.357172 L 31.884606 168.475220 L 30.846162 168.630262 L 29.816091 168.833550 L 28.800346 169.099331 L 27.808904 169.445095 L 26.858098 169.891125 L 25.973669 170.458400 L 25.193671 171.163463 L 24.568722 172.009318 L 24.155310 172.974812 L 24.000000 174.000000 L -0.000000 174.000000 L -0.000000 162.000000 L 44.468789 162.000000 L 150.000000 162.000000 L 150.000000 168.000000 L 44.468789 168.001374 Z"/>
    <path style="fill:#808080"
          d="M 44.468789 179.998626 L 43.418805 179.992868 L 42.368832 179.985290 L 41.318880 179.975314 L 40.268962 179.962182 L 39.219106 179.944895 L 38.169354 179.922141 L 37.119783 179.892189 L 36.070528 179.852768 L 35.021818 179.800887 L 33.974051 179.732622 L 32.927917 179.642828 L 31.884606 179.524780 L 30.846162 179.369738 L 29.816091 179.166450 L 28.800346 178.900669 L 27.808904 178.554905 L 26.858098 178.108875 L 25.973669 177.541600 L 25.193671 176.836537 L 24.568722 175.990682 L 24.155310 175.025188 L 24.000000 174.000000 L -0.000000 174.000000 L -0.000000 186.000000 L 44.468789 186.000000 L 150.000000 186.000000 L 150.000000 180.000000 L 44.468789 179.998626 Z"/>
    <path style="fill:#808080"
          d="M 255.531211 197.998626 L 256.581195 197.992868 L 257.631168 197.985290 L 258.681120 197.975314 L 259.731038 197.962182 L 260.780894 197.944895 L 261.830646 197.922141 L 262.880217 197.892189 L 263.929472 197.852768 L 264.978182 197.800887 L 266.025949 197.732622 L 267.072083 197.642828 L 268.115394 197.524780 L 269.153838 197.369738 L 270.183909 197.166450 L 271.199654 196.900669 L 272.191096 196.554905 L 273.141902 196.108875 L 274.026331 195.541600 L 274.806329 194.836537 L 275.431278 193.990682 L 275.844690 193.025188 L 276.000000 192.000000 L 300.000000 192.000000 L 300.000000 204.000000 L 255.531211 204.000000 L 150.000000 204.000000 L 150.000000 198.000000 L 255.531211 197.998626 Z"/>
    <path style="fill:#808080"
          d="M 255.531211 186.001374 L 256.581195 186.007132 L 257.631168 186.014710 L 258.681120 186.024686 L 259.731038 186.037818 L 260.780894 186.055105 L 261.830646 186.077859 L 262.880217 186.107811 L 263.929472 186.147232 L 264.978182 186.199113 L 266.025949 186.267378 L 267.072083 186.357172 L 268.115394 186.475220 L 269.153838 186.630262 L 270.183909 186.833550 L 271.199654 187.099331 L 272.191096 187.445095 L 273.141902 187.891125 L 274.026331 188.458400 L 274.806329 189.163463 L 275.431278 190.009318 L 275.844690 190.974812 L 276.000000 192.000000 L 300.000000 192.000000 L 300.000000 180.000000 L 255.531211 180.000000 L 150.000000 180.000000 L 150.000000 186.000000 L 255.531211 186.001374 Z"/>
    <path style="fill:#808080"
          d="M 44.468789 204.001374 L 43.418805 204.007132 L 42.368832 204.014710 L 41.318880 204.024686 L 40.268962 204.037818 L 39.219106 204.055105 L 38.169354 204.077859 L 37.119783 204.107811 L 36.070528 204.147232 L 35.021818 204.199113 L 33.974051 204.267378 L 32.927917 204.357172 L 31.884606 204.475220 L 30.846162 204.630262 L 29.816091 204.833550 L 28.800346 205.099331 L 27.808904 205.445095 L 26.858098 205.891125 L 25.973669 206.458400 L 25.193671 207.163463 L 24.568722 208.009318 L 24.155310 208.974812 L 24.000000 210.000000 L -0.000000 210.000000 L -0.000000 198.000000 L 44.468789 198.000000 L 150.000000 198.000000 L 150.000000 204.000000 L 44.468789 204.001374 Z"/>
    <path style="fill:#808080"
          d="M 44.468789 215.998626 L 43.418805 215.992868 L 42.368832 215.985290 L 41.318880 215.975314 L 40.268962 215.962182 L 39.219106 215.944895 L 38.169354 215.922141 L 37.119783 215.892189 L 36.070528 215.852768 L 35.021818 215.800887 L 33.974051 215.732622 L 32.927917 215.642828 L 31.884606 215.524780 L 30.846162 215.369738 L 29.816091 215.166450 L 28.800346 214.900669 L 27.808904 214.554905 L 26.858098 214.108875 L 25.973669 213.541600 L 25.193671 212.836537 L 24.568722 211.990682 L 24.155310 211.025188 L 24.000000 210.000000 L -0.000000 210.000000 L -0.000000 222.000000 L 44.468789 222.000000 L 150.000000 222.000000 L 150.000000 216.000000 L 44.468789 215.998626 Z"/>
    <path style="fill:#808080"
          d="M 255.531211 233.998626 L 256.581195 233.992868 L 257.631168 233.985290 L 258.681120 233.975314 L 259.731038 233.962182 L 260.780894 233.944895 L 261.830646 233.922141 L 262.880217 233.892189 L 263.929472 233.852768 L 264.978182 233.800887 L 266.025949 233.732622 L 267.072083 233.642828 L 268.115394 233.524780 L 269.153838 233.369738 L 270.183909 233.166450 L 271.199654 232.900669 L 272.191096 232.554905 L 273.141902 232.108875 L 274.026331 231.541600 L 274.806329 230.836537 L 275.431278 229.990682 L 275.844690 229.025188 L 276.000000 228.000000 L 300.000000 228.000000 L 300.000000 240.000000 L 255.531211 240.000000 L 150.000000 240.000000 L 150.000000 234.000000 L 255.531211 233.998626 Z"/>
    <path style="fill:#808080"
          d="M 255.531211 222.001374 L 256.581195 222.007132 L 257.631168 222.014710 L 258.681120 222.024686 L 259.731038 222.037818 L 260.780894 222.055105 L 261.830646 222.077859 L 262.880217 222.107811 L 263.929472 222.147232 L 264.978182 222.199113 L 266.025949 222.267378 L 267.072083 222.357172 L 268.115394 222.475220 L 269.153838 222.630262 L 270.183909 222.833550 L 271.199654 223.099331 L 272.191096 223.445095 L 273.141902 223.891125 L 274.026331 224.458400 L 274.806329 225.163463 L 275.431278 226.009318 L 275.844690 226.974812 L 276.000000 228.000000 L 300.000000 228.000000 L 300.000000 216.000000 L 255.531211 216.000000 L 150.000000 216.000000 L 150.000000 222.000000 L 255.531211 222.001374 Z"/>
    <path style="fill:#808080"
          d="M 44.468789 240.001374 L 43.418805 240.007132 L 42.368832 240.014710 L 41.318880 240.024686 L 40.268962 240.037818 L 39.219106 240.055105 L 38.169354 240.077859 L 37.119783 240.107811 L 36.070528 240.147232 L 35.021818 240.199113 L 33.974051 240.267378 L 32.927917 240.357172 L 31.884606 240.475220 L 30.846162 240.630262 L 29.816091 240.833550 L 28.800346 241.099331 L 27.808904 241.445095 L 26.858098 241.891125 L 25.973669 242.458400 L 25.193671 243.163463 L 24.568722 244.009318 L 24.155310 244.974812 L 24.000000 246.000000 L -0.000000 246.000000 L -0.000000 234.000000 L 44.468789 234.000000 L 150.000000 234.000000 L 150.000000 240.000000 L 44.468789 240.001374 Z"/>
    <path style="fill:#808080"
          d="M 44.468789 251.998626 L 43.418805 251.992868 L 42.368832 251.985290 L 41.318880 251.975314 L 40.268962 251.962182 L 39.219106 251.944895 L 38.169354 251.922141 L 37.119783 251.892189 L 36.070528 251.852768 L 35.021818 251.800887 L 33.974051 251.732622 L 32.927917 251.642828 L 31.884606 251.524780 L 30.846162 251.369738 L 29.816091 251.166450 L 28.800346 250.900669 L 27.808904 250.554905 L 26.858098 250.108875 L 25.973669 249.541600 L 25.193671 248.836537 L 24.568722 247.990682 L 24.155310 247.025188 L 24.000000 246.000000 L -0.000000 246.000000 L -0.000000 258.000000 L 44.468789 258.000000 L 150.000000 258.000000 L 150.000000 252.000000 L 44.468789 251.998626 Z"/>
    <path style="fill:#808080"
          d="M 150.000000 258.000000 L 150.000000 252.000000 L 300.000000 252.000000 L 300.000000 258.000000 Z"/>
  </g>
</svg>
