<?xml version="1.0" encoding="UTF-8" standalone="no"?>
<svg
   width="300.000000" 
   height="84.276116"
   version="1.1"
   xmlns:svg="http://www.w3.org/2000/svg"
   xmlns="http://www.w3.org/2000/svg">
  <g id="layer000_datatype000">
    <path style="fill:#808080"
          d="M 150.000000 0.000000 L 150.000000 1.959910 L 101.002258 1.959910 L 101.002258 0.000000 Z"/>
    <path style="fill:#808080"
          d="M 184.471940 5.879280 L 184.814919 5.877400 L 185.157895 5.874924 L 185.500863 5.871665 L 185.843820 5.867376 L 186.186758 5.861729 L 186.529661 5.854296 L 186.872505 5.844513 L 187.215246 5.831635 L 187.557809 5.814688 L 187.900063 5.792390 L 188.241785 5.763058 L 188.582584 5.724498 L 188.921793 5.673853 L 189.258268 5.607448 L 189.590062 5.520631 L 189.913919 5.407687 L 190.224501 5.261990 L 190.513401 5.076689 L 190.768189 4.846379 L 190.972329 4.570079 L 191.107371 4.254699 L 191.158103 3.919819 L 198.997742 3.919819 L 198.997742 7.839639 L 184.471940 7.839639 L 150.000000 7.839639 L 150.000000 5.879729 L 184.471940 5.879280 Z"/>
    <path style="fill:#808080"
          d="M 184.471940 1.960359 L 184.814919 1.962239 L 185.157895 1.964715 L 185.500863 1.967973 L 185.843820 1.972263 L 186.186758 1.977910 L 186.529661 1.985343 L 186.872505 1.995126 L 187.215246 2.008003 L 187.557809 2.024950 L 187.900063 2.047249 L 188.241785 2.076581 L 188.582584 2.115141 L 188.921793 2.165786 L 189.258268 2.232190 L 189.590062 2.319008 L 189.913919 2.431952 L 190.224501 2.577649 L 190.513401 2.762950 L 190.768189 2.993260 L 190.972329 3.269560 L 191.107371 3.584940 L 191.158103 3.919819 L 198.997742 3.919819 L 198.997742 0.000000 L 184.471940 0.000000 L 150.000000 0.000000 L 150.000000 1.959910 L 184.471940 1.960359 Z"/>
    <path style="fill:#808080"
          d="M 115.528060 7.840088 L 115.185081 7.841968 L 114.842105 7.844444 L 114.499137 7.847702 L 114.156180 7.851992 L 113.813242 7.857639 L 113.470339 7.865072 L 113.127495 7.874855 L 112.784754 7.887732 L 112.442191 7.904679 L 112.099937 7.926978 L 111.758215 7.956310 L 111.417416 7.994870 L 111.078207 8.045515 L 110.741732 8.111919 L 110.409938 8.198737 L 110.086081 8.311681 L 109.775499 8.457378 L 109.486599 8.642679 L 109.231811 8.872989 L 109.027671 9.149289 L 108.892629 9.464669 L 108.841897 9.799548 L 101.002258 9.799548 L 101.002258 5.879729 L 115.528060 5.879729 L 150.000000 5.879729 L 150.000000 7.839639 L 115.528060 7.840088 Z"/>
    <path style="fill:#808080"
          d="M 115.528060 11.759009 L 115.185081 11.757129 L 114.842105 11.754653 L 114.499137 11.751394 L 114.156180 11.747105 L 113.813242 11.741458 L 113.470339 11.734025 L 113.127495 11.724242 L 112.784754 11.711364 L 112.442191 11.694418 L 112.099937 11.672119 L 111.758215 11.642787 L 111.417416 11.604227 L 111.078207 11.553582 L 110.741732 11.487178 L 110.409938 11.400360 L 110.086081 11.287416 L 109.775499 11.141719 L 109.486599 10.956418 L 109.231811 10.726108 L 109.027671 10.449808 L 108.892629 10.134428 L 108.841897 9.799548 L 101.002258 9.799548 L 101.002258 13.719368 L 115.528060 13.719368 L 150.000000 13.719368 L 150.000000 11.759458 L 115.528060 11.759009 Z"/>
    <path style="fill:#808080"
          d="M 184.471940 17.638738 L 184.814919 17.636858 L 185.157895 17.634382 L 185.500863 17.631123 L 185.843820 17.626834 L 186.186758 17.621187 L 186.529661 17.613754 L 186.872505 17.603971 L 187.215246 17.591094 L 187.557809 17.574147 L 187.900063 17.551848 L 188.241785 17.522516 L 188.582584 17.483956 L 188.921793 17.433311 L 189.258268 17.366907 L 189.590062 17.280089 L 189.913919 17.167145 L 190.224501 17.021448 L 190.513401 16.836147 L 190.768189 16.605837 L 190.972329 16.329537 L 191.107371 16.014157 L 191.158103 15.679277 L 198.997742 15.679277 L 198.997742 19.599097 L 184.471940 19.599097 L 150.000000 19.599097 L 150.000000 17.639187 L 184.471940 17.638738 Z"/>
    <path style="fill:#808080"
          d="M 184.471940 13.719817 L 184.814919 13.721697 L 185.157895 13.724173 L 185.500863 13.727432 L 185.843820 13.731721 L 186.186758 13.737368 L 186.529661 13.744801 L 186.872505 13.754584 L 187.215246 13.767461 L 187.557809 13.784408 L 187.900063 13.806707 L 188.241785 13.836039 L 188.582584 13.874599 L 188.921793 13.925244 L 189.258268 13.991648 L 189.590062 14.078466 L 189.913919 14.191410 L 190.224501 14.337107 L 190.513401 14.522408 L 190.768189 14.752718 L 190.972329 15.029018 L 191.107371 15.344398 L 191.158103 15.679277 L 198.997742 15.679277 L 198.997742 11.759458 L 184.471940 11.759458 L 150.000000 11.759458 L 150.000000 13.719368 L 184.471940 13.719817 Z"/>
    <path style="fill:#808080"
          d="M 115.528060 19.599546 L 115.185081 19.601426 L 114.842105 19.603902 L 114.499137 19.607161 L 114.156180 19.611450 L 113.813242 19.617097 L 113.470339 19.624530 L 113.127495 19.634313 L 112.784754 19.647190 L 112.442191 19.664137 L 112.099937 19.686436 L 111.758215 19.715768 L 111.417416 19.754328 L 111.078207 19.804973 L 110.741732 19.871377 L 110.409938 19.958195 L 110.086081 20.071139 L 109.775499 20.216836 L 109.486599 20.402137 L 109.231811 20.632447 L 109.027671 20.908747 L 108.892629 21.224127 L 108.841897 21.559006 L 101.002258 21.559006 L 101.002258 17.639187 L 115.528060 17.639187 L 150.000000 17.639187 L 150.000000 19.599097 L 115.528060 19.599546 Z"/>
    <path style="fill:#808080"
          d="M 115.528060 23.518467 L 115.185081 23.516587 L 114.842105 23.514111 L 114.499137 23.510852 L 114.156180 23.506563 L 113.813242 23.500916 L 113.470339 23.493483 L 113.127495 23.483700 L 112.784754 23.470823 L 112.442191 23.453876 L 112.099937 23.431577 L 111.758215 23.402245 L 111.417416 23.363685 L 111.078207 23.313040 L 110.741732 23.246636 L 110.409938 23.159818 L 110.086081 23.046874 L 109.775499 22.901177 L 109.486599 22.715876 L 109.231811 22.485566 L 109.027671 22.209266 L 108.892629 21.893886 L 108.841897 21.559006 L 101.002258 21.559006 L 101.002258 25.478826 L 115.528060 25.478826 L 150.000000 25.478826 L 150.000000 23.518916 L 115.528060 23.518467 Z"/>
    <path style="fill:#808080"
          d="M 184.471940 29.398196 L 184.814919 29.396316 L 185.157895 29.393840 L 185.500863 29.390581 L 185.843820 29.386292 L 186.186758 29.380645 L 186.529661 29.373212 L 186.872505 29.363429 L 187.215246 29.350552 L 187.557809 29.333605 L 187.900063 29.311306 L 188.241785 29.281974 L 188.582584 29.243414 L 188.921793 29.192769 L 189.258268 29.126365 L 189.590062 29.039547 L 189.913919 28.926603 L 190.224501 28.780906 L 190.513401 28.595605 L 190.768189 28.365295 L 190.972329 28.088995 L 191.107371 27.773615 L 191.158103 27.438736 L 198.997742 27.438736 L 198.997742 31.358555 L 184.471940 31.358555 L 150.000000 31.358555 L 150.000000 29.398645 L 184.471940 29.398196 Z"/>
    <path style="fill:#808080"
          d="M 184.471940 25.479275 L 184.814919 25.481155 L 185.157895 25.483631 L 185.500863 25.486890 L 185.843820 25.491179 L 186.186758 25.496826 L 186.529661 25.504259 L 186.872505 25.514042 L 187.215246 25.526919 L 187.557809 25.543866 L 187.900063 25.566165 L 188.241785 25.595497 L 188.582584 25.634057 L 188.921793 25.684702 L 189.258268 25.751106 L 189.590062 25.837924 L 189.913919 25.950868 L 190.224501 26.096565 L 190.513401 26.281866 L 190.768189 26.512176 L 190.972329 26.788476 L 191.107371 27.103856 L 191.158103 27.438736 L 198.997742 27.438736 L 198.997742 23.518916 L 184.471940 23.518916 L 150.000000 23.518916 L 150.000000 25.478826 L 184.471940 25.479275 Z"/>
    <path style="fill:#808080"
          d="M 115.528060 31.359004 L 115.185081 31.360884 L 114.842105 31.363360 L 114.499137 31.366619 L 114.156180 31.370908 L 113.813242 31.376555 L 113.470339 31.383988 L 113.127495 31.393771 L 112.784754 31.406649 L 112.442191 31.423595 L 112.099937 31.445894 L 111.758215 31.475226 L 111.417416 31.513786 L 111.078207 31.564431 L 110.741732 31.630835 L 110.409938 31.717653 L 110.086081 31.830597 L 109.775499 31.976294 L 109.486599 32.161595 L 109.231811 32.391905 L 109.027671 32.668205 L 108.892629 32.983585 L 108.841897 33.318465 L 101.002258 33.318465 L 101.002258 29.398645 L 115.528060 29.398645 L 150.000000 29.398645 L 150.000000 31.358555 L 115.528060 31.359004 Z"/>
    <path style="fill:#808080"
          d="M 115.528060 35.277925 L 115.185081 35.276045 L 114.842105 35.273569 L 114.499137 35.270310 L 114.156180 35.266021 L 113.813242 35.260374 L 113.470339 35.252941 L 113.127495 35.243158 L 112.784754 35.230281 L 112.442191 35.213334 L 112.099937 35.191035 L 111.758215 35.161703 L 111.417416 35.123143 L 111.078207 35.072498 L 110.741732 35.006094 L 110.409938 34.919276 L 110.086081 34.806332 L 109.775499 34.660635 L 109.486599 34.475334 L 109.231811 34.245024 L 109.027671 33.968724 L 108.892629 33.653344 L 108.841897 33.318465 L 101.002258 33.318465 L 101.002258 37.238284 L 115.528060 37.238284 L 150.000000 37.238284 L 150.000000 35.278374 L 115.528060 35.277925 Z"/>
    <path style="fill:#808080"
          d="M 184.471940 41.157654 L 184.814919 41.155774 L 185.157895 41.153298 L 185.500863 41.150040 L 185.843820 41.145750 L 186.186758 41.140103 L 186.529661 41.132670 L 186.872505 41.122887 L 187.215246 41.110010 L 187.557809 41.093063 L 187.900063 41.070764 L 188.241785 41.041432 L 188.582584 41.002872 L 188.921793 40.952227 L 189.258268 40.885823 L 189.590062 40.799005 L 189.913919 40.686061 L 190.224501 40.540364 L 190.513401 40.355063 L 190.768189 40.124753 L 190.972329 39.848453 L 191.107371 39.533073 L 191.158103 39.198194 L 198.997742 39.198194 L 198.997742 43.118013 L 184.471940 43.118013 L 150.000000 43.118013 L 150.000000 41.158103 L 184.471940 41.157654 Z"/>
    <path style="fill:#808080"
          d="M 184.471940 37.238733 L 184.814919 37.240613 L 185.157895 37.243089 L 185.500863 37.246348 L 185.843820 37.250637 L 186.186758 37.256284 L 186.529661 37.263717 L 186.872505 37.273500 L 187.215246 37.286378 L 187.557809 37.303324 L 187.900063 37.325623 L 188.241785 37.354955 L 188.582584 37.393515 L 188.921793 37.444160 L 189.258268 37.510564 L 189.590062 37.597382 L 189.913919 37.710326 L 190.224501 37.856023 L 190.513401 38.041324 L 190.768189 38.271634 L 190.972329 38.547934 L 191.107371 38.863314 L 191.158103 39.198194 L 198.997742 39.198194 L 198.997742 35.278374 L 184.471940 35.278374 L 150.000000 35.278374 L 150.000000 37.238284 L 184.471940 37.238733 Z"/>
    <path style="fill:#808080"
          d="M 115.528060 43.118462 L 115.185081 43.120342 L 114.842105 43.122818 L 114.499137 43.126077 L 114.156180 43.130366 L 113.813242 43.136013 L 113.470339 43.143446 L 113.127495 43.153229 L 112.784754 43.166107 L 112.442191 43.183054 L 112.099937 43.205352 L 111.758215 43.234684 L 111.417416 43.273244 L 111.078207 43.323889 L 110.741732 43.390294 L 110.409938 43.477111 L 110.086081 43.590055 L 109.775499 43.735752 L 109.486599 43.921053 L 109.231811 44.151363 L 109.027671 44.427663 L 108.892629 44.743043 L 108.841897 45.077923 L 101.002258 45.077923 L 101.002258 41.158103 L 115.528060 41.158103 L 150.000000 41.158103 L 150.000000 43.118013 L 115.528060 43.118462 Z"/>
    <path style="fill:#808080"
          d="M 115.528060 47.037383 L 115.185081 47.035503 L 114.842105 47.033027 L 114.499137 47.029769 L 114.156180 47.025479 L 113.813242 47.019832 L 113.470339 47.012399 L 113.127495 47.002616 L 112.784754 46.989739 L 112.442191 46.972792 L 112.099937 46.950493 L 111.758215 46.921161 L 111.417416 46.882601 L 111.078207 46.831956 L 110.741732 46.765552 L 110.409938 46.678734 L 110.086081 46.565790 L 109.775499 46.420093 L 109.486599 46.234792 L 109.231811 46.004482 L 109.027671 45.728182 L 108.892629 45.412802 L 108.841897 45.077923 L 101.002258 45.077923 L 101.002258 48.997742 L 115.528060 48.997742 L 150.000000 48.997742 L 150.000000 47.037832 L 115.528060 47.037383 Z"/>
    <path style="fill:#808080"
          d="M 184.471940 52.917112 L 184.814919 52.915232 L 185.157895 52.912756 L 185.500863 52.909498 L 185.843820 52.905208 L 186.186758 52.899561 L 186.529661 52.892128 L 186.872505 52.882345 L 187.215246 52.869468 L 187.557809 52.852521 L 187.900063 52.830222 L 188.241785 52.800890 L 188.582584 52.762330 L 188.921793 52.711685 L 189.258268 52.645281 L 189.590062 52.558463 L 189.913919 52.445519 L 190.224501 52.299822 L 190.513401 52.114521 L 190.768189 51.884211 L 190.972329 51.607911 L 191.107371 51.292531 L 191.158103 50.957652 L 198.997742 50.957652 L 198.997742 54.877471 L 184.471940 54.877471 L 150.000000 54.877471 L 150.000000 52.917561 L 184.471940 52.917112 Z"/>
    <path style="fill:#808080"
          d="M 184.471940 48.998191 L 184.814919 49.000072 L 185.157895 49.002547 L 185.500863 49.005806 L 185.843820 49.010095 L 186.186758 49.015742 L 186.529661 49.023175 L 186.872505 49.032959 L 187.215246 49.045836 L 187.557809 49.062783 L 187.900063 49.085081 L 188.241785 49.114413 L 188.582584 49.152974 L 188.921793 49.203618 L 189.258268 49.270023 L 189.590062 49.356840 L 189.913919 49.469784 L 190.224501 49.615481 L 190.513401 49.800782 L 190.768189 50.031092 L 190.972329 50.307392 L 191.107371 50.622772 L 191.158103 50.957652 L 198.997742 50.957652 L 198.997742 47.037832 L 184.471940 47.037832 L 150.000000 47.037832 L 150.000000 48.997742 L 184.471940 48.998191 Z"/>
    <path style="fill:#808080"
          d="M 115.528060 54.877920 L 115.185081 54.879801 L 114.842105 54.882276 L 114.499137 54.885535 L 114.156180 54.889824 L 113.813242 54.895471 L 113.470339 54.902904 L 113.127495 54.912688 L 112.784754 54.925565 L 112.442191 54.942512 L 112.099937 54.964810 L 111.758215 54.994142 L 111.417416 55.032703 L 111.078207 55.083347 L 110.741732 55.149752 L 110.409938 55.236569 L 110.086081 55.349514 L 109.775499 55.495210 L 109.486599 55.680511 L 109.231811 55.910821 L 109.027671 56.187121 L 108.892629 56.502501 L 108.841897 56.837381 L 101.002258 56.837381 L 101.002258 52.917561 L 115.528060 52.917561 L 150.000000 52.917561 L 150.000000 54.877471 L 115.528060 54.877920 Z"/>
    <path style="fill:#808080"
          d="M 115.528060 58.796841 L 115.185081 58.794961 L 114.842105 58.792485 L 114.499137 58.789227 L 114.156180 58.784937 L 113.813242 58.779290 L 113.470339 58.771858 L 113.127495 58.762074 L 112.784754 58.749197 L 112.442191 58.732250 L 112.099937 58.709951 L 111.758215 58.680619 L 111.417416 58.642059 L 111.078207 58.591414 L 110.741732 58.525010 L 110.409938 58.438192 L 110.086081 58.325248 L 109.775499 58.179551 L 109.486599 57.994250 L 109.231811 57.763940 L 109.027671 57.487640 L 108.892629 57.172260 L 108.841897 56.837381 L 101.002258 56.837381 L 101.002258 60.757200 L 115.528060 60.757200 L 150.000000 60.757200 L 150.000000 58.797290 L 115.528060 58.796841 Z"/>
    <path style="fill:#808080"
          d="M 184.471940 64.676570 L 184.814919 64.674690 L 185.157895 64.672214 L 185.500863 64.668956 L 185.843820 64.664666 L 186.186758 64.659019 L 186.529661 64.651587 L 186.872505 64.641803 L 187.215246 64.628926 L 187.557809 64.611979 L 187.900063 64.589680 L 188.241785 64.560349 L 188.582584 64.521788 L 188.921793 64.471143 L 189.258268 64.404739 L 189.590062 64.317921 L 189.913919 64.204977 L 190.224501 64.059281 L 190.513401 63.873979 L 190.768189 63.643669 L 190.972329 63.367369 L 191.107371 63.051989 L 191.158103 62.717110 L 198.997742 62.717110 L 198.997742 66.636929 L 184.471940 66.636929 L 150.000000 66.636929 L 150.000000 64.677019 L 184.471940 64.676570 Z"/>
    <path style="fill:#808080"
          d="M 184.471940 60.757649 L 184.814919 60.759530 L 185.157895 60.762005 L 185.500863 60.765264 L 185.843820 60.769553 L 186.186758 60.775200 L 186.529661 60.782633 L 186.872505 60.792417 L 187.215246 60.805294 L 187.557809 60.822241 L 187.900063 60.844540 L 188.241785 60.873871 L 188.582584 60.912432 L 188.921793 60.963076 L 189.258268 61.029481 L 189.590062 61.116298 L 189.913919 61.229243 L 190.224501 61.374939 L 190.513401 61.560241 L 190.768189 61.790551 L 190.972329 62.066850 L 191.107371 62.382230 L 191.158103 62.717110 L 198.997742 62.717110 L 198.997742 58.797290 L 184.471940 58.797290 L 150.000000 58.797290 L 150.000000 60.757200 L 184.471940 60.757649 Z"/>
    <path style="fill:#808080"
          d="M 115.528060 66.637378 L 115.185081 66.639259 L 114.842105 66.641734 L 114.499137 66.644993 L 114.156180 66.649283 L 113.813242 66.654929 L 113.470339 66.662362 L 113.127495 66.672146 L 112.784754 66.685023 L 112.442191 66.701970 L 112.099937 66.724269 L 111.758215 66.753600 L 111.417416 66.792161 L 111.078207 66.842805 L 110.741732 66.909210 L 110.409938 66.996027 L 110.086081 67.108972 L 109.775499 67.254668 L 109.486599 67.439970 L 109.231811 67.670280 L 109.027671 67.946579 L 108.892629 68.261959 L 108.841897 68.596839 L 101.002258 68.596839 L 101.002258 64.677019 L 115.528060 64.677019 L 150.000000 64.677019 L 150.000000 66.636929 L 115.528060 66.637378 Z"/>
    <path style="fill:#808080"
          d="M 115.528060 70.556300 L 115.185081 70.554419 L 114.842105 70.551943 L 114.499137 70.548685 L 114.156180 70.544395 L 113.813242 70.538748 L 113.470339 70.531316 L 113.127495 70.521532 L 112.784754 70.508655 L 112.442191 70.491708 L 112.099937 70.469409 L 111.758215 70.440078 L 111.417416 70.401517 L 111.078207 70.350872 L 110.741732 70.284468 L 110.409938 70.197650 L 110.086081 70.084706 L 109.775499 69.939010 L 109.486599 69.753708 L 109.231811 69.523398 L 109.027671 69.247098 L 108.892629 68.931718 L 108.841897 68.596839 L 101.002258 68.596839 L 101.002258 72.516658 L 115.528060 72.516658 L 150.000000 72.516658 L 150.000000 70.556748 L 115.528060 70.556300 Z"/>
    <path style="fill:#808080"
          d="M 184.471940 76.436029 L 184.814919 76.434148 L 185.157895 76.431672 L 185.500863 76.428414 L 185.843820 76.424124 L 186.186758 76.418477 L 186.529661 76.411045 L 186.872505 76.401261 L 187.215246 76.388384 L 187.557809 76.371437 L 187.900063 76.349138 L 188.241785 76.319807 L 188.582584 76.281246 L 188.921793 76.230601 L 189.258268 76.164197 L 189.590062 76.077379 L 189.913919 75.964435 L 190.224501 75.818739 L 190.513401 75.633437 L 190.768189 75.403127 L 190.972329 75.126827 L 191.107371 74.811447 L 191.158103 74.476568 L 198.997742 74.476568 L 198.997742 78.396387 L 184.471940 78.396387 L 150.000000 78.396387 L 150.000000 76.436478 L 184.471940 76.436029 Z"/>
    <path style="fill:#808080"
          d="M 184.471940 72.517107 L 184.814919 72.518988 L 185.157895 72.521463 L 185.500863 72.524722 L 185.843820 72.529012 L 186.186758 72.534658 L 186.529661 72.542091 L 186.872505 72.551875 L 187.215246 72.564752 L 187.557809 72.581699 L 187.900063 72.603998 L 188.241785 72.633329 L 188.582584 72.671890 L 188.921793 72.722534 L 189.258268 72.788939 L 189.590062 72.875756 L 189.913919 72.988701 L 190.224501 73.134397 L 190.513401 73.319699 L 190.768189 73.550009 L 190.972329 73.826308 L 191.107371 74.141688 L 191.158103 74.476568 L 198.997742 74.476568 L 198.997742 70.556748 L 184.471940 70.556748 L 150.000000 70.556748 L 150.000000 72.516658 L 184.471940 72.517107 Z"/>
    <path style="fill:#808080"
          d="M 115.528060 78.396836 L 115.185081 78.398717 L 114.842105 78.401192 L 114.499137 78.404451 L 114.156180 78.408741 L 113.813242 78.414387 L 113.470339 78.421820 L 113.127495 78.431604 L 112.784754 78.444481 L 112.442191 78.461428 L 112.099937 78.483727 L 111.758215 78.513058 L 111.417416 78.551619 L 111.078207 78.602263 L 110.741732 78.668668 L 110.409938 78.755485 L 110.086081 78.868430 L 109.775499 79.014126 L 109.486599 79.199428 L 109.231811 79.429738 L 109.027671 79.706037 L 108.892629 80.021417 L 108.841897 80.356297 L 101.002258 80.356297 L 101.002258 76.436478 L 115.528060 76.436478 L 150.000000 76.436478 L 150.000000 78.396387 L 115.528060 78.396836 Z"/>
    <path style="fill:#808080"
          d="M 115.528060 82.315758 L 115.185081 82.313877 L 114.842105 82.311402 L 114.499137 82.308143 L 114.156180 82.303853 L 113.813242 82.298207 L 113.470339 82.290774 L 113.127495 82.280990 L 112.784754 82.268113 L 112.442191 82.251166 L 112.099937 82.228867 L 111.758215 82.199536 L 111.417416 82.160975 L 111.078207 82.110330 L 110.741732 82.043926 L 110.409938 81.957108 L 110.086081 81.844164 L 109.775499 81.698468 L 109.486599 81.513166 L 109.231811 81.282856 L 109.027671 81.006556 L 108.892629 80.691176 L 108.841897 80.356297 L 101.002258 80.356297 L 101.002258 84.276116 L 115.528060 84.276116 L 150.000000 84.276116 L 150.000000 82.316207 L 115.528060 82.315758 Z"/>
    <path style="fill:#808080"
          d="M 150.000000 84.276116 L 150.000000 82.316207 L 198.997742 82.316207 L 198.997742 84.276116 Z"/>
    <path style="fill:#808080"
          d="M 101.002258 1.959910 L 99.982033 1.962859 L 98.961808 1.964350 L 97.941584 1.966592 L 96.921359 1.969966 L 95.901134 1.975045 L 94.880909 1.982687 L 93.860684 1.994185 L 92.840459 2.011472 L 91.820235 2.037433 L 90.800010 2.076313 L 89.779785 2.134192 L 88.759560 2.219270 L 87.739335 2.341268 L 86.719110 2.508941 L 85.698886 2.725962 L 84.678661 2.988410 L 83.658436 3.286499 L 82.638211 3.608539 L 81.617986 3.943781 L 80.597761 4.283533 L 79.577537 4.621189 L 78.557312 4.951923 L 77.537087 5.272301 L 76.516862 5.579951 L 75.496637 5.873360 L 74.476412 6.151652 L 73.456188 6.414319 L 72.435963 6.661412 L 71.415738 6.893034 L 70.395513 7.109537 L 69.375288 7.311588 L 68.355063 7.499716 L 67.334839 7.674604 L 66.314614 7.837006 L 65.294389 7.987580 L 64.274164 8.127151 L 63.253939 8.256274 L 62.233715 8.375736 L 61.213490 8.486207 L 60.193265 8.588277 L 59.173040 8.682566 L 58.152815 8.769646 L 57.132590 8.849964 L 56.112366 8.924197 L 55.092141 8.992544 L 54.071916 9.055695 L 53.051691 9.113916 L 52.031466 9.167613 L 51.011241 9.217118 L 49.991017 9.262764 L 48.970792 9.304828 L 47.950567 9.343614 L 46.930342 9.379346 L 45.910117 9.412343 L 44.889892 9.442737 L 43.869668 9.470704 L 42.849443 9.496431 L 41.829218 9.520272 L 40.808993 9.542183 L 39.788768 9.562440 L 38.768543 9.580943 L 37.748319 9.598181 L 36.728094 9.613919 L 35.707869 9.628490 L 34.687644 9.642012 L 33.667419 9.654373 L 32.647195 9.665782 L 31.626970 9.676249 L 30.606745 9.685958 L 29.586520 9.694801 L 28.566295 9.703091 L 27.546070 9.710662 L 26.525846 9.717654 L 25.505621 9.724054 L 24.485396 9.729997 L 23.465171 9.735477 L 22.444946 9.740470 L 21.424721 9.745124 L 20.404497 9.749412 L 19.384272 9.753375 L 18.364047 9.756962 L 17.343822 9.760354 L 16.323597 9.763408 L 15.303372 9.766222 L 14.283148 9.768855 L 13.262923 9.771248 L 12.242698 9.773473 L 11.222473 9.775510 L 10.202248 9.777382 L 9.182023 9.779196 L 8.161799 9.780757 L 7.141574 9.782275 L 6.121349 9.783608 L 5.101124 9.784849 L 4.080899 9.785945 L 3.060674 9.787095 L 2.040450 9.788013 L 1.020225 9.788945 L 0.000000 9.799548 L 0.000000 0.000000 L 101.002258 0.000000 Z"/>
    <path style="fill:#808080"
          d="M 198.997742 82.316207 L 200.017967 82.313257 L 201.038192 82.311766 L 202.058416 82.309524 L 203.078641 82.306150 L 204.098866 82.301071 L 205.119091 82.293429 L 206.139316 82.281931 L 207.159541 82.264644 L 208.179765 82.238684 L 209.199990 82.199804 L 210.220215 82.141925 L 211.240440 82.056846 L 212.260665 81.934848 L 213.280890 81.767175 L 214.301114 81.550154 L 215.321339 81.287706 L 216.341564 80.989617 L 217.361789 80.667577 L 218.382014 80.332335 L 219.402239 79.992583 L 220.422463 79.654927 L 221.442688 79.324193 L 222.462913 79.003815 L 223.483138 78.696165 L 224.503363 78.402756 L 225.523588 78.124464 L 226.543812 77.861797 L 227.564037 77.614704 L 228.584262 77.383083 L 229.604487 77.166579 L 230.624712 76.964529 L 231.644937 76.776400 L 232.665161 76.601512 L 233.685386 76.439110 L 234.705611 76.288536 L 235.725836 76.148965 L 236.746061 76.019842 L 237.766285 75.900380 L 238.786510 75.789910 L 239.806735 75.687839 L 240.826960 75.593550 L 241.847185 75.506470 L 242.867410 75.426153 L 243.887634 75.351920 L 244.907859 75.283572 L 245.928084 75.220422 L 246.948309 75.162200 L 247.968534 75.108503 L 248.988759 75.058998 L 250.008983 75.013352 L 251.029208 74.971288 L 252.049433 74.932502 L 253.069658 74.896770 L 254.089883 74.863773 L 255.110108 74.833379 L 256.130332 74.805412 L 257.150557 74.779685 L 258.170782 74.755844 L 259.191007 74.733933 L 260.211232 74.713676 L 261.231457 74.695173 L 262.251681 74.677936 L 263.271906 74.662197 L 264.292131 74.647626 L 265.312356 74.634105 L 266.332581 74.621744 L 267.352805 74.610334 L 268.373030 74.599868 L 269.393255 74.590158 L 270.413480 74.581315 L 271.433705 74.573026 L 272.453930 74.565454 L 273.474154 74.558462 L 274.494379 74.552062 L 275.514604 74.546120 L 276.534829 74.540640 L 277.555054 74.535646 L 278.575279 74.530992 L 279.595503 74.526704 L 280.615728 74.522741 L 281.635953 74.519154 L 282.656178 74.515763 L 283.676403 74.512708 L 284.696628 74.509894 L 285.716852 74.507262 L 286.737077 74.504868 L 287.757302 74.502643 L 288.777527 74.500606 L 289.797752 74.498734 L 290.817977 74.496920 L 291.838201 74.495359 L 292.858426 74.493841 L 293.878651 74.492508 L 294.898876 74.491267 L 295.919101 74.490171 L 296.939326 74.489021 L 297.959550 74.488104 L 298.979775 74.487172 L 300.000000 74.476568 L 300.000000 84.276116 L 198.997742 84.276116 Z"/>
  </g>
</svg>
