<?xml version="1.0" encoding="UTF-8" standalone="no"?>
<svg
   width="300.000000" 
   height="96.774194"
   version="1.1"
   xmlns:svg="http://www.w3.org/2000/svg"
   xmlns="http://www.w3.org/2000/svg">
  <g id="layer000_datatype000">
    <path style="fill:#808080"
          d="M 67.741935 96.774194 L 19.354839 96.774194 L 0.000000 77.419355 L 0.000000 48.387097 L 22.645161 29.032258 L 48.387097 29.032258 L 48.387097 21.774194 L 67.741935 21.774194 L 67.741935 58.064516 L 48.387097 58.064516 L 48.387097 48.387097 L 29.032258 48.387097 L 19.354839 58.064516 L 19.354839 67.741935 L 29.032258 77.419355 L 48.387097 77.419355 L 48.387097 67.741935 L 67.741935 67.741935 L 67.741935 96.774194 Z"/>
    <path style="fill:#808080"
          d="M 77.419355 67.741935 L 96.774194 67.741935 L 96.774194 77.419355 L 116.129032 77.419355 L 125.806452 67.741935 L 125.806452 58.064516 L 116.129032 48.387097 L 96.774194 48.387097 L 96.774194 58.064516 L 77.419355 58.064516 L 77.419355 0.000000 L 96.774194 0.000000 L 96.774194 29.032258 L 125.806452 29.032258 L 145.161290 48.387097 L 145.161290 77.419355 L 125.806452 96.774194 L 77.419355 96.774194 L 77.419355 67.741935 Z"/>
    <path style="fill:#808080"
          d="M 222.580645 77.419355 L 203.225806 96.774194 L 174.193548 96.774194 L 154.838710 77.419355 L 154.838710 48.387097 L 174.193548 29.032258 L 203.225806 29.032258 L 222.580645 48.387097 L 222.580645 58.064516 L 203.225806 58.064516 L 193.548387 48.387097 L 183.870968 48.387097 L 174.193548 58.064516 L 174.193548 67.741935 L 183.870968 77.419355 L 193.548387 77.419355 L 203.225806 67.741935 L 222.580645 67.741935 L 222.580645 77.419355 Z"/>
    <path style="fill:#808080"
          d="M 300.000000 96.774194 L 251.612903 96.774194 L 232.258065 77.419355 L 232.258065 48.387097 L 251.612903 29.032258 L 280.645161 29.032258 L 280.645161 0.000000 L 300.000000 0.000000 L 300.000000 58.064516 L 280.645161 58.064516 L 280.645161 48.387097 L 261.290323 48.387097 L 251.612903 58.064516 L 251.612903 67.741935 L 261.290323 77.419355 L 280.645161 77.419355 L 280.645161 67.741935 L 300.000000 67.741935 L 300.000000 96.774194 Z"/>
  </g>
</svg>
