<?xml version="1.0" encoding="UTF-8" standalone="no"?>
<svg
   width="300.000000" 
   height="83.466420"
   version="1.1"
   xmlns:svg="http://www.w3.org/2000/svg"
   xmlns="http://www.w3.org/2000/svg">
  <g id="layer000_datatype000">
    <path style="fill:#3dcc5c"
          d="M 85.714286 41.733210 L 85.551819 39.869120 L 85.072897 38.039810 L 84.301694 36.276931 L 83.274656 34.606512 L 82.035822 33.047506 L 80.631961 31.611478 L 79.108435 30.303222 L 77.506252 29.121966 L 75.860407 28.062811 L 74.199306 27.118119 L 72.544976 26.278702 L 70.913729 25.534733 L 69.317039 24.876397 L 67.762462 24.294318 L 66.254479 23.779803 L 64.795240 23.324961 L 63.385167 22.922741 L 62.023440 22.566913 L 60.708372 22.252012 L 59.437696 21.973276 L 58.208775 21.726573 L 57.018758 21.508328 L 55.864686 21.315457 L 54.743576 21.145305 L 53.652465 20.995589 L 52.588450 20.864355 L 51.548700 20.749934 L 50.530475 20.650903 L 49.531119 20.566061 L 48.548065 20.494401 L 47.578823 20.435086 L 46.620979 20.387436 L 45.672175 20.350914 L 44.730109 20.325112 L 43.792512 20.309743 L 42.857143 20.304639 L 41.921774 20.309743 L 40.984177 20.325112 L 40.042110 20.350914 L 39.093307 20.387436 L 38.135462 20.435086 L 37.166221 20.494401 L 36.183167 20.566061 L 35.183811 20.650903 L 34.165585 20.749934 L 33.125836 20.864355 L 32.061821 20.995589 L 30.970710 21.145305 L 29.849600 21.315457 L 28.695528 21.508328 L 27.505510 21.726573 L 26.276590 21.973276 L 25.005914 22.252012 L 23.690846 22.566913 L 22.329119 22.922741 L 20.919046 23.324961 L 19.459807 23.779803 L 17.951824 24.294318 L 16.397247 24.876397 L 14.800557 25.534733 L 13.169310 26.278702 L 11.514980 27.118119 L 9.853879 28.062811 L 8.208034 29.121966 L 6.605851 30.303222 L 5.082325 31.611478 L 3.678464 33.047506 L 2.439629 34.606512 L 1.412592 36.276931 L 0.641389 38.039810 L 0.162467 39.869120 L 0.000000 41.733210 L 0.162467 43.597300 L 0.641389 45.426610 L 1.412592 47.189489 L 2.439629 48.859908 L 3.678464 50.418914 L 5.082325 51.854942 L 6.605851 53.163198 L 8.208034 54.344454 L 9.853879 55.403609 L 11.514980 56.348301 L 13.169310 57.187718 L 14.800557 57.931687 L 16.397247 58.590023 L 17.951824 59.172102 L 19.459807 59.686617 L 20.919046 60.141459 L 22.329119 60.543679 L 23.690846 60.899507 L 25.005914 61.214408 L 26.276590 61.493144 L 27.505510 61.739847 L 28.695528 61.958092 L 29.849600 62.150963 L 30.970710 62.321115 L 32.061821 62.470831 L 33.125836 62.602065 L 34.165585 62.716486 L 35.183811 62.815517 L 36.183167 62.900359 L 37.166221 62.972019 L 38.135462 63.031334 L 39.093307 63.078984 L 40.042110 63.115506 L 40.984177 63.141308 L 41.921774 63.156677 L 42.857143 63.161781 L 43.792512 63.156677 L 44.730109 63.141308 L 45.672175 63.115506 L 46.620979 63.078984 L 47.578823 63.031334 L 48.548065 62.972019 L 49.531119 62.900359 L 50.530475 62.815517 L 51.548700 62.716486 L 52.588450 62.602065 L 53.652465 62.470831 L 54.743576 62.321115 L 55.864686 62.150963 L 57.018758 61.958092 L 58.208775 61.739847 L 59.437696 61.493144 L 60.708372 61.214408 L 62.023440 60.899507 L 63.385167 60.543679 L 64.795240 60.141459 L 66.254479 59.686617 L 67.762462 59.172102 L 69.317039 58.590023 L 70.913729 57.931687 L 72.544976 57.187718 L 74.199306 56.348301 L 75.860407 55.403609 L 77.506252 54.344454 L 79.108435 53.163198 L 80.631961 51.854942 L 82.035822 50.418914 L 83.274656 48.859908 L 84.301694 47.189489 L 85.072897 45.426610 L 85.551819 43.597300 L 85.714286 41.733210 Z"/>
    <path style="fill:#3dcc5c"
          d="M 84.253964 30.640965 L 83.614571 28.882442 L 82.678508 27.239419 L 81.477316 25.736211 L 80.052938 24.388526 L 78.452815 23.203276 L 76.725118 22.179525 L 74.914903 21.310164 L 73.061582 20.583834 L 71.197688 19.986745 L 69.348684 19.504168 L 67.533467 19.121525 L 65.765249 18.825104 L 64.052576 18.602454 L 62.400316 18.442563 L 60.810550 18.335874 L 59.283312 18.274209 L 57.817184 18.250649 L 56.409761 18.259386 L 55.058001 18.295580 L 53.758480 18.355217 L 52.507582 18.434988 L 51.301628 18.532179 L 50.136961 18.644575 L 49.010013 18.770385 L 47.917332 18.908171 L 46.855606 19.056797 L 45.821671 19.215381 L 44.812510 19.383261 L 43.825248 19.559962 L 42.857143 19.745177 L 41.905576 19.938741 L 40.968036 20.140623 L 40.042110 20.350914 L 39.125465 20.569816 L 38.215838 20.797639 L 37.311020 21.034799 L 36.408845 21.281821 L 35.507173 21.539334 L 34.603885 21.808082 L 33.696864 22.088928 L 32.783989 22.382862 L 31.863126 22.691014 L 30.932116 23.014667 L 29.988771 23.355270 L 29.030871 23.714462 L 28.056165 24.094092 L 27.062371 24.496241 L 26.047188 24.923256 L 25.008318 25.377775 L 23.943489 25.862770 L 22.850506 26.381578 L 21.727311 26.937942 L 20.572075 27.536056 L 19.383319 28.180591 L 18.160087 28.876736 L 16.902163 29.630204 L 15.610368 30.447226 L 14.286935 31.334505 L 12.935981 32.299104 L 11.564087 33.348261 L 10.180977 34.489078 L 8.800274 35.728065 L 7.440278 37.070491 L 6.124643 38.519533 L 4.882785 40.075214 L 3.749774 41.733210 L 2.765419 43.483652 L 1.972298 45.310170 L 1.412592 47.189489 L 1.123934 49.091901 L 1.134791 50.982833 L 1.460322 52.825455 L 2.099714 54.583978 L 3.035778 56.227001 L 4.236970 57.730209 L 5.661348 59.077894 L 7.261471 60.263144 L 8.989168 61.286895 L 10.799383 62.156256 L 12.652704 62.882586 L 14.516598 63.479675 L 16.365602 63.962252 L 18.180819 64.344895 L 19.949036 64.641316 L 21.661710 64.863966 L 23.313970 65.023857 L 24.903735 65.130546 L 26.430974 65.192211 L 27.897102 65.215771 L 29.304524 65.207034 L 30.656285 65.170840 L 31.955805 65.111203 L 33.206703 65.031432 L 34.412658 64.934241 L 35.577324 64.821845 L 36.704272 64.696035 L 37.796954 64.558249 L 38.858679 64.409623 L 39.892614 64.251039 L 40.901776 64.083159 L 41.889038 63.906458 L 42.857143 63.721243 L 43.808710 63.527679 L 44.746249 63.325797 L 45.672175 63.115506 L 46.588820 62.896604 L 47.498447 62.668781 L 48.403265 62.431621 L 49.305441 62.184599 L 50.207113 61.927086 L 51.110401 61.658338 L 52.017422 61.377492 L 52.930296 61.083558 L 53.851160 60.775406 L 54.782170 60.451753 L 55.725515 60.111150 L 56.683414 59.751958 L 57.658120 59.372328 L 58.651915 58.970179 L 59.667097 58.543164 L 60.705968 58.088645 L 61.770797 57.603650 L 62.863780 57.084842 L 63.986975 56.528478 L 65.142211 55.930364 L 66.330967 55.285829 L 67.554199 54.589684 L 68.812123 53.836216 L 70.103918 53.019194 L 71.427351 52.131915 L 72.778304 51.167316 L 74.150198 50.118159 L 75.533309 48.977342 L 76.914011 47.738355 L 78.274007 46.395929 L 79.589642 44.946887 L 80.831500 43.391206 L 81.964512 41.733210 L 82.948866 39.982768 L 83.741988 38.156250 L 84.301694 36.276931 L 84.590352 34.374519 L 84.579495 32.483587 L 84.253964 30.640965 Z"/>
    <path style="fill:#3dcc5c"
          d="M 79.972517 20.304639 L 78.899772 18.771523 L 77.570358 17.426755 L 76.021037 16.285659 L 74.296387 15.352552 L 72.444022 14.621830 L 70.510229 14.080124 L 68.536688 13.708904 L 66.558529 13.486997 L 64.603608 13.392665 L 62.692707 13.405089 L 60.840307 13.505297 L 59.055620 13.676624 L 57.343679 13.904834 L 55.706336 14.178027 L 54.143127 14.486435 L 52.651968 14.822150 L 51.229699 15.178854 L 49.872494 15.551561 L 48.576162 15.936383 L 47.336356 16.330329 L 46.148728 16.731138 L 45.009020 17.137141 L 43.913129 17.547146 L 42.857143 17.960344 L 41.837356 18.376242 L 40.850274 18.794598 L 39.892614 19.215381 L 38.961290 19.638731 L 38.053402 20.064933 L 37.166221 20.494401 L 36.297176 20.927653 L 35.443833 21.365310 L 34.603885 21.808082 L 33.775130 22.256770 L 32.955462 22.712259 L 32.142857 23.175523 L 31.335356 23.647628 L 30.531058 24.129736 L 29.728105 24.623115 L 28.924679 25.129146 L 28.118985 25.649333 L 27.309255 26.185322 L 26.493735 26.738910 L 25.670689 27.312063 L 24.838395 27.906939 L 23.995157 28.525905 L 23.139309 29.171564 L 22.269237 29.846777 L 21.383404 30.554689 L 20.480384 31.298756 L 19.558921 32.082770 L 18.617996 32.910882 L 17.656926 33.787612 L 16.675494 34.717858 L 15.674118 35.706878 L 14.654069 36.760247 L 13.617752 37.883771 L 12.569058 39.083346 L 11.513794 40.364730 L 10.460188 41.733210 L 9.419471 43.193130 L 8.406488 44.747252 L 7.440278 46.395929 L 6.544512 48.136107 L 5.747609 49.960196 L 5.082325 51.854942 L 4.584560 53.800509 L 4.291200 55.770065 L 4.236970 57.730209 L 4.450528 59.642509 L 4.950424 61.466199 L 5.741768 63.161781 L 6.814514 64.694897 L 8.143927 66.039665 L 9.693248 67.180761 L 11.417899 68.113868 L 13.270264 68.844590 L 15.204057 69.386296 L 17.177597 69.757516 L 19.155756 69.979423 L 21.110678 70.073755 L 23.021579 70.061331 L 24.873979 69.961123 L 26.658665 69.789796 L 28.370607 69.561586 L 30.007950 69.288393 L 31.571159 68.979985 L 33.062318 68.644270 L 34.484587 68.287566 L 35.841791 67.914859 L 37.138124 67.530037 L 38.377929 67.136091 L 39.565558 66.735282 L 40.705266 66.329279 L 41.801156 65.919274 L 42.857143 65.506076 L 43.876930 65.090178 L 44.864011 64.671822 L 45.821671 64.251039 L 46.752996 63.827689 L 47.660884 63.401487 L 48.548065 62.972019 L 49.417110 62.538767 L 50.270452 62.101110 L 51.110401 61.658338 L 51.939156 61.209650 L 52.758823 60.754161 L 53.571429 60.290897 L 54.378930 59.818792 L 55.183228 59.336684 L 55.986181 58.843305 L 56.789607 58.337274 L 57.595300 57.817087 L 58.405030 57.281098 L 59.220550 56.727510 L 60.043597 56.154357 L 60.875891 55.559481 L 61.719129 54.940515 L 62.574977 54.294856 L 63.445048 53.619643 L 64.330882 52.911731 L 65.233902 52.167664 L 66.155365 51.383650 L 67.096290 50.555538 L 68.057360 49.678808 L 69.038791 48.748562 L 70.040168 47.759542 L 71.060217 46.706173 L 72.096534 45.582649 L 73.145227 44.383074 L 74.200492 43.101690 L 75.254098 41.733210 L 76.294815 40.273290 L 77.307798 38.719168 L 78.274007 37.070491 L 79.169774 35.330313 L 79.966677 33.506224 L 80.631961 31.611478 L 81.129726 29.665911 L 81.423085 27.696355 L 81.477316 25.736211 L 81.263758 23.823911 L 80.763862 22.000221 L 79.972517 20.304639 Z"/>
    <path style="fill:#3dcc5c"
          d="M 73.161719 11.428634 L 71.728727 10.225404 L 70.096561 9.270536 L 68.304694 8.569315 L 66.397304 8.114376 L 64.418932 7.887980 L 62.410827 7.865235 L 60.408455 8.017453 L 58.440266 8.315094 L 56.527542 8.729946 L 54.684969 9.236524 L 52.921624 9.812754 L 51.242092 10.440155 L 49.647548 11.103671 L 48.136704 11.791332 L 46.706582 12.493819 L 45.353122 13.204035 L 44.071638 13.916695 L 42.857143 14.627973 L 41.704581 15.335198 L 40.608981 16.036605 L 39.565558 16.731138 L 38.569766 17.418285 L 37.617333 18.097957 L 36.704272 18.770385 L 35.826876 19.436052 L 34.981707 20.095628 L 34.165585 20.749934 L 33.375566 21.399903 L 32.608922 22.046562 L 31.863126 22.691014 L 31.135827 23.334429 L 30.424835 23.978035 L 29.728105 24.623115 L 29.043718 25.271012 L 28.369870 25.923125 L 27.704855 26.580922 L 27.047058 27.245937 L 26.394944 27.919785 L 25.747048 28.604172 L 25.101968 29.300902 L 24.458362 30.011894 L 23.814947 30.739193 L 23.170495 31.484990 L 22.523835 32.251633 L 21.873867 33.041652 L 21.219561 33.857774 L 20.559985 34.702943 L 19.894318 35.580340 L 19.221889 36.493400 L 18.542218 37.445833 L 17.855071 38.441625 L 17.160538 39.485048 L 16.459130 40.580648 L 15.751906 41.733210 L 15.040628 42.947705 L 14.327968 44.229189 L 13.617752 45.582649 L 12.915264 47.012771 L 12.227604 48.523615 L 11.564087 50.118159 L 10.936687 51.797691 L 10.360457 53.561036 L 9.853879 55.403609 L 9.439026 57.316334 L 9.141386 59.284522 L 8.989168 61.286895 L 9.011913 63.294999 L 9.238308 65.273371 L 9.693248 67.180761 L 10.394469 68.972628 L 11.349337 70.604794 L 12.552567 72.037786 L 13.985558 73.241016 L 15.617725 74.195884 L 17.409592 74.897105 L 19.316982 75.352044 L 21.295354 75.578440 L 23.303458 75.601185 L 25.305831 75.448967 L 27.274019 75.151326 L 29.186743 74.736474 L 31.029317 74.229896 L 32.792662 73.653666 L 34.472194 73.026265 L 36.066738 72.362749 L 37.577582 71.675088 L 39.007704 70.972601 L 40.361163 70.262385 L 41.642648 69.549725 L 42.857143 68.838447 L 44.009705 68.131222 L 45.105304 67.429815 L 46.148728 66.735282 L 47.144520 66.048135 L 48.096952 65.368463 L 49.010013 64.696035 L 49.887410 64.030368 L 50.732578 63.370792 L 51.548700 62.716486 L 52.338720 62.066517 L 53.105363 61.419858 L 53.851160 60.775406 L 54.578459 60.131991 L 55.289450 59.488385 L 55.986181 58.843305 L 56.670567 58.195408 L 57.344416 57.543295 L 58.009431 56.885498 L 58.667227 56.220483 L 59.319341 55.546635 L 59.967238 54.862248 L 60.612318 54.165518 L 61.255923 53.454526 L 61.899338 52.727227 L 62.543791 51.981430 L 63.190450 51.214787 L 63.840419 50.424768 L 64.494724 49.608646 L 65.154301 48.763477 L 65.819968 47.886080 L 66.492396 46.973020 L 67.172068 46.020587 L 67.859215 45.024795 L 68.553748 43.981372 L 69.255155 42.885772 L 69.962380 41.733210 L 70.673658 40.518715 L 71.386318 39.237231 L 72.096534 37.883771 L 72.799021 36.453649 L 73.486682 34.942805 L 74.150198 33.348261 L 74.777598 31.668729 L 75.353829 29.905384 L 75.860407 28.062811 L 76.275259 26.150086 L 76.572899 24.181898 L 76.725118 22.179525 L 76.702373 20.171421 L 76.475977 18.193049 L 76.021037 16.285659 L 75.319817 14.493792 L 74.364948 12.861626 L 73.161719 11.428634 Z"/>
    <path style="fill:#3dcc5c"
          d="M 239.591546 75.448967 L 241.559734 75.151324 L 243.472457 74.736476 L 245.315031 74.229896 L 247.078376 73.653664 L 248.757909 73.026266 L 250.352451 72.362747 L 251.863294 71.675087 L 253.293420 70.972603 L 254.646879 70.262387 L 255.928363 69.549724 L 257.142857 68.838446 L 258.295419 68.131221 L 259.391019 67.429813 L 260.434444 66.735283 L 261.430234 66.048133 L 262.382666 65.368461 L 263.295729 64.696033 L 264.173126 64.030367 L 265.018294 63.370791 L 265.834414 62.716487 L 266.874163 62.602063 L 267.938181 62.470830 L 269.029290 62.321117 L 270.150399 62.150961 L 271.304473 61.958091 L 272.494491 61.739846 L 273.723411 61.493143 L 274.994087 61.214409 L 276.309154 60.899507 L 277.670880 60.543677 L 279.080953 60.141459 L 280.540191 59.686616 L 282.048176 59.172103 L 283.602754 58.590021 L 285.199444 57.931689 L 286.830690 57.187719 L 288.485019 56.348301 L 290.146123 55.403610 L 291.791966 54.344456 L 293.394150 53.163197 L 294.917674 51.854940 L 296.321537 50.418913 L 297.560370 48.859907 L 298.587407 47.189490 L 299.358613 45.426609 L 299.837533 43.597299 L 300.000000 41.733210 L 299.837533 39.869121 L 299.358613 38.039811 L 298.587407 36.276930 L 298.876067 34.374519 L 298.865211 32.483589 L 298.539677 30.640967 L 297.900287 28.882444 L 296.964223 27.239417 L 295.763031 25.736211 L 295.549474 23.823913 L 295.049576 22.000221 L 294.258231 20.304639 L 293.185487 18.771523 L 291.856071 17.426756 L 290.306751 16.285659 L 289.605531 14.493793 L 288.650661 12.861626 L 287.447434 11.428633 L 286.014441 10.225406 L 284.382274 9.270536 L 282.590409 8.569316 L 280.683017 8.114374 L 278.704646 7.887981 L 276.696540 7.865233 L 274.694169 8.017453 L 272.725980 8.315096 L 270.813257 8.729944 L 268.970683 9.236524 L 267.207339 9.812756 L 265.527806 10.440154 L 263.933263 11.103673 L 262.422420 11.791333 L 260.992294 12.493817 L 259.638836 13.204033 L 258.357351 13.916696 L 257.142857 14.627974 L 255.990296 15.335199 L 254.894696 16.036607 L 253.851270 16.731137 L 252.855480 17.418287 L 251.903049 18.097959 L 250.989986 18.770387 L 250.112589 19.436053 L 249.267420 20.095629 L 248.451300 20.749933 L 247.411551 20.864357 L 246.347533 20.995590 L 245.256424 21.145303 L 244.135316 21.315459 L 242.981241 21.508329 L 241.791223 21.726574 L 240.562303 21.973277 L 239.291627 22.252011 L 237.976560 22.566913 L 236.614834 22.922743 L 235.204761 23.324961 L 233.745523 23.779804 L 232.237539 24.294317 L 230.682960 24.876399 L 229.086270 25.534731 L 227.455024 26.278701 L 225.800696 27.118119 L 224.139591 28.062810 L 222.493749 29.121964 L 220.891564 30.303223 L 219.368040 31.611480 L 217.964177 33.047507 L 216.725344 34.606513 L 215.698307 36.276930 L 214.927101 38.039811 L 214.448181 39.869121 L 214.285714 41.733210 L 214.448181 43.597299 L 214.927101 45.426609 L 215.698307 47.189490 L 215.409647 49.091901 L 215.420503 50.982831 L 215.746037 52.825453 L 216.385427 54.583976 L 217.321491 56.227003 L 218.522683 57.730209 L 218.736240 59.642507 L 219.236139 61.466199 L 220.027483 63.161781 L 221.100227 64.694897 L 222.429643 66.039664 L 223.978963 67.180761 L 224.680183 68.972627 L 225.635053 70.604794 L 226.838280 72.037787 L 228.271273 73.241014 L 229.903440 74.195884 L 231.695306 74.897104 L 233.602697 75.352046 L 235.581069 75.578439 L 237.589174 75.601187 Z"/>
  </g>
  <g id="layer001_datatype000">
    <path style="fill:#2b0fff"
          d="M 64.285714 4.617836 L 62.590132 3.826491 L 60.766442 3.326595 L 58.854142 3.113037 L 56.893998 3.167268 L 54.924442 3.460627 L 52.978875 3.958392 L 51.084128 4.623676 L 49.260039 5.420579 L 47.519862 6.316346 L 45.871185 7.282555 L 44.317063 8.295538 L 42.857143 9.336255 L 41.488663 10.389861 L 40.207279 11.445125 L 39.007704 12.493819 L 37.884180 13.530136 L 36.830811 14.550185 L 35.841791 15.551561 L 34.911545 16.532993 L 34.034815 17.494063 L 33.206703 18.434988 L 32.422689 19.356451 L 31.678622 20.259471 L 30.970710 21.145305 L 30.295497 22.015376 L 29.649838 22.871224 L 29.030871 23.714462 L 28.435996 24.546756 L 27.862843 25.369803 L 27.309255 26.185322 L 26.773266 26.995052 L 26.253078 27.800746 L 25.747048 28.604172 L 25.253669 29.407125 L 24.771560 30.211423 L 24.299456 31.018924 L 23.836192 31.831530 L 23.380703 32.651197 L 22.932015 33.479952 L 22.489243 34.319901 L 22.051586 35.173243 L 21.618333 36.042288 L 21.188866 36.929469 L 20.762663 37.837357 L 20.339314 38.768682 L 19.918531 39.726342 L 19.500175 40.713423 L 19.084277 41.733210 L 18.671079 42.789196 L 18.261074 43.885087 L 17.855071 45.024795 L 17.454262 46.212423 L 17.060316 47.452229 L 16.675494 48.748562 L 16.302787 50.105766 L 15.946083 51.528035 L 15.610368 53.019194 L 15.301960 54.582403 L 15.028766 56.219746 L 14.800557 57.931687 L 14.629230 59.716374 L 14.529021 61.568774 L 14.516598 63.479675 L 14.610930 65.434596 L 14.832837 67.412755 L 15.204057 69.386296 L 15.745763 71.320089 L 16.476485 73.172454 L 17.409592 74.897105 L 18.550688 76.446425 L 19.895456 77.775839 L 21.428571 78.848584 L 23.124154 79.639929 L 24.947844 80.139825 L 26.860143 80.353383 L 28.820288 80.299152 L 30.789844 80.005793 L 32.735411 79.508028 L 34.630157 78.842744 L 36.454246 78.045841 L 38.194424 77.150074 L 39.843101 76.183865 L 41.397223 75.170882 L 42.857143 74.130165 L 44.225623 73.076559 L 45.507007 72.021295 L 46.706582 70.972601 L 47.830106 69.936284 L 48.883474 68.916235 L 49.872494 67.914859 L 50.802741 66.933427 L 51.679471 65.972357 L 52.507582 65.031432 L 53.291597 64.109969 L 54.035664 63.206949 L 54.743576 62.321115 L 55.418788 61.451044 L 56.064448 60.595196 L 56.683414 59.751958 L 57.278290 58.919664 L 57.851443 58.096617 L 58.405030 57.281098 L 58.941019 56.471368 L 59.461207 55.665674 L 59.967238 54.862248 L 60.460617 54.059295 L 60.942725 53.254997 L 61.414830 52.447496 L 61.878094 51.634890 L 62.333583 50.815223 L 62.782270 49.986468 L 63.225043 49.146519 L 63.662700 48.293177 L 64.095952 47.424132 L 64.525420 46.536951 L 64.951622 45.629063 L 65.374972 44.697738 L 65.795754 43.740078 L 66.214111 42.752997 L 66.630008 41.733210 L 67.043207 40.677224 L 67.453212 39.581333 L 67.859215 38.441625 L 68.260024 37.253997 L 68.653970 36.014191 L 69.038791 34.717858 L 69.411499 33.360654 L 69.768203 31.938385 L 70.103918 30.447226 L 70.412326 28.884017 L 70.685519 27.246674 L 70.913729 25.534733 L 71.085056 23.750046 L 71.185264 21.897646 L 71.197688 19.986745 L 71.103355 18.031824 L 70.881449 16.053665 L 70.510229 14.080124 L 69.968523 12.146331 L 69.237801 10.293966 L 68.304694 8.569315 L 67.163598 7.019995 L 65.818830 5.690581 L 64.285714 4.617836 Z"/>
    <path style="fill:#2b0fff"
          d="M 53.949388 0.336389 L 52.106766 0.010858 L 50.215834 0.000001 L 48.313421 0.288659 L 46.434103 0.848365 L 44.607585 1.641487 L 42.857143 2.625841 L 41.199147 3.758852 L 39.643466 5.000710 L 38.194424 6.316346 L 36.851998 7.676341 L 35.613011 9.057044 L 34.472194 10.440155 L 33.423037 11.812049 L 32.458438 13.163002 L 31.571159 14.486435 L 30.754137 15.778230 L 30.000669 17.036154 L 29.304524 18.259386 L 28.659989 19.448142 L 28.061875 20.603378 L 27.505510 21.726573 L 26.986703 22.819556 L 26.501708 23.884385 L 26.047188 24.923256 L 25.620174 25.938438 L 25.218025 26.932233 L 24.838395 27.906939 L 24.479203 28.864838 L 24.138599 29.808183 L 23.814947 30.739193 L 23.506795 31.660057 L 23.212861 32.572931 L 22.932015 33.479952 L 22.663267 34.383240 L 22.405754 35.284912 L 22.158732 36.187088 L 21.921571 37.091906 L 21.693749 38.001533 L 21.474847 38.918177 L 21.264556 39.844103 L 21.062674 40.781643 L 20.869109 41.733210 L 20.683895 42.701315 L 20.507194 43.688577 L 20.339314 44.697738 L 20.180730 45.731673 L 20.032104 46.793399 L 19.894318 47.886080 L 19.768508 49.013029 L 19.656112 50.177695 L 19.558921 51.383650 L 19.479149 52.634547 L 19.419512 53.934068 L 19.383319 55.285829 L 19.374582 56.693251 L 19.398142 58.159379 L 19.459807 59.686617 L 19.566496 61.276383 L 19.726387 62.928643 L 19.949036 64.641316 L 20.245458 66.409534 L 20.628101 68.224751 L 21.110678 70.073755 L 21.707767 71.937649 L 22.434097 73.790970 L 23.303458 75.601185 L 24.327209 77.328882 L 25.512459 78.929005 L 26.860143 80.353383 L 28.363351 81.554575 L 30.006375 82.490638 L 31.764898 83.130031 L 33.607520 83.455562 L 35.498452 83.466419 L 37.400864 83.177761 L 39.280182 82.618055 L 41.106700 81.824933 L 42.857143 80.840579 L 44.515139 79.707568 L 46.070820 78.465710 L 47.519862 77.150074 L 48.862288 75.790079 L 50.101274 74.409376 L 51.242092 73.026265 L 52.291249 71.654371 L 53.255848 70.303418 L 54.143127 68.979985 L 54.960149 67.688190 L 55.713617 66.430266 L 56.409761 65.207034 L 57.054297 64.018278 L 57.652410 62.863042 L 58.208775 61.739847 L 58.727583 60.646864 L 59.212578 59.582035 L 59.667097 58.543164 L 60.094112 57.527982 L 60.496261 56.534187 L 60.875891 55.559481 L 61.235083 54.601582 L 61.575686 53.658237 L 61.899338 52.727227 L 62.207491 51.806363 L 62.501425 50.893489 L 62.782270 49.986468 L 63.051019 49.083180 L 63.308532 48.181508 L 63.555553 47.279332 L 63.792714 46.374514 L 64.020537 45.464887 L 64.239439 44.548243 L 64.449729 43.622317 L 64.651612 42.684777 L 64.845176 41.733210 L 65.030391 40.765105 L 65.207092 39.777843 L 65.374972 38.768682 L 65.533556 37.734747 L 65.682182 36.673021 L 65.819968 35.580340 L 65.945777 34.453391 L 66.058174 33.288725 L 66.155365 32.082770 L 66.235136 30.831873 L 66.294773 29.532352 L 66.330967 28.180591 L 66.339704 26.773169 L 66.316144 25.307041 L 66.254479 23.779803 L 66.147790 22.190037 L 65.987899 20.537777 L 65.765249 18.825104 L 65.468828 17.056886 L 65.086185 15.241669 L 64.603608 13.392665 L 64.006519 11.528771 L 63.280189 9.675450 L 62.410827 7.865235 L 61.387077 6.137538 L 60.201827 4.537415 L 58.854142 3.113037 L 57.350934 1.911845 L 55.707911 0.975782 L 53.949388 0.336389 Z"/>
    <path style="fill:#2b0fff"
          d="M 251.686577 83.177760 L 253.565897 82.618054 L 255.392413 81.824931 L 257.142857 80.840580 L 258.800854 79.707566 L 260.356534 78.465711 L 261.805577 77.150074 L 263.148000 75.790080 L 264.386987 74.409377 L 265.527806 73.026266 L 266.576961 71.654370 L 267.541564 70.303419 L 268.428840 68.979986 L 269.245864 67.688190 L 269.999331 66.430264 L 270.695477 65.207036 L 271.340010 64.018277 L 271.938124 62.863041 L 272.494491 61.739846 L 273.013299 60.646864 L 273.498291 59.582036 L 273.952813 58.543166 L 274.379824 57.527983 L 274.781974 56.534186 L 275.161603 55.559481 L 275.520797 54.601581 L 275.861400 53.658236 L 276.185053 52.727229 L 276.493204 51.806361 L 276.787140 50.893487 L 277.067983 49.986467 L 277.510757 49.146519 L 277.948414 48.293177 L 278.381666 47.424133 L 278.811133 46.536951 L 279.237339 45.629061 L 279.660686 44.697737 L 280.081470 43.740077 L 280.499824 42.752996 L 280.915723 41.733210 L 281.328921 40.677223 L 281.738927 39.581331 L 282.144930 38.441623 L 282.545739 37.253996 L 282.939686 36.014190 L 283.324504 34.717860 L 283.697211 33.360656 L 284.053916 31.938386 L 284.389633 30.447227 L 284.698041 28.884017 L 284.971234 27.246673 L 285.199444 25.534731 L 285.370770 23.750044 L 285.470979 21.897647 L 285.483403 19.986746 L 285.389070 18.031821 L 285.167164 16.053664 L 284.795944 14.080123 L 284.254239 12.146331 L 283.523516 10.293964 L 282.590409 8.569316 L 281.449311 7.019996 L 280.104544 5.690580 L 278.571429 4.617836 L 276.875846 3.826491 L 275.052154 3.326593 L 273.139856 3.113036 L 271.636650 1.911844 L 269.993623 0.975780 L 268.235100 0.336390 L 266.392479 0.010856 L 264.501549 0.000000 L 262.599137 0.288660 L 260.719817 0.848366 L 258.893301 1.641489 L 257.142857 2.625840 L 255.484860 3.758854 L 253.929180 5.000709 L 252.480137 6.316346 L 251.137714 7.676340 L 249.898727 9.057043 L 248.757909 10.440154 L 247.708753 11.812050 L 246.744150 13.163001 L 245.856874 14.486434 L 245.039850 15.778230 L 244.286383 17.036156 L 243.590237 18.259384 L 242.945704 19.448143 L 242.347590 20.603379 L 241.791223 21.726574 L 241.272416 22.819556 L 240.787423 23.884384 L 240.332901 24.923254 L 239.905890 25.938437 L 239.503740 26.932234 L 239.124111 27.906939 L 238.764917 28.864839 L 238.424314 29.808184 L 238.100661 30.739191 L 237.792510 31.660059 L 237.498574 32.572933 L 237.217731 33.479953 L 236.774957 34.319901 L 236.337300 35.173243 L 235.904049 36.042287 L 235.474581 36.929469 L 235.048376 37.837359 L 234.625029 38.768683 L 234.204244 39.726343 L 233.785890 40.713424 L 233.369991 41.733210 L 232.956793 42.789197 L 232.546787 43.885089 L 232.140784 45.024797 L 231.739976 46.212424 L 231.346029 47.452230 L 230.961210 48.748560 L 230.588503 50.105764 L 230.231799 51.528034 L 229.896081 53.019193 L 229.587673 54.582403 L 229.314480 56.219747 L 229.086270 57.931689 L 228.914944 59.716376 L 228.814736 61.568773 L 228.802311 63.479674 L 228.896644 65.434599 L 229.118550 67.412756 L 229.489770 69.386297 L 230.031476 71.320089 L 230.762199 73.172456 L 231.695306 74.897104 L 232.836403 76.446424 L 234.181170 77.775840 L 235.714286 78.848584 L 237.409869 79.639929 L 239.233560 80.139827 L 241.145859 80.353384 L 242.649064 81.554576 L 244.292091 82.490640 L 246.050614 83.130030 L 247.893236 83.455564 L 249.784166 83.466420 Z"/>
  </g>
  <g id="layer004_datatype000">
    <path style="fill:#7b3dcc"
          d="M 144.543720 83.177760 L 146.423040 82.618054 L 148.249556 81.824931 L 150.000000 80.840580 L 151.657997 79.707566 L 153.213677 78.465711 L 154.662720 77.150074 L 156.005143 75.790080 L 157.244130 74.409377 L 158.384949 73.026266 L 159.434104 71.654370 L 160.398707 70.303419 L 161.285983 68.979986 L 162.103007 67.688190 L 162.856474 66.430264 L 163.552620 65.207036 L 164.197153 64.018277 L 164.795267 62.863041 L 165.351634 61.739846 L 166.580554 61.493143 L 167.851230 61.214409 L 169.166297 60.899507 L 170.528023 60.543677 L 171.938096 60.141459 L 173.397334 59.686616 L 174.905319 59.172103 L 176.459897 58.590021 L 178.056587 57.931689 L 179.687833 57.187719 L 181.342161 56.348301 L 183.003266 55.403610 L 184.649109 54.344456 L 186.251293 53.163197 L 187.774817 51.854940 L 189.178680 50.418913 L 190.417513 48.859907 L 191.444550 47.189490 L 192.215756 45.426609 L 192.694676 43.597299 L 192.857143 41.733210 L 192.694676 39.869121 L 192.215756 38.039811 L 191.444550 36.276930 L 191.733210 34.374519 L 191.722354 32.483589 L 191.396820 30.640967 L 190.757430 28.882444 L 189.821366 27.239417 L 188.620174 25.736211 L 188.406617 23.823913 L 187.906719 22.000221 L 187.115374 20.304639 L 186.042630 18.771523 L 184.713214 17.426756 L 183.163894 16.285659 L 182.462674 14.493793 L 181.507804 12.861626 L 180.304577 11.428633 L 178.871584 10.225406 L 177.239417 9.270536 L 175.447551 8.569316 L 174.306454 7.019996 L 172.961687 5.690580 L 171.428571 4.617836 L 169.732989 3.826491 L 167.909297 3.326593 L 165.996999 3.113036 L 164.493793 1.911844 L 162.850766 0.975780 L 161.092243 0.336390 L 159.249621 0.010856 L 157.358691 0.000000 L 155.456280 0.288660 L 153.576960 0.848366 L 151.750444 1.641489 L 150.000000 2.625840 L 148.342003 3.758854 L 146.786323 5.000709 L 145.337280 6.316346 L 143.994857 7.676340 L 142.755870 9.057043 L 141.615051 10.440154 L 140.565896 11.812050 L 139.601293 13.163001 L 138.714017 14.486434 L 137.896993 15.778230 L 137.143526 17.036156 L 136.447380 18.259384 L 135.802847 19.448143 L 135.204733 20.603379 L 134.648366 21.726574 L 133.419446 21.973277 L 132.148770 22.252011 L 130.833703 22.566913 L 129.471977 22.922743 L 128.061904 23.324961 L 126.602666 23.779804 L 125.094681 24.294317 L 123.540103 24.876399 L 121.943413 25.534731 L 120.312167 26.278701 L 118.657839 27.118119 L 116.996734 28.062810 L 115.350891 29.121964 L 113.748707 30.303223 L 112.225183 31.611480 L 110.821320 33.047507 L 109.582487 34.606513 L 108.555450 36.276930 L 107.784244 38.039811 L 107.305324 39.869121 L 107.142857 41.733210 L 107.305324 43.597299 L 107.784244 45.426609 L 108.555450 47.189490 L 108.266790 49.091901 L 108.277646 50.982831 L 108.603180 52.825453 L 109.242570 54.583976 L 110.178634 56.227003 L 111.379826 57.730209 L 111.593383 59.642507 L 112.093281 61.466199 L 112.884626 63.161781 L 113.957370 64.694897 L 115.286786 66.039664 L 116.836106 67.180761 L 117.537326 68.972627 L 118.492196 70.604794 L 119.695423 72.037787 L 121.128416 73.241014 L 122.760583 74.195884 L 124.552449 74.897104 L 125.693546 76.446424 L 127.038313 77.775840 L 128.571429 78.848584 L 130.267011 79.639929 L 132.090703 80.139827 L 134.003001 80.353384 L 135.506207 81.554576 L 137.149234 82.490640 L 138.907757 83.130030 L 140.750379 83.455564 L 142.641309 83.466420 Z"/>
  </g>
</svg>
