<?xml version="1.0" encoding="UTF-8" standalone="no"?>
<svg
   width="300.000000" 
   height="150.000000"
   version="1.1"
   xmlns:svg="http://www.w3.org/2000/svg"
   xmlns="http://www.w3.org/2000/svg">
  <g id="layer000_datatype000">
    <path style="fill:#3dcc5c"
          d="M 153.273795 149.982135 L 156.555375 149.928345 L 159.852615 149.838030 L 163.173420 149.710215 L 166.525875 149.543430 L 169.918230 149.335830 L 173.358915 149.085015 L 176.856660 148.788075 L 180.420450 148.441470 L 184.059570 148.040985 L 187.783635 147.581670 L 191.602515 147.057675 L 195.526395 146.462130 L 199.565655 145.787085 L 203.730720 145.023225 L 208.031940 144.159765 L 212.479305 143.184195 L 217.082040 142.082040 L 221.848080 140.836635 L 226.783335 139.428870 L 231.890670 137.836920 L 237.168615 136.036125 L 242.609640 133.998840 L 248.198055 131.694675 L 253.907415 129.090780 L 259.697565 126.152820 L 265.511430 122.846400 L 271.271880 119.139360 L 276.879525 115.004955 L 282.211860 110.426055 L 287.125380 105.399960 L 291.461295 99.943440 L 295.055925 94.096980 L 297.755145 87.926895 L 299.431365 81.524310 L 300.000000 75.000000 L 299.431365 68.475690 L 297.755145 62.073105 L 295.055925 55.903020 L 291.461295 50.056560 L 287.125380 44.600040 L 282.211860 39.573945 L 276.879525 34.995045 L 271.271880 30.860640 L 265.511430 27.153600 L 259.697565 23.847180 L 253.907415 20.909220 L 248.198055 18.305325 L 242.609640 16.001160 L 237.168615 13.963875 L 231.890670 12.163080 L 226.783335 10.571130 L 221.848080 9.163365 L 217.082040 7.917960 L 212.479305 6.815805 L 208.031940 5.840235 L 203.730720 4.976775 L 199.565655 4.212915 L 195.526395 3.537870 L 191.602515 2.942325 L 187.783635 2.418330 L 184.059570 1.959015 L 180.420450 1.558530 L 176.856660 1.211925 L 173.358915 0.914985 L 169.918230 0.664170 L 166.525875 0.456570 L 163.173420 0.289785 L 159.852615 0.161970 L 156.555375 0.071655 L 153.273795 0.017865 L 150.000000 0.000000 L 146.726205 0.017865 L 143.444625 0.071655 L 140.147385 0.161970 L 136.826580 0.289785 L 133.474125 0.456570 L 130.081770 0.664170 L 126.641085 0.914985 L 123.143340 1.211925 L 119.579550 1.558530 L 115.940430 1.959015 L 112.216365 2.418330 L 108.397485 2.942325 L 104.473605 3.537870 L 100.434345 4.212915 L 96.269280 4.976775 L 91.968060 5.840235 L 87.520695 6.815805 L 82.917960 7.917960 L 78.151920 9.163365 L 73.216665 10.571130 L 68.109330 12.163080 L 62.831385 13.963875 L 57.390360 16.001160 L 51.801945 18.305325 L 46.092585 20.909220 L 40.302435 23.847180 L 34.488570 27.153600 L 28.728120 30.860640 L 23.120475 34.995045 L 17.788140 39.573945 L 12.874620 44.600040 L 8.538705 50.056560 L 4.944075 55.903020 L 2.244855 62.073105 L 0.568635 68.475690 L 0.000000 75.000000 L 150.000000 75.000000 L 150.000000 45.000000 L 210.000000 45.000000 L 210.000000 75.000000 L 150.000000 75.000000 L 0.000000 75.000000 L 0.568635 81.524310 L 2.244855 87.926895 L 4.944075 94.096980 L 8.538705 99.943440 L 12.874620 105.399960 L 17.788140 110.426055 L 23.120475 115.004955 L 28.728120 119.139360 L 34.488570 122.846400 L 40.302435 126.152820 L 46.092585 129.090780 L 51.801945 131.694675 L 57.390360 133.998840 L 62.831385 136.036125 L 68.109330 137.836920 L 73.216665 139.428870 L 78.151920 140.836635 L 82.917960 142.082040 L 87.520695 143.184195 L 91.968060 144.159765 L 96.269280 145.023225 L 100.434345 145.787085 L 104.473605 146.462130 L 108.397485 147.057675 L 112.216365 147.581670 L 115.940430 148.040985 L 119.579550 148.441470 L 123.143340 148.788075 L 126.641085 149.085015 L 130.081770 149.335830 L 133.474125 149.543430 L 136.826580 149.710215 L 140.147385 149.838030 L 143.444625 149.928345 L 146.726205 149.982135 L 150.000000 150.000000 Z"/>
  </g>
</svg>
